<?xml version="1.0" encoding="UTF-8" standalone="no"?>
<!-- Generator: Adobe Illustrator 19.0.0, SVG Export Plug-In . SVG Version: 6.00 Build 0)  -->

<svg
   xmlns:dc="http://purl.org/dc/elements/1.1/"
   xmlns:cc="http://creativecommons.org/ns#"
   xmlns:rdf="http://www.w3.org/1999/02/22-rdf-syntax-ns#"
   xmlns:svg="http://www.w3.org/2000/svg"
   xmlns="http://www.w3.org/2000/svg"
   xmlns:sodipodi="http://sodipodi.sourceforge.net/DTD/sodipodi-0.dtd"
   xmlns:inkscape="http://www.inkscape.org/namespaces/inkscape"
   version="1.1"
   id="Layer_1"
   x="0px"
   y="0px"
   viewBox="0 0 512 512"
   style="enable-background:new 0 0 512 512;"
   xml:space="preserve"
   sodipodi:docname="dialog.svg"
   inkscape:version="0.92.3 (2405546, 2018-03-11)"><metadata
   id="metadata49"><rdf:RDF><cc:Work
       rdf:about=""><dc:format>image/svg+xml</dc:format><dc:type
         rdf:resource="http://purl.org/dc/dcmitype/StillImage" /></cc:Work></rdf:RDF></metadata><defs
   id="defs47" /><sodipodi:namedview
   pagecolor="#ffffff"
   bordercolor="#666666"
   borderopacity="1"
   objecttolerance="10"
   gridtolerance="10"
   guidetolerance="10"
   inkscape:pageopacity="0"
   inkscape:pageshadow="2"
   inkscape:window-width="1366"
   inkscape:window-height="705"
   id="namedview45"
   showgrid="false"
   inkscape:zoom="0.4609375"
   inkscape:cx="256"
   inkscape:cy="256"
   inkscape:window-x="-8"
   inkscape:window-y="-8"
   inkscape:window-maximized="1"
   inkscape:current-layer="Layer_1" />
<g
   id="g6"
   transform="matrix(0.53723754,0,0,0.53723754,118.46742,118.46719)">
	<g
   id="g4">
		<path
   d="m 489.412,112.94 h -67.765 v 22.588 22.588 137.537 c 0,37.365 -30.398,67.765 -67.765,67.765 H 213.611 l -21.512,15.059 -32.27,22.588 -19.617,13.732 c 4.129,5.376 10.603,8.856 17.906,8.856 H 312.63 l 109.618,76.734 c 3.869,2.708 8.401,4.084 12.955,4.084 3.567,0 7.148,-0.843 10.43,-2.552 7.469,-3.891 12.156,-11.613 12.156,-20.036 v -58.229 h 31.624 c 12.475,0 22.588,-10.112 22.588,-22.588 V 135.528 C 512,123.053 501.886,112.94 489.412,112.94 Z"
   id="path2"
   inkscape:connector-curvature="0" />
	</g>
</g>
<g
   id="g12"
   transform="matrix(0.53723754,0,0,0.53723754,118.46742,118.46719)">
	<g
   id="g10">
		<path
   d="M 353.882,7.529 H 22.588 C 10.114,7.529 0,17.641 0,30.118 v 265.535 c 0,12.476 10.114,22.588 22.588,22.588 h 31.624 v 58.229 c 0,8.422 4.686,16.145 12.157,20.036 3.281,1.709 6.862,2.552 10.43,2.552 4.552,0 9.086,-1.376 12.955,-4.084 l 45.776,-32.044 22.588,-15.812 22.588,-15.812 18.665,-13.067 h 154.511 c 12.475,0 22.588,-10.112 22.588,-22.588 V 158.116 135.528 112.94 30.118 C 376.471,17.641 366.357,7.529 353.882,7.529 Z M 263.529,233.412 H 249.75 112.941 c -12.475,0 -22.588,-10.115 -22.588,-22.588 0,-12.476 10.113,-22.588 22.588,-22.588 h 150.588 c 9.047,0 16.831,5.332 20.436,13.014 1.366,2.911 2.152,6.147 2.152,9.574 10e-4,12.473 -10.113,22.588 -22.588,22.588 z m 0,-90.355 H 112.941 c -12.475,0 -22.588,-10.114 -22.588,-22.588 0,-12.475 10.113,-22.588 22.588,-22.588 h 150.588 c 12.475,0 22.588,10.114 22.588,22.588 10e-4,12.475 -10.113,22.588 -22.588,22.588 z"
   id="path8"
   inkscape:connector-curvature="0" />
	</g>
</g>
<g
   id="g14">
</g>
<g
   id="g16">
</g>
<g
   id="g18">
</g>
<g
   id="g20">
</g>
<g
   id="g22">
</g>
<g
   id="g24">
</g>
<g
   id="g26">
</g>
<g
   id="g28">
</g>
<g
   id="g30">
</g>
<g
   id="g32">
</g>
<g
   id="g34">
</g>
<g
   id="g36">
</g>
<g
   id="g38">
</g>
<g
   id="g40">
</g>
<g
   id="g42">
</g>
</svg>