<?xml version="1.0" encoding="UTF-8" standalone="no"?>
<!-- Created with Inkscape (http://www.inkscape.org/) -->

<svg
   xmlns:dc="http://purl.org/dc/elements/1.1/"
   xmlns:cc="http://creativecommons.org/ns#"
   xmlns:rdf="http://www.w3.org/1999/02/22-rdf-syntax-ns#"
   xmlns:svg="http://www.w3.org/2000/svg"
   xmlns="http://www.w3.org/2000/svg"
   xmlns:sodipodi="http://sodipodi.sourceforge.net/DTD/sodipodi-0.dtd"
   xmlns:inkscape="http://www.inkscape.org/namespaces/inkscape"
   width="160mm"
   height="80mm"
   viewBox="0 0 160 80"
   version="1.1"
   id="svg8"
   inkscape:version="0.92.3 (2405546, 2018-03-11)"
   sodipodi:docname="mcb-mini.svg">
  <defs
     id="defs2" />
  <sodipodi:namedview
     id="base"
     pagecolor="#ffffff"
     bordercolor="#666666"
     borderopacity="1.0"
     inkscape:pageopacity="0.0"
     inkscape:pageshadow="2"
     inkscape:zoom="3.959798"
     inkscape:cx="271.28225"
     inkscape:cy="282.09318"
     inkscape:document-units="mm"
     inkscape:current-layer="layer1"
     showgrid="false"
     inkscape:window-width="1366"
     inkscape:window-height="705"
     inkscape:window-x="-8"
     inkscape:window-y="-8"
     inkscape:window-maximized="1"
     inkscape:pagecheckerboard="true"
     inkscape:snap-global="true"
     showguides="false" />
  <metadata
     id="metadata5">
    <rdf:RDF>
      <cc:Work
         rdf:about="">
        <dc:format>image/svg+xml</dc:format>
        <dc:type
           rdf:resource="http://purl.org/dc/dcmitype/StillImage" />
        <dc:title />
      </cc:Work>
    </rdf:RDF>
  </metadata>
  <g
     inkscape:label="Camada 1"
     inkscape:groupmode="layer"
     id="layer1"
     transform="translate(0,-217)">
    <path
       style="fill:#0096b3;fill-opacity:1;stroke:none;stroke-width:0.26458332px;stroke-linecap:butt;stroke-linejoin:miter;stroke-opacity:1"
       d="m 37.24955,258.66374 v -5.62239 l -8.031993,-3.68527 -5.669642,2.36235 z"
       id="path859"
       inkscape:connector-curvature="0"
       sodipodi:nodetypes="ccccc" />
    <path
       style="fill:#006281;fill-opacity:1;stroke:none;stroke-width:0.26458332px;stroke-linecap:butt;stroke-linejoin:miter;stroke-opacity:1"
       d="m 22.221797,250.90409 15.100728,-6.69795 v -5.42703 l -15.100728,7.44776 z"
       id="path861"
       inkscape:connector-curvature="0"
       sodipodi:nodetypes="ccccc" />
    <g
       aria-label="Mapa dos Cursos de Computação do Brasil"
       transform="matrix(0.26458333,0,0,0.26458333,-50.270842,169.07381)"
       style="font-style:normal;font-variant:normal;font-weight:normal;font-stretch:normal;font-size:40px;line-height:1.25;font-family:'Roboto Condensed';-inkscape-font-specification:'Roboto Condensed, Normal';font-variant-ligatures:normal;font-variant-caps:normal;font-variant-numeric:normal;font-feature-settings:normal;text-align:start;letter-spacing:0px;word-spacing:0px;writing-mode:lr-tb;text-anchor:start;fill:#003748;fill-opacity:1;stroke:none"
       id="flowRoot924">
      <path
         d="m 298.98242,440.15234 5.3711,20.56641 5.35156,-20.56641 h 7.5 v 28.4375 h -5.76172 v -7.69531 l 0.52734,-11.85547 -5.68359,19.55078 h -3.90625 l -5.68359,-19.55078 0.52734,11.85547 v 7.69531 h -5.74219 v -28.4375 z"
         style="font-style:normal;font-variant:normal;font-weight:bold;font-stretch:normal;font-size:40px;font-family:'Roboto Condensed';-inkscape-font-specification:'Roboto Condensed, Bold';font-variant-ligatures:normal;font-variant-caps:normal;font-variant-numeric:normal;font-feature-settings:normal;text-align:start;writing-mode:lr-tb;text-anchor:start;fill:#003748;fill-opacity:1"
         id="path7339"
         inkscape:connector-curvature="0" />
      <path
         d="m 331.56055,468.58984 q -0.23438,-0.48828 -0.46875,-1.64062 -1.48438,2.03125 -4.02344,2.03125 -2.65625,0 -4.41406,-1.75781 -1.73828,-1.75782 -1.73828,-4.55079 0,-3.32031 2.10937,-5.13671 2.12891,-1.81641 6.11328,-1.85547 h 1.67969 v -1.69922 q 0,-1.42578 -0.48828,-2.01172 -0.48828,-0.58594 -1.42578,-0.58594 -2.07032,0 -2.07032,2.42188 h -5.52734 q 0,-2.92969 2.1875,-4.82422 2.20703,-1.91406 5.56641,-1.91406 3.47656,0 5.37109,1.8164 1.91406,1.79688 1.91406,5.15625 v 9.94141 q 0.0391,2.73437 0.78125,4.27734 v 0.33203 z m -3.26172,-3.94531 q 0.91797,0 1.5625,-0.37109 0.64453,-0.3711 0.95703,-0.87891 V 459 h -1.32813 q -1.40625,0 -2.22656,0.89844 -0.80078,0.89843 -0.80078,2.40234 0,2.34375 1.83594,2.34375 z"
         style="font-style:normal;font-variant:normal;font-weight:bold;font-stretch:normal;font-size:40px;font-family:'Roboto Condensed';-inkscape-font-specification:'Roboto Condensed, Bold';font-variant-ligatures:normal;font-variant-caps:normal;font-variant-numeric:normal;font-feature-settings:normal;text-align:start;writing-mode:lr-tb;text-anchor:start;fill:#003748;fill-opacity:1"
         id="path7341"
         inkscape:connector-curvature="0" />
      <path
         d="m 356.81445,458.6875 q 0,4.98047 -1.71875,7.63672 -1.69922,2.65625 -5.07812,2.65625 -2.57813,0 -4.14063,-2.08985 v 9.82422 h -5.52734 v -29.25781 h 5.11719 l 0.19531,1.93359 q 1.58203,-2.32421 4.31641,-2.32421 3.3789,0 5.07812,2.46093 1.71875,2.46094 1.75781,7.53907 z m -5.50781,-1.38672 q 0,-3.06641 -0.68359,-4.33594 -0.66407,-1.26953 -2.26563,-1.26953 -1.69922,0 -2.48047,1.42578 v 9.90235 q 0.74219,1.36718 2.51953,1.36718 1.64063,0 2.26563,-1.38671 0.64453,-1.38672 0.64453,-4.31641 z"
         style="font-style:normal;font-variant:normal;font-weight:bold;font-stretch:normal;font-size:40px;font-family:'Roboto Condensed';-inkscape-font-specification:'Roboto Condensed, Bold';font-variant-ligatures:normal;font-variant-caps:normal;font-variant-numeric:normal;font-feature-settings:normal;text-align:start;writing-mode:lr-tb;text-anchor:start;fill:#003748;fill-opacity:1"
         id="path7343"
         inkscape:connector-curvature="0" />
      <path
         d="m 370.23242,468.58984 q -0.23437,-0.48828 -0.46875,-1.64062 -1.48437,2.03125 -4.02344,2.03125 -2.65625,0 -4.41406,-1.75781 -1.73828,-1.75782 -1.73828,-4.55079 0,-3.32031 2.10938,-5.13671 2.1289,-1.81641 6.11328,-1.85547 h 1.67968 v -1.69922 q 0,-1.42578 -0.48828,-2.01172 -0.48828,-0.58594 -1.42578,-0.58594 -2.07031,0 -2.07031,2.42188 h -5.52734 q 0,-2.92969 2.1875,-4.82422 2.20703,-1.91406 5.5664,-1.91406 3.47656,0 5.3711,1.8164 1.91406,1.79688 1.91406,5.15625 v 9.94141 q 0.0391,2.73437 0.78125,4.27734 v 0.33203 z m -3.26172,-3.94531 q 0.91797,0 1.5625,-0.37109 0.64453,-0.3711 0.95703,-0.87891 V 459 h -1.32812 q -1.40625,0 -2.22656,0.89844 -0.80078,0.89843 -0.80078,2.40234 0,2.34375 1.83593,2.34375 z"
         style="font-style:normal;font-variant:normal;font-weight:bold;font-stretch:normal;font-size:40px;font-family:'Roboto Condensed';-inkscape-font-specification:'Roboto Condensed, Bold';font-variant-ligatures:normal;font-variant-caps:normal;font-variant-numeric:normal;font-feature-settings:normal;text-align:start;writing-mode:lr-tb;text-anchor:start;fill:#003748;fill-opacity:1"
         id="path7345"
         inkscape:connector-curvature="0" />
      <path
         d="m 388.68945,462.92578 q 0,-0.70312 -0.68359,-1.28906 -0.66406,-0.60547 -2.98828,-1.6211 -3.41797,-1.38671 -4.70703,-2.87109 -1.26953,-1.48437 -1.26953,-3.69141 0,-2.77343 1.99218,-4.57031 2.01172,-1.8164 5.3125,-1.8164 3.47657,0 5.56641,1.79687 2.08984,1.79688 2.08984,4.82422 h -5.52734 q 0,-2.57813 -2.14844,-2.57813 -0.8789,0 -1.44531,0.54688 -0.56641,0.54687 -0.56641,1.52344 0,0.70312 0.625,1.25 0.625,0.52734 2.94922,1.52343 3.37891,1.25 4.76563,2.79297 1.40625,1.52344 1.40625,3.96485 0,2.83203 -2.12891,4.55078 -2.12891,1.71875 -5.58594,1.71875 -2.32422,0 -4.10156,-0.89844 -1.77734,-0.91797 -2.79297,-2.53906 -0.99609,-1.6211 -0.99609,-3.4961 h 5.2539 q 0.0391,1.44532 0.66407,2.16797 0.64453,0.72266 2.08984,0.72266 2.22656,0 2.22656,-2.01172 z"
         style="font-style:normal;font-variant:normal;font-weight:bold;font-stretch:normal;font-size:40px;font-family:'Roboto Condensed';-inkscape-font-specification:'Roboto Condensed, Bold';font-variant-ligatures:normal;font-variant-caps:normal;font-variant-numeric:normal;font-feature-settings:normal;text-align:start;writing-mode:lr-tb;text-anchor:start;fill:#003748;fill-opacity:1"
         id="path7363"
         inkscape:connector-curvature="0" />
      <path
         d="m 428.50977,459.11719 c -0.14323,3.24219 -1.05469,5.69661 -2.73438,7.36328 -1.67969,1.66667 -4.04948,2.5 -7.10937,2.5 -3.21615,0 -5.6836,-1.05469 -7.40235,-3.16406 -1.70573,-2.1224 -2.55859,-5.14323 -2.55859,-9.0625 v -4.78516 c 0,-3.90625 0.88542,-6.91407 2.65625,-9.02344 1.77083,-2.12239 4.23177,-3.18359 7.38281,-3.18359 3.09896,0 5.44922,0.86588 7.05078,2.59765 1.61459,1.73177 2.53256,4.21875 2.75391,7.46094 h -5.76172 c -0.0521,-2.00521 -0.36457,-3.38541 -0.9375,-4.14062 -0.55989,-0.76823 -1.59505,-1.15235 -3.10547,-1.15235 -1.53646,0 -2.6237,0.54037 -3.26172,1.6211 -0.63802,1.06771 -0.97656,2.83203 -1.01562,5.29297 v 5.37109 c 0,2.82552 0.3125,4.76562 0.9375,5.82031 0.63802,1.05469 1.72526,1.58203 3.26172,1.58203 1.51041,0 2.55208,-0.36458 3.125,-1.09375 0.57291,-0.74219 0.89843,-2.07682 0.97656,-4.0039 z"
         style="font-style:normal;font-variant:normal;font-weight:bold;font-stretch:normal;font-size:40px;font-family:'Roboto Condensed';-inkscape-font-specification:'Roboto Condensed, Bold';font-variant-ligatures:normal;font-variant-caps:normal;font-variant-numeric:normal;font-feature-settings:normal;text-align:start;writing-mode:lr-tb;text-anchor:start;fill:#003748;fill-opacity:1"
         id="path7369"
         inkscape:connector-curvature="0"
         sodipodi:nodetypes="csscsscsccccsccscsccc" />
      <path
         d="m 431.12695,457.33984 c 0,-3.20312 0.75521,-5.71614 2.26563,-7.53906 1.51041,-1.82291 3.60026,-2.73437 6.26953,-2.73437 2.69531,0 4.79818,0.91146 6.30859,2.73437 1.51042,1.82292 2.26563,4.34896 2.26563,7.57813 v 1.34765 c 0,3.21615 -0.7487,5.72917 -2.2461,7.53906 -1.49739,1.8099 -3.59375,2.71485 -6.28906,2.71485 -2.70833,0 -4.81771,-0.90495 -6.32812,-2.71485 -1.4974,-1.82291 -2.2461,-4.34895 -2.2461,-7.57812 z m 5.54688,1.38672 c 0,3.77604 1.00911,5.66406 3.02734,5.66406 1.86198,0 2.86458,-1.57552 3.00781,-4.72656 l 0.0195,-2.32422 c 0,-1.92708 -0.26693,-3.35286 -0.80079,-4.27734 -0.53385,-0.9375 -1.28906,-1.40625 -2.26562,-1.40625 -0.9375,0 -1.67318,0.46875 -2.20703,1.40625 -0.52083,0.92448 -0.78125,2.35026 -0.78125,4.27734 z"
         style="font-style:normal;font-variant:normal;font-weight:bold;font-stretch:normal;font-size:40px;font-family:'Roboto Condensed';-inkscape-font-specification:'Roboto Condensed, Bold';font-variant-ligatures:normal;font-variant-caps:normal;font-variant-numeric:normal;font-feature-settings:normal;text-align:start;writing-mode:lr-tb;text-anchor:start;fill:#003748;fill-opacity:1"
         id="path7371"
         inkscape:connector-curvature="0"
         sodipodi:nodetypes="sssssscscsscscccsccc" />
      <path
         d="m 456.88867,447.45703 0.15625,1.95313 c 1.23698,-1.5625 2.8711,-2.34375 4.90235,-2.34375 2.10937,0 3.60026,0.95052 4.47265,2.85156 1.21094,-1.90104 2.9362,-2.85156 5.17578,-2.85156 3.69792,0 5.59245,2.55859 5.6836,7.67578 v 13.84765 h -5.52735 v -13.49609 c 0,-1.22396 -0.16927,-2.09636 -0.50781,-2.61719 -0.33854,-0.52083 -0.91146,-0.78125 -1.71875,-0.78125 -1.02865,0 -1.79688,0.63151 -2.30469,1.89453 l 0.0391,0.66407 v 14.33593 h -5.52735 v -13.45703 c 0,-1.21093 -0.16276,-2.08333 -0.48828,-2.61719 -0.32552,-0.54687 -0.90495,-0.82031 -1.73828,-0.82031 -0.95052,0 -1.70573,0.51432 -2.26563,1.54297 v 15.35156 h -5.52734 v -21.13281 z"
         style="font-style:normal;font-variant:normal;font-weight:bold;font-stretch:normal;font-size:40px;font-family:'Roboto Condensed';-inkscape-font-specification:'Roboto Condensed, Bold';font-variant-ligatures:normal;font-variant-caps:normal;font-variant-numeric:normal;font-feature-settings:normal;text-align:start;writing-mode:lr-tb;text-anchor:start;fill:#003748;fill-opacity:1"
         id="path7373"
         inkscape:connector-curvature="0"
         sodipodi:nodetypes="ccscscccsssccccscsccccc" />
      <path
         d="m 497.8457,458.6875 c 0,3.32031 -0.57292,5.86589 -1.71875,7.63672 -1.13281,1.77083 -2.82552,2.65625 -5.07812,2.65625 -1.71875,0 -3.09896,-0.69662 -4.14063,-2.08985 v 9.82422 h -5.52734 v -29.25781 h 5.11719 l 0.19531,1.93359 c 1.05469,-1.54947 2.49349,-2.32421 4.31641,-2.32421 2.2526,0 3.94531,0.82031 5.07812,2.46093 1.14583,1.64063 1.73177,4.15365 1.75781,7.53907 z m -5.50781,-1.38672 c 0,-2.04427 -0.22786,-3.48959 -0.68359,-4.33594 -0.44271,-0.84635 -1.19792,-1.26953 -2.26563,-1.26953 -1.13281,0 -1.95964,0.47526 -2.48047,1.42578 v 9.90235 c 0.49479,0.91145 1.33464,1.36718 2.51953,1.36718 1.09375,0 1.84896,-0.46224 2.26563,-1.38671 0.42969,-0.92448 0.64453,-2.36328 0.64453,-4.31641 z"
         style="font-style:normal;font-variant:normal;font-weight:bold;font-stretch:normal;font-size:40px;font-family:'Roboto Condensed';-inkscape-font-specification:'Roboto Condensed, Bold';font-variant-ligatures:normal;font-variant-caps:normal;font-variant-numeric:normal;font-feature-settings:normal;text-align:start;writing-mode:lr-tb;text-anchor:start;fill:#003748;fill-opacity:1"
         id="path7375"
         inkscape:connector-curvature="0"
         sodipodi:nodetypes="scsccccccsccsscsccscss" />
      <path
         d="m 511.61523,466.65625 c -1.14583,1.54948 -2.68229,2.32422 -4.60937,2.32422 -1.94011,0 -3.41146,-0.66406 -4.41406,-1.99219 -1.00261,-1.34115 -1.50391,-3.28776 -1.50391,-5.83984 v -13.69141 h 5.52734 v 13.82813 c 0.0261,2.05729 0.70966,3.08593 2.05079,3.08593 1.26302,0 2.17448,-0.54687 2.73437,-1.64062 v -15.27344 h 5.56641 v 21.13281 h -5.19532 z"
         style="font-style:normal;font-variant:normal;font-weight:bold;font-stretch:normal;font-size:40px;font-family:'Roboto Condensed';-inkscape-font-specification:'Roboto Condensed, Bold';font-variant-ligatures:normal;font-variant-caps:normal;font-variant-numeric:normal;font-feature-settings:normal;text-align:start;writing-mode:lr-tb;text-anchor:start;fill:#003748;fill-opacity:1"
         id="path7377"
         inkscape:connector-curvature="0"
         sodipodi:nodetypes="cscscccscccccc" />
      <path
         d="m 527.33789,442.26172 v 5.19531 h 2.83203 v 4.16016 h -2.83203 v 10.48828 c 0,0.83333 0.11068,1.40625 0.33203,1.71875 0.23437,0.3125 0.67708,0.46875 1.32813,0.46875 0.53385,0 0.97005,-0.0456 1.30859,-0.13672 l -0.0391,4.29687 c -0.9375,0.35157 -1.95313,0.52735 -3.04688,0.52735 -3.56771,0 -5.37109,-2.04427 -5.41015,-6.13281 v -11.23047 h -2.44141 v -4.16016 h 2.44141 v -5.19531 z"
         style="font-style:normal;font-variant:normal;font-weight:bold;font-stretch:normal;font-size:40px;font-family:'Roboto Condensed';-inkscape-font-specification:'Roboto Condensed, Bold';font-variant-ligatures:normal;font-variant-caps:normal;font-variant-numeric:normal;font-feature-settings:normal;text-align:start;writing-mode:lr-tb;text-anchor:start;fill:#003748;fill-opacity:1"
         id="path7379"
         inkscape:connector-curvature="0"
         sodipodi:nodetypes="cccccscsccsccccccc" />
      <path
         d="m 543.2168,468.58984 c -0.15625,-0.32552 -0.3125,-0.87239 -0.46875,-1.64062 -0.98959,1.35417 -2.33073,2.03125 -4.02344,2.03125 -1.77083,0 -3.24219,-0.58594 -4.41406,-1.75781 -1.15885,-1.17188 -1.73828,-2.68881 -1.73828,-4.55079 0,-2.21354 0.70312,-3.92578 2.10937,-5.13671 1.41927,-1.21094 3.45703,-1.82943 6.11328,-1.85547 h 1.67969 v -1.69922 c 0,-0.95052 -0.16276,-1.62109 -0.48828,-2.01172 -0.32552,-0.39063 -0.80078,-0.58594 -1.42578,-0.58594 -1.38021,0 -2.07032,0.80729 -2.07032,2.42188 h -5.52734 c 0,-1.95313 0.72917,-3.5612 2.1875,-4.82422 1.47135,-1.27604 3.32682,-1.91406 5.56641,-1.91406 2.31771,0 4.10807,0.60547 5.37109,1.8164 1.27604,1.19792 1.91406,2.91667 1.91406,5.15625 v 9.94141 c 0.0261,1.82291 0.28648,3.24869 0.78125,4.27734 v 0.33203 z m -3.26172,-3.94531 c 0.61198,0 1.13281,-0.1237 1.5625,-0.37109 0.42969,-0.2474 0.7487,-0.54037 0.95703,-0.87891 V 459 h -1.32813 c -0.9375,0 -1.67969,0.29948 -2.22656,0.89844 -0.53385,0.59895 -0.80078,1.39973 -0.80078,2.40234 0,1.5625 0.61198,2.34375 1.83594,2.34375 z"
         style="font-style:normal;font-variant:normal;font-weight:bold;font-stretch:normal;font-size:40px;font-family:'Roboto Condensed';-inkscape-font-specification:'Roboto Condensed, Bold';font-variant-ligatures:normal;font-variant-caps:normal;font-variant-numeric:normal;font-feature-settings:normal;text-align:start;writing-mode:lr-tb;text-anchor:start;fill:#003748;fill-opacity:1"
         id="path7381"
         inkscape:connector-curvature="0"
         sodipodi:nodetypes="ccscscccssscccscsccccscccscss" />
      <path
         d="m 559.64258,464.39062 c 1.60156,0 2.41536,-1.04167 2.4414,-3.125 h 5.19532 c -0.0261,2.30469 -0.7357,4.16667 -2.12891,5.58594 -1.39323,1.41927 -3.1901,2.12891 -5.39062,2.12891 -2.72136,0 -4.79818,-0.84635 -6.23047,-2.53906 -1.43229,-1.69271 -2.16146,-4.1862 -2.1875,-7.48047 v -1.67969 c 0,-3.32031 0.70312,-5.85287 2.10937,-7.59766 1.41927,-1.74479 3.50912,-2.61718 6.26953,-2.61718 2.33073,0 4.16667,0.72265 5.50782,2.16796 1.34114,1.43229 2.02473,3.47006 2.05078,6.11329 h -5.19532 c -0.013,-1.1849 -0.20831,-2.09636 -0.58593,-2.73438 -0.37761,-0.63802 -1.00261,-0.95703 -1.875,-0.95703 -0.96355,0 -1.65365,0.34505 -2.07032,1.03516 -0.41667,0.67708 -0.63802,1.99869 -0.66406,3.96484 v 2.14844 c 0,1.71875 0.0846,2.92317 0.25391,3.61328 0.16927,0.67708 0.44921,1.17838 0.83984,1.5039 0.39063,0.3125 0.94401,0.46875 1.66016,0.46875 z m 1.99219,4.08204 -0.17579,1.13281 c 0.75521,0.16927 1.33464,0.54036 1.73829,1.11328 0.41667,0.58594 0.625,1.34115 0.625,2.26562 0,1.43229 -0.51432,2.56511 -1.54297,3.39844 -1.02865,0.83333 -2.5,1.25 -4.41407,1.25 l -0.11718,-3.26172 c 0.95052,0 1.42578,-0.53385 1.42578,-1.60156 0,-0.52083 -0.16927,-0.88542 -0.50781,-1.09375 -0.32553,-0.20833 -0.88542,-0.34505 -1.67969,-0.41016 l 0.52734,-2.79296 z"
         style="font-style:normal;font-variant:normal;font-weight:bold;font-stretch:normal;font-size:40px;font-family:'Roboto Condensed';-inkscape-font-specification:'Roboto Condensed, Bold';font-variant-ligatures:normal;font-variant-caps:normal;font-variant-numeric:normal;font-feature-settings:normal;text-align:start;writing-mode:lr-tb;text-anchor:start;fill:#003748;fill-opacity:1"
         id="path7383"
         inkscape:connector-curvature="0"
         sodipodi:nodetypes="scccsscscsccccsccsccscccssccscccc" />
      <path
         d="m 580.48242,468.58984 c -0.15625,-0.32552 -0.3125,-0.87239 -0.46875,-1.64062 -0.98958,1.35417 -2.33073,2.03125 -4.02344,2.03125 -1.77083,0 -3.24219,-0.58594 -4.41406,-1.75781 -1.15885,-1.17188 -1.73828,-2.68881 -1.73828,-4.55079 0,-2.21354 0.70313,-3.92578 2.10938,-5.13671 1.41927,-1.21094 3.45703,-1.82943 6.11328,-1.85547 h 1.67968 v -1.69922 c 0,-0.95052 -0.16276,-1.62109 -0.48828,-2.01172 -0.32552,-0.39063 -0.80078,-0.58594 -1.42578,-0.58594 -1.38021,0 -2.07031,0.80729 -2.07031,2.42188 h -5.52734 c 0,-1.95313 0.72917,-3.5612 2.1875,-4.82422 1.47135,-1.27604 3.32682,-1.91406 5.5664,-1.91406 2.31771,0 4.10807,0.60547 5.3711,1.8164 1.27604,1.19792 1.91406,2.91667 1.91406,5.15625 v 9.94141 c 0.0261,1.82291 0.28648,3.24869 0.78125,4.27734 v 0.33203 z m -3.26172,-3.94531 c 0.61198,0 1.13281,-0.1237 1.5625,-0.37109 0.42969,-0.2474 0.7487,-0.54037 0.95703,-0.87891 V 459 h -1.32812 c -0.9375,0 -1.67969,0.29948 -2.22656,0.89844 -0.53385,0.59895 -0.80078,1.39973 -0.80078,2.40234 0,1.5625 0.61198,2.34375 1.83593,2.34375 z m 6.875,-25.78125 c 0,1.44531 -0.37109,2.67578 -1.11328,3.69141 -0.72917,1.0026 -1.65365,1.5039 -2.77344,1.5039 -0.41667,0 -0.78776,-0.0586 -1.11328,-0.17578 -0.3125,-0.11719 -0.76172,-0.35807 -1.34765,-0.72265 -0.57292,-0.36459 -0.98308,-0.58594 -1.23047,-0.66407 -0.23437,-0.0781 -0.49479,-0.11718 -0.78125,-0.11718 -0.35157,0 -0.64454,0.16276 -0.87891,0.48828 -0.23437,0.3125 -0.35156,0.76823 -0.35156,1.36718 l -3.125,-0.17578 c 0,-1.44531 0.37109,-2.67578 1.11328,-3.6914 0.74219,-1.02865 1.65365,-1.54297 2.73438,-1.54297 0.28645,0 0.55989,0.0456 0.82031,0.13672 0.27343,0.0781 0.73567,0.30598 1.38672,0.68359 0.66406,0.36459 1.13932,0.59896 1.42578,0.70313 0.28646,0.0911 0.57292,0.13671 0.85937,0.13671 0.33855,0 0.63152,-0.15625 0.87891,-0.46875 0.26041,-0.32552 0.39062,-0.78776 0.39062,-1.38671 z"
         style="font-style:normal;font-variant:normal;font-weight:bold;font-stretch:normal;font-size:40px;font-family:'Roboto Condensed';-inkscape-font-specification:'Roboto Condensed, Bold';font-variant-ligatures:normal;font-variant-caps:normal;font-variant-numeric:normal;font-feature-settings:normal;text-align:start;writing-mode:lr-tb;text-anchor:start;fill:#003748;fill-opacity:1"
         id="path7385"
         inkscape:connector-curvature="0"
         sodipodi:nodetypes="ccscscccssscccscsccccscccscssccscccsccccscccsccc" />
      <path
         d="m 588.62695,457.33984 c 0,-3.20312 0.75521,-5.71614 2.26563,-7.53906 1.51041,-1.82291 3.60026,-2.73437 6.26953,-2.73437 2.69531,0 4.79818,0.91146 6.30859,2.73437 1.51042,1.82292 2.26563,4.34896 2.26563,7.57813 v 1.34765 c 0,3.21615 -0.7487,5.72917 -2.2461,7.53906 -1.49739,1.8099 -3.59375,2.71485 -6.28906,2.71485 -2.70833,0 -4.81771,-0.90495 -6.32812,-2.71485 -1.4974,-1.82291 -2.2461,-4.34895 -2.2461,-7.57812 z m 5.54688,1.38672 c 0,3.77604 1.00911,5.66406 3.02734,5.66406 1.86198,0 2.86458,-1.57552 3.00781,-4.72656 l 0.0195,-2.32422 c 0,-1.92708 -0.26693,-3.35286 -0.80079,-4.27734 -0.53385,-0.9375 -1.28906,-1.40625 -2.26562,-1.40625 -0.9375,0 -1.67318,0.46875 -2.20703,1.40625 -0.52083,0.92448 -0.78125,2.35026 -0.78125,4.27734 z"
         style="font-style:normal;font-variant:normal;font-weight:bold;font-stretch:normal;font-size:40px;font-family:'Roboto Condensed';-inkscape-font-specification:'Roboto Condensed, Bold';font-variant-ligatures:normal;font-variant-caps:normal;font-variant-numeric:normal;font-feature-settings:normal;text-align:start;writing-mode:lr-tb;text-anchor:start;fill:#003748;fill-opacity:1"
         id="path7387"
         inkscape:connector-curvature="0"
         sodipodi:nodetypes="sssssscscsscscccsccc" />
      <path
         d="m 619.66992,468.58984 v -28.4375 h 8.78906 c 2.96875,0 5.22136,0.66406 6.75782,1.99219 1.54948,1.31511 2.32422,3.2487 2.32422,5.80078 0,1.44531 -0.31901,2.6888 -0.95704,3.73047 -0.63802,1.04167 -1.51041,1.80339 -2.61718,2.28516 1.27604,0.36458 2.25911,1.10026 2.94922,2.20703 0.6901,1.09375 1.03515,2.44791 1.03515,4.0625 0,2.76041 -0.76172,4.84375 -2.28515,6.25 -1.51042,1.40625 -3.70443,2.10937 -6.58204,2.10937 z m 5.74219,-12.36328 v 7.59766 h 3.67187 c 1.02865,0 1.8099,-0.31901 2.34375,-0.95703 0.53386,-0.63802 0.80079,-1.54297 0.80079,-2.71485 0,-2.55208 -0.92448,-3.86067 -2.77344,-3.92578 z m 0,-4.17969 h 2.98828 c 2.25261,0 3.37891,-1.16536 3.37891,-3.49609 0,-1.28906 -0.26042,-2.21354 -0.78125,-2.77344 -0.52083,-0.55989 -1.36719,-0.83984 -2.53907,-0.83984 h -3.04687 z"
         style="font-style:normal;font-variant:normal;font-weight:bold;font-stretch:normal;font-size:40px;font-family:'Roboto Condensed';-inkscape-font-specification:'Roboto Condensed, Bold';font-variant-ligatures:normal;font-variant-caps:normal;font-variant-numeric:normal;font-feature-settings:normal;text-align:start;writing-mode:lr-tb;text-anchor:start;fill:#003748;fill-opacity:1"
         id="path7393"
         inkscape:connector-curvature="0"
         sodipodi:nodetypes="ccscscccscscccscscccsscscc" />
      <path
         d="m 652.24805,452.78906 -1.83594,-0.15625 c -1.51042,0 -2.53256,0.66406 -3.06641,1.99219 v 13.96484 h -5.54687 v -21.13281 h 5.21484 l 0.15625,2.28516 c 0.8724,-1.78385 2.07683,-2.67578 3.61328,-2.67578 0.625,0 1.13281,0.0846 1.52344,0.2539 z"
         style="font-style:normal;font-variant:normal;font-weight:bold;font-stretch:normal;font-size:40px;font-family:'Roboto Condensed';-inkscape-font-specification:'Roboto Condensed, Bold';font-variant-ligatures:normal;font-variant-caps:normal;font-variant-numeric:normal;font-feature-settings:normal;text-align:start;writing-mode:lr-tb;text-anchor:start;fill:#003748;fill-opacity:1"
         id="path7395"
         inkscape:connector-curvature="0"
         sodipodi:nodetypes="ccccccccscc" />
      <path
         d="m 664.5918,468.58984 c -0.15625,-0.32552 -0.3125,-0.87239 -0.46875,-1.64062 -0.98959,1.35417 -2.33073,2.03125 -4.02344,2.03125 -1.77083,0 -3.24219,-0.58594 -4.41406,-1.75781 -1.15885,-1.17188 -1.73828,-2.68881 -1.73828,-4.55079 0,-2.21354 0.70312,-3.92578 2.10937,-5.13671 1.41927,-1.21094 3.45703,-1.82943 6.11328,-1.85547 h 1.67969 v -1.69922 c 0,-0.95052 -0.16276,-1.62109 -0.48828,-2.01172 -0.32552,-0.39063 -0.80078,-0.58594 -1.42578,-0.58594 -1.38021,0 -2.07032,0.80729 -2.07032,2.42188 h -5.52734 c 0,-1.95313 0.72917,-3.5612 2.1875,-4.82422 1.47135,-1.27604 3.32682,-1.91406 5.56641,-1.91406 2.31771,0 4.10807,0.60547 5.37109,1.8164 1.27604,1.19792 1.91406,2.91667 1.91406,5.15625 v 9.94141 c 0.0261,1.82291 0.28648,3.24869 0.78125,4.27734 v 0.33203 z m -3.26172,-3.94531 c 0.61198,0 1.13281,-0.1237 1.5625,-0.37109 0.42969,-0.2474 0.7487,-0.54037 0.95703,-0.87891 V 459 h -1.32813 c -0.9375,0 -1.67969,0.29948 -2.22656,0.89844 -0.53385,0.59895 -0.80078,1.39973 -0.80078,2.40234 0,1.5625 0.61198,2.34375 1.83594,2.34375 z"
         style="font-style:normal;font-variant:normal;font-weight:bold;font-stretch:normal;font-size:40px;font-family:'Roboto Condensed';-inkscape-font-specification:'Roboto Condensed, Bold';font-variant-ligatures:normal;font-variant-caps:normal;font-variant-numeric:normal;font-feature-settings:normal;text-align:start;writing-mode:lr-tb;text-anchor:start;fill:#003748;fill-opacity:1"
         id="path7397"
         inkscape:connector-curvature="0"
         sodipodi:nodetypes="ccscscccssscccscsccccscccscss" />
      <path
         d="m 682.73633,462.92578 c 0,-0.46875 -0.22787,-0.89843 -0.6836,-1.28906 -0.44271,-0.40365 -1.4388,-0.94401 -2.98828,-1.6211 -2.27865,-0.92447 -3.84766,-1.8815 -4.70703,-2.87109 -0.84635,-0.98958 -1.26953,-2.22005 -1.26953,-3.69141 0,-1.84895 0.66406,-3.37239 1.99219,-4.57031 1.34115,-1.21093 3.11198,-1.8164 5.3125,-1.8164 2.31771,0 4.17317,0.59896 5.5664,1.79687 1.39323,1.19792 2.08985,2.80599 2.08985,4.82422 h -5.52735 c 0,-1.71875 -0.71614,-2.57813 -2.14843,-2.57813 -0.58594,0 -1.06771,0.18229 -1.44532,0.54688 -0.3776,0.36458 -0.5664,0.87239 -0.5664,1.52344 0,0.46875 0.20833,0.88541 0.625,1.25 0.41667,0.35156 1.39974,0.85937 2.94922,1.52343 2.2526,0.83333 3.84114,1.76432 4.76562,2.79297 0.9375,1.01563 1.40625,2.33724 1.40625,3.96485 0,1.88802 -0.70963,3.40495 -2.1289,4.55078 -1.41927,1.14583 -3.28125,1.71875 -5.58594,1.71875 -1.54948,0 -2.91667,-0.29948 -4.10156,-0.89844 -1.1849,-0.61198 -2.11589,-1.45833 -2.79297,-2.53906 -0.66407,-1.08073 -0.9961,-2.2461 -0.9961,-3.4961 h 5.25391 c 0.0261,0.96355 0.24742,1.6862 0.66406,2.16797 0.42969,0.48177 1.1263,0.72266 2.08985,0.72266 1.48437,0 2.22656,-0.67057 2.22656,-2.01172 z"
         style="font-style:normal;font-variant:normal;font-weight:bold;font-stretch:normal;font-size:40px;font-family:'Roboto Condensed';-inkscape-font-specification:'Roboto Condensed, Bold';font-variant-ligatures:normal;font-variant-caps:normal;font-variant-numeric:normal;font-feature-settings:normal;text-align:start;writing-mode:lr-tb;text-anchor:start;fill:#003748;fill-opacity:1"
         id="path7399"
         inkscape:connector-curvature="0"
         sodipodi:nodetypes="scccscssccssscccscscccccss" />
      <path
         d="m 697.38477,468.58984 h -5.54688 v -21.13281 h 5.54688 z m -5.80079,-26.60156 c 0,-0.85937 0.27344,-1.5625 0.82032,-2.10937 0.54687,-0.54688 1.27604,-0.82032 2.1875,-0.82032 0.91145,0 1.64062,0.27344 2.1875,0.82032 0.54687,0.54687 0.82031,1.25 0.82031,2.10937 0,0.84635 -0.27344,1.54948 -0.82031,2.10938 -0.53385,0.55989 -1.26302,0.83984 -2.1875,0.83984 -0.92448,0 -1.66016,-0.27995 -2.20703,-0.83984 -0.53386,-0.5599 -0.80079,-1.26303 -0.80079,-2.10938 z"
         style="font-style:normal;font-variant:normal;font-weight:bold;font-stretch:normal;font-size:40px;font-family:'Roboto Condensed';-inkscape-font-specification:'Roboto Condensed, Bold';font-variant-ligatures:normal;font-variant-caps:normal;font-variant-numeric:normal;font-feature-settings:normal;text-align:start;writing-mode:lr-tb;text-anchor:start;fill:#003748;fill-opacity:1"
         id="path7401"
         inkscape:connector-curvature="0"
         sodipodi:nodetypes="cccccscssscscs" />
      <path
         d="m 707.46289,468.58984 h -5.54687 v -30 h 5.54687 z"
         style="font-style:normal;font-variant:normal;font-weight:bold;font-stretch:normal;font-size:40px;font-family:'Roboto Condensed';-inkscape-font-specification:'Roboto Condensed, Bold';font-variant-ligatures:normal;font-variant-caps:normal;font-variant-numeric:normal;font-feature-settings:normal;text-align:start;writing-mode:lr-tb;text-anchor:start;fill:#003748;fill-opacity:1"
         id="path7403"
         inkscape:connector-curvature="0"
         sodipodi:nodetypes="ccccc" />
    </g>
    <path
       style="fill:#0096b3;fill-opacity:1;stroke:none;stroke-width:0.26458332px;stroke-linecap:butt;stroke-linejoin:miter;stroke-opacity:1"
       d="m 124.3609,238.34612 v 5.62239 l 8.032,3.68527 5.66964,-2.36235 z"
       id="path859-1"
       inkscape:connector-curvature="0"
       sodipodi:nodetypes="ccccc" />
    <path
       style="fill:#006281;fill-opacity:1;stroke:none;stroke-width:0.26458332px;stroke-linecap:butt;stroke-linejoin:miter;stroke-opacity:1"
       d="m 139.38866,246.10577 -15.10073,6.69795 v 5.42703 l 15.10073,-7.44776 z"
       id="path861-7"
       inkscape:connector-curvature="0"
       sodipodi:nodetypes="ccccc" />
    <path
       style="fill:#006281;fill-opacity:1;fill-rule:nonzero;stroke:none;stroke-width:0.26458332px;stroke-linecap:butt;stroke-linejoin:miter;stroke-opacity:1"
       d="m 113.13881,218.62936 c -0.0495,-0.002 -0.10064,-9.4e-4 -0.154,0.002 -0.38812,0.0213 -0.88001,0.16353 -1.48931,0.37207 l -12.981631,4.23334 15.653811,8.07599 0.0212,-10.48618 c 0.002,-1.5972 -0.30784,-2.16991 -1.05007,-2.19677 z m -43.016996,2.59364 -20.633365,4.51342 c -1.033301,0.28822 -1.398648,0.26715 -1.429887,1.30431 l 0.0093,4.95422 z m 43.983856,45.08613 c -6.07305,3.76673 -11.88294,7.35649 -15.624871,9.62991 l 14.326241,-5.57692 c 1.06244,-0.40348 1.31092,-1.06386 1.29501,-1.96732 z m -65.970628,2.61225 -0.120404,9.76943 c 0.05973,0.98678 0.34086,1.27282 1.934247,0.99839 l 13.698905,-2.88406 z"
       id="path5886"
       inkscape:connector-curvature="0"
       sodipodi:nodetypes="ccccccccccccccccccccccc" />
    <path
       style="display:inline;fill:#007fa8;fill-opacity:1;fill-rule:nonzero;stroke:none;stroke-width:0.26458332px;stroke-linecap:butt;stroke-linejoin:miter;stroke-opacity:1"
       d="m 75.945307,219.90703 -3.133733,1.62241 -24.740608,12.07007 5.29e-4,0.27853 5.29e-4,0.30696 0.0011,0.40153 0.06201,32.6285 17.785996,8.92142 8.453401,4.25379 0.815839,-0.5002 -8.025004,-4.01919 3.719802,-0.83873 19.703045,3.02214 -2.526283,1.71715 0.816307,0.54059 2.961701,-1.97163 c 7.385538,-4.6386 14.839862,-9.16805 22.268402,-13.73759 l 0.0584,-31.46939 -21.549093,-11.1063 c -0.131194,0.0442 -0.233357,0.37765 -0.393258,0.4315 -0.145037,0.0488 3.609205,1.85356 3.500046,1.89032 -1.325034,0.44616 -4.451409,1.46399 -4.451409,1.46399 l -17.443378,-4.0721 2.489843,-1.32786 z m -3.878908,3.76699 17.906402,4.25245 v 48.09732 l -17.906402,-3.18947 z m 31.205821,17.74361 c 0.93416,0.0293 1.58307,0.62223 1.73168,2.20194 0.0224,1.44064 -0.0183,2.85818 -1.4366,3.77496 1.12786,0.25021 1.59166,0.77971 1.70377,3.00705 0.039,2.14607 -0.89585,3.59469 -2.67271,4.47673 l -3.641634,1.36943 v -13.49685 l 2.371944,-0.86868 c 0.71983,-0.29692 1.38306,-0.48215 1.94355,-0.46458 z m -38.692701,1.0325 0.10025,13.99811 -1.403529,0.30076 0.10025,-10.9244 -2.772957,11.42566 -1.078487,0.28887 -2.830317,-10.17767 v 10.79056 l -1.369425,0.30075 v -13.96452 l 1.837097,-0.36794 c 0,0.16705 2.873209,10.79108 2.873209,10.79108 l 2.873208,-12.06025 z m 38.094811,0.57981 c -0.20053,-0.008 -0.41885,0.0166 -0.64389,0.0548 l -1.70377,0.66817 v 4.34341 l 2.33835,-0.90227 c 0.67092,-0.6962 1.01872,-1.51001 1.0356,-2.60553 0.0166,-1.20293 -0.42472,-1.53313 -1.02629,-1.55856 z m -22.12576,0.22221 c -1.882957,0.22853 -2.697332,1.5283 -2.800347,3.00653 l 0.07648,6.87865 c 0.340281,3.34605 1.882265,4.10598 3.35897,4.31344 2.971605,-0.0939 3.06142,-2.34193 3.17345,-3.97599 l -1.269174,-0.16692 c -0.10482,1.20502 0.223146,2.47572 -1.937867,2.60605 -2.281878,-0.63798 -2.016199,-2.94378 -2.104779,-4.91133 v -3.57446 c 0.08893,-1.22905 0.07567,-2.75247 2.104779,-2.63963 1.404006,0.0434 1.880896,1.3848 1.870689,3.40806 l 1.369941,0.26717 -0.09198,-1.5565 c -0.260619,-1.94913 -1.241012,-3.13396 -2.881479,-3.65507 z m 22.2074,5.39192 c -0.23061,0.007 -0.48633,0.0636 -0.75912,0.15348 l -1.73685,0.56844 0.0667,4.67672 2.17145,-0.56793 c 0.748,-0.49369 1.58866,-1.46266 1.4366,-3.14038 -0.0211,-1.29164 -0.48689,-1.71231 -1.17874,-1.69033 z"
       id="path5886-8"
       inkscape:connector-curvature="0"
       sodipodi:nodetypes="cccccccccccccccccccccccccccccccccccccccccccccccccccccccccccccccccccccccccccccccccccc" />
  </g>
</svg>
