<?xml version="1.0" encoding="UTF-8" standalone="no"?>
<!-- Created with Inkscape (http://www.inkscape.org/) -->

<svg
   xmlns:dc="http://purl.org/dc/elements/1.1/"
   xmlns:cc="http://creativecommons.org/ns#"
   xmlns:rdf="http://www.w3.org/1999/02/22-rdf-syntax-ns#"
   xmlns:svg="http://www.w3.org/2000/svg"
   xmlns="http://www.w3.org/2000/svg"
   xmlns:xlink="http://www.w3.org/1999/xlink"
   xmlns:sodipodi="http://sodipodi.sourceforge.net/DTD/sodipodi-0.dtd"
   xmlns:inkscape="http://www.inkscape.org/namespaces/inkscape"
   width="1366mm"
   height="768mm"
   viewBox="0 0 1366 768"
   version="1.1"
   id="svg821"
   sodipodi:docname="splash.svg"
   inkscape:version="0.92.3 (2405546, 2018-03-11)">
  <defs
     id="defs815">
    <linearGradient
       inkscape:collect="always"
       id="linearGradient2143">
      <stop
         style="stop-color:#213fa0;stop-opacity:1"
         offset="0"
         id="stop2139" />
      <stop
         style="stop-color:#19213c;stop-opacity:1"
         offset="1"
         id="stop2141" />
    </linearGradient>
    <linearGradient
       inkscape:collect="always"
       xlink:href="#linearGradient2143"
       id="linearGradient2145"
       x1="1182.4004"
       y1="-466.32175"
       x2="1186.6768"
       y2="273.48032"
       gradientUnits="userSpaceOnUse" />
  </defs>
  <sodipodi:namedview
     id="base"
     pagecolor="#ffffff"
     bordercolor="#666666"
     borderopacity="1.0"
     inkscape:pageopacity="0.0"
     inkscape:pageshadow="2"
     inkscape:zoom="0.12374369"
     inkscape:cx="2711.1037"
     inkscape:cy="1230.6166"
     inkscape:document-units="mm"
     inkscape:current-layer="layer1"
     showgrid="false"
     scale-x="1"
     inkscape:window-width="1366"
     inkscape:window-height="705"
     inkscape:window-x="-8"
     inkscape:window-y="-8"
     inkscape:window-maximized="1" />
  <metadata
     id="metadata818">
    <rdf:RDF>
      <cc:Work
         rdf:about="">
        <dc:format>image/svg+xml</dc:format>
        <dc:type
           rdf:resource="http://purl.org/dc/dcmitype/StillImage" />
        <dc:title></dc:title>
      </cc:Work>
    </rdf:RDF>
  </metadata>
  <g
     inkscape:label="Camada 1"
     inkscape:groupmode="layer"
     id="layer1"
     transform="translate(0,471)">
    <rect
       style="opacity:1;vector-effect:none;fill:url(#linearGradient2145);fill-opacity:1;stroke:#000000;stroke-width:0.08359329;stroke-linecap:butt;stroke-linejoin:miter;stroke-miterlimit:4.4000001;stroke-dasharray:0.08359328, 0.16718657000000001;stroke-dashoffset:0;stroke-opacity:1"
       id="rect2114"
       width="1370.5581"
       height="774.01257"
       x="-2.1381562"
       y="-474.87436" />
    <flowRoot
       xml:space="preserve"
       id="flowRoot1390"
       style="font-style:normal;font-weight:normal;font-size:40px;line-height:1.25;font-family:sans-serif;letter-spacing:0px;word-spacing:0px;fill:#000000;fill-opacity:1;stroke:none"
       transform="matrix(0.26458333,0,0,0.26458333,0,-783)"><flowRegion
         id="flowRegion1392"><rect
           id="rect1394"
           width="3749.6863"
           height="2262.7417"
           x="1454.6196"
           y="364.52829" /></flowRegion><flowPara
         id="flowPara1396"></flowPara></flowRoot>    <flowRoot
       xml:space="preserve"
       id="flowRoot1398"
       style="fill:black;fill-opacity:1;stroke:none;font-family:sans-serif;font-style:normal;font-weight:normal;font-size:40px;line-height:1.25;letter-spacing:0px;word-spacing:0px"><flowRegion
         id="flowRegion1400"><rect
           id="rect1402"
           width="3458.7622"
           height="1810.1934"
           x="711.1474"
           y="349.01163" /></flowRegion><flowPara
         id="flowPara1404"></flowPara></flowRoot>    <flowRoot
       xml:space="preserve"
       id="flowRoot1414"
       style="fill:black;fill-opacity:1;stroke:none;font-family:sans-serif;font-style:normal;font-weight:normal;font-size:40px;line-height:1.25;letter-spacing:0px;word-spacing:0px"><flowRegion
         id="flowRegion1416"><rect
           id="rect1418"
           width="3297.1379"
           height="1963.7366"
           x="719.22864"
           y="276.28064" /></flowRegion><flowPara
         id="flowPara1420"></flowPara></flowRoot>    <g
       id="g5258"
       style="fill:#1a174c;fill-opacity:1"
       transform="matrix(0.70626527,0,0,0.71452571,7.9450076,-471.73681)">
      <g
         id="g4631"
         transform="matrix(0.1,0,0,-0.1,0,1080)"
         style="fill:#1a174c;fill-opacity:1;stroke:none">
        <path
           style="fill:#1a174c;fill-opacity:1"
           d="m 5445,10745 c -124.0597,-107.242 -823.8409,-307.245 -675,-134.207 -72.8934,-203.747 468.3379,-230.253 47,-260.793 -457.4336,87.09 532.7458,-1154.0674 93.625,-568.875 C 4778.9037,9464.3115 4950.2186,8655.3164 4460,8837 c -633.4573,79.7038 -1031.3138,-1295.7854 -765,-736 -325.6854,-191.9634 267.1428,-926.8423 59,-695 16.8436,-390.3421 253.3251,-223.191 321.6034,-376 269.4235,-116.0933 580.8202,411.0071 456.3966,-87 -74.7582,-419.6062 877.4125,-202.599 693,-233 257.481,188.132 1261.3531,370.9829 954,392.25 -61.2055,-484.5819 137.4447,-719.1952 139,-710.25 258.1045,-204.8693 1140.5937,-516.4838 856.625,-355.875 79.4328,-250.3272 470.4443,-687.1866 527.125,-340.5 122.6515,-303.0302 -66.9994,-252.9883 82.1416,-508.2577 C 7818.4491,4803.4268 8573.6752,5280.254 8349,4723 8709.289,4614.7717 8301.2523,3710.1996 8456.9037,3954.1567 8479.5639,3750.7143 8605.1863,2869.9744 8543,3107 c 375.6155,21.0947 785.252,-3.1175 712,-512 81.7338,-192.3309 540.0493,28.7429 345,-386 -228.5589,-368.0938 392.4339,-220.677 206,-691 C 9682.6082,1265.7053 9001.7777,776.06068 9130.625,960.625 8968.0743,654.39842 8336.168,230.04396 8904,288 9095.4052,-38.320193 9685.4003,-47.971266 9402.8103,0 9771.8735,0 10140.937,0 10510,0 c 110.912,205.64447 443.394,147.91477 210,275 197.798,91.01566 -198.527,-482.19469 74.323,-186.128376 C 10896.653,590.88528 11386.347,1528.3838 11404,1173 c 135.891,490.9617 -277.05,687.7904 50,730 -201.051,133.8969 52.036,373.1084 127,214.25 630.621,474.6165 1119.038,688.446 963.5,566.625 225.123,224.854 707.13,166.017 639.625,142 308.791,-79.4704 828.544,450.5002 598.875,366.125 -2.21,349.518 533.345,1064.5365 391.125,794.5 3.664,507.9429 367.623,943.129 214.875,1488.5 58.202,294.9226 174.039,707.5794 61,566 1138.455,1437.7744 -6423.6695,-6670.71997 287.5,214.25 164.398,385.4295 277.588,512.2623 615.5,794.75 439.863,377.88 421.101,1008.0248 160,1482 -754.694,53.1822 -1600.801,806.1696 -1268,641 -411.487,144.8728 -800.423,15.653 -1205,237 -304.151,-97.701 -255.537,-235.9392 -266,-26 -160.494,-318.3163 89.015,348.6158 -54,70 300.233,-172.0677 -1959.679,1563.794 -204,233 -157.491,-149.9634 -318.461,-12.5591 -195.75,60.125 19.925,31.3725 -444.849,68.2825 -243.25,84.875 -66.596,35.5954 -457.957,121.5093 -315,111 -28.158,4.7078 -335.727,-429.1286 -320,-226 207.726,-52.8986 -160.981,-59.2904 -178,-102 -218.183,-408.6722 -147.942,-228.6025 -96,0 -336.813,-120.001 299.589,34.6073 -61,7 369.738,-2.3393 513.712,682.896 -2.5,452.875 -370.149,115.797 -424.127,-211.6636 -386.5,-269.875 5.986,158.6052 -139.934,138.7633 -85,26 -79.489,-201.7505 -779.8912,-247.6408 -263,-69 4.711,-275.5143 413.005,457.039 83,103 -133.391,-114.4684 663.835,580.535 499.25,553.375 -92.271,-9.571 -65.384,136.496 15.75,118.625 -41.563,348.09 -597.735,280.778 -528.034,263 -439.656,0 -879.3108,0 -1318.966,0 -164.1996,-104.616 -1017.8228,-439.949 -803,-227 -229.6302,-186.826 -698.5396,175.589 -517.4137,227 -400.9134,-22.352 -819.5732,57.907 -1205.9613,-54 -163.0059,-201.378 -738.1113,-249.878 -593.625,-331 -371.423,-230.485 -321.7714,529.151 -556,330 z m 5272,-1027 c -13.758,18.5705 13.485,87.4172 0,0 z m 53,-100 c 23.395,-173.7238 171.688,88.9933 -10.5,-5.375 -40.222,83.9891 -33.318,72.5673 10.5,5.375 z m -185,-13 c -88.038,-162.9113 75.1,361.1616 -33,25 z m 90,-84 c -47.836,-25.5994 12.319,49.0609 0,0 z m -13,-93 c 7.085,-144.4124 -29.276,180.3303 0,0 z m 4337,-2657 c -50.563,1.3675 16.943,47.8951 0,0 z m -69,-136 c -24.444,-52.5279 -8.92,52.929 0,0 z m -524,-900 c -71.982,-110.0991 30.446,114.5311 0,0 z M 13143,2903 c -51.134,-155.5509 -111.381,83.7809 0,0 z M 11386,1714 c 32.746,-76.9602 -106.207,32.7393 0,0 z"
           id="path4585"
           inkscape:connector-curvature="0" />
        <path
           style="fill:#1a174c;fill-opacity:1"
           d="m 12322,6648 c 54.607,-279.9067 410.285,178.7846 -3,82 1,-27.3333 2,-54.6667 3,-82 z"
           id="path4587"
           inkscape:connector-curvature="0" />
        <path
           style="fill:#1a174c;fill-opacity:1"
           d="m 12320,6358 c 31.184,-347.8545 488.498,193.0259 0,107 0,-35.6667 0,-71.3333 0,-107 z"
           id="path4589"
           inkscape:connector-curvature="0" />
        <path
           style="fill:#1a174c;fill-opacity:1"
           d="m 10810,10786 c 62.051,-155.529 89.661,69.934 0,0 z"
           id="path4591"
           inkscape:connector-curvature="0" />
        <path
           style="fill:#1a174c;fill-opacity:1"
           d="m 10903,10330 c -130.301,-183.068 162.732,63.81 0,0 z"
           id="path4593"
           inkscape:connector-curvature="0" />
        <path
           style="fill:#1a174c;fill-opacity:1"
           d="m 10844,10329 c -150.649,-210.965 56.589,-256.379 0,0 z"
           id="path4595"
           inkscape:connector-curvature="0" />
        <path
           style="fill:#1a174c;fill-opacity:1"
           d="m 10977,10240 c -399.596,-138.79 324.137,-67.273 0,0 z"
           id="path4597"
           inkscape:connector-curvature="0" />
        <path
           style="fill:#1a174c;fill-opacity:1"
           d="m 10695,10157 c -154.033,-218.5018 254.852,21.061 0,0 z"
           id="path4599"
           inkscape:connector-curvature="0" />
        <path
           style="fill:#1a174c;fill-opacity:1"
           d="m 11048,10152 c -67.37,-132.563 251.005,58.697 0,0 z"
           id="path4601"
           inkscape:connector-curvature="0" />
        <path
           style="fill:#1a174c;fill-opacity:1"
           d="m 10562,10050 c -78.929,-179.5499 152.99,172.336 0,0 z"
           id="path4603"
           inkscape:connector-curvature="0" />
        <path
           style="fill:#1a174c;fill-opacity:1"
           d="m 10706,10055 c -42.601,-52.185 74.091,40.378 0,0 z"
           id="path4605"
           inkscape:connector-curvature="0" />
        <path
           style="fill:#1a174c;fill-opacity:1"
           d="m 10625,10037 c 90.256,-113.1396 70.888,15.416 0,0 z"
           id="path4607"
           inkscape:connector-curvature="0" />
        <path
           style="fill:#1a174c;fill-opacity:1"
           d="m 10591,9869 c -140.646,-187.1936 30.475,-63.4694 0,0 z"
           id="path4609"
           inkscape:connector-curvature="0" />
        <path
           style="fill:#1a174c;fill-opacity:1"
           d="m 11455,9800 c 1.253,-79.9457 69.82,36.5575 0,0 z"
           id="path4611"
           inkscape:connector-curvature="0" />
        <path
           style="fill:#1a174c;fill-opacity:1"
           d="m 12530,9745 c -21.606,-73.2771 74.448,45.0787 0,0 z"
           id="path4613"
           inkscape:connector-curvature="0" />
        <path
           style="fill:#1a174c;fill-opacity:1"
           d="m 10230,9700 c -80.281,-74.299 153.486,65.3588 0,0 z"
           id="path4615"
           inkscape:connector-curvature="0" />
        <path
           style="fill:#1a174c;fill-opacity:1"
           d="m 10302,9684 c -72.596,-100.2448 155.871,51.456 0,0 z"
           id="path4617"
           inkscape:connector-curvature="0" />
        <path
           style="fill:#1a174c;fill-opacity:1"
           d="m 12667,9283 c 31.06,121.5115 16.479,68.1679 0,0 z"
           id="path4619"
           inkscape:connector-curvature="0" />
        <path
           style="fill:#1a174c;fill-opacity:1"
           d="m 14500,6103 c -147.889,-205.577 87.688,61.0864 0,0 z"
           id="path4621"
           inkscape:connector-curvature="0" />
        <path
           style="fill:#1a174c;fill-opacity:1"
           d="m 12840,2790 c 65.974,-18.3163 89.351,34.9067 0,0 z"
           id="path4623"
           inkscape:connector-curvature="0" />
        <path
           style="fill:#1a174c;fill-opacity:1"
           d="m 12748,2776 c 75.806,-58.214 -6.237,-0.061 0,0 z"
           id="path4625"
           inkscape:connector-curvature="0" />
        <path
           style="fill:#1a174c;fill-opacity:1"
           d="m 12411,2539 c -45.189,-181.7128 153.514,73.1844 0,0 z"
           id="path4627"
           inkscape:connector-curvature="0" />
        <path
           style="fill:#1a174c;fill-opacity:1"
           d="m 11443,1302 c -104.492,-295.4129 91.484,-42.1656 0,0 z"
           id="path4629"
           inkscape:connector-curvature="0" />
      </g>
    </g>
    <flowRoot
       xml:space="preserve"
       id="flowRoot1422"
       style="font-style:normal;font-weight:normal;font-size:40px;line-height:1.25;font-family:sans-serif;letter-spacing:0px;word-spacing:0px;fill:#ffffff;fill-opacity:1;stroke:none"
       transform="matrix(0.37912073,0,0,0.37912073,-156.44285,-259.6874)"><flowRegion
         id="flowRegion1424"
         style="fill:#ffffff;fill-opacity:1"><rect
           id="rect1426"
           width="4339.6152"
           height="1987.9802"
           x="484.87323"
           y="227.7933"
           style="fill:#ffffff;fill-opacity:1" /></flowRegion><flowPara
         id="flowPara1428"
         style="font-style:normal;font-variant:normal;font-weight:normal;font-stretch:normal;font-size:192px;font-family:'Eras Bold ITC';-inkscape-font-specification:'Eras Bold ITC, Normal';font-variant-ligatures:normal;font-variant-caps:normal;font-variant-numeric:normal;font-feature-settings:normal;text-align:start;writing-mode:lr-tb;text-anchor:start;fill:#ffffff;fill-opacity:1">MCB</flowPara><flowPara
         style="font-style:normal;font-variant:normal;font-weight:normal;font-stretch:normal;font-size:96px;font-family:'Eras Bold ITC';-inkscape-font-specification:'Eras Bold ITC, Normal';font-variant-ligatures:normal;font-variant-caps:normal;font-variant-numeric:normal;font-feature-settings:normal;text-align:start;writing-mode:lr-tb;text-anchor:start;fill:#ffffff;fill-opacity:1"
         id="flowPara1440">Mapa dos Cursos de Computação do Brasil</flowPara></flowRoot>  </g>
</svg>
