<?xml version="1.0" encoding="UTF-8" standalone="no"?>
<svg
   xmlns:dc="http://purl.org/dc/elements/1.1/"
   xmlns:cc="http://creativecommons.org/ns#"
   xmlns:rdf="http://www.w3.org/1999/02/22-rdf-syntax-ns#"
   xmlns:svg="http://www.w3.org/2000/svg"
   xmlns="http://www.w3.org/2000/svg"
   xmlns:xlink="http://www.w3.org/1999/xlink"
   xmlns:sodipodi="http://sodipodi.sourceforge.net/DTD/sodipodi-0.dtd"
   xmlns:inkscape="http://www.inkscape.org/namespaces/inkscape"
   version="1.0"
   width="1920.000000pt"
   height="1080.000000pt"
   viewBox="0 0 1920.000000 1080.000000"
   preserveAspectRatio="xMidYMid meet"
   id="svg4633"
   sodipodi:docname="splash.svg"
   inkscape:version="0.92.3 (2405546, 2018-03-11)">
  <metadata
     id="metadata4639">
    <rdf:RDF>
      <cc:Work
         rdf:about="">
        <dc:format>image/svg+xml</dc:format>
        <dc:type
           rdf:resource="http://purl.org/dc/dcmitype/StillImage" />
        <dc:title></dc:title>
      </cc:Work>
    </rdf:RDF>
  </metadata>
  <defs
     id="defs4637">
    <linearGradient
       inkscape:collect="always"
       id="linearGradient5230">
      <stop
         style="stop-color:#1c5c5a;stop-opacity:1"
         offset="0"
         id="stop5226" />
      <stop
         style="stop-color:#48b0c4;stop-opacity:1"
         offset="1"
         id="stop5228" />
    </linearGradient>
    <linearGradient
       inkscape:collect="always"
       xlink:href="#linearGradient5230"
       id="linearGradient5232"
       x1="312.35913"
       y1="1084.6835"
       x2="301.64087"
       y2="8.1749802"
       gradientUnits="userSpaceOnUse" />
  </defs>
  <sodipodi:namedview
     pagecolor="#ffffff"
     bordercolor="#666666"
     borderopacity="1"
     objecttolerance="10"
     gridtolerance="10"
     guidetolerance="10"
     inkscape:pageopacity="0"
     inkscape:pageshadow="2"
     inkscape:window-width="1366"
     inkscape:window-height="705"
     id="namedview4635"
     showgrid="false"
     inkscape:zoom="0.296875"
     inkscape:cx="1273.6532"
     inkscape:cy="710.56076"
     inkscape:window-x="-8"
     inkscape:window-y="-8"
     inkscape:window-maximized="1"
     inkscape:current-layer="svg4633" />
  <rect
     style="opacity:1;vector-effect:none;fill:url(#linearGradient5232);fill-opacity:1;stroke:#000000;stroke-width:0.23695734;stroke-linecap:butt;stroke-linejoin:miter;stroke-miterlimit:4.4000001;stroke-dasharray:0.23695734, 0.47391467999999998;stroke-dashoffset:0;stroke-opacity:1"
     id="rect5208"
     width="1929.2852"
     height="1093.2615"
     x="3.5727501"
     y="-6.1160159" />
  <g
     id="g5258"
     style="fill:#def0e3;fill-opacity:1"
     transform="matrix(1,0,0,1.0116959,0,-7.5789474)">
    <g
       id="g4631"
       transform="matrix(0.1,0,0,-0.1,0,1080)"
       style="fill:#def0e3;fill-opacity:1;stroke:none">
      <path
         style="fill:#def0e3;fill-opacity:1"
         id="path4585"
         d="m 5445,10745 c -63,-66 -87,-70 -116,-20 -24,40 -34,43 -49,14 -9,-16 -8,-25 6,-40 17,-19 14,-19 -174,-19 -108,0 -203,5 -218,10 -20,8 -41,7 -76,-1 l -48,-13 v -98 -98 l 58,-2 c 31,-1 72,-2 90,-3 41,-1 71,-36 72,-82 0,-18 1,-36 3,-40 4,-15 -43,-14 -65,1 -30,21 -66,20 -111,-4 -20,-11 -53,-20 -72,-20 h -35 v -119 -119 l 51,-46 c 28,-25 58,-46 65,-46 18,0 33,-39 27,-71 -3,-15 5,-38 22,-62 32,-49 51,-128 36,-156 -6,-11 -45,-204 -86,-428 -97,-529 -84,-477 -124,-481 -34,-3 -71,19 -71,43 0,9 -22,12 -77,10 -96,-3 -93,-2 -93,-18 0,-26 -36,-47 -81,-47 -24,0 -68,-9 -97,-20 -29,-11 -73,-20 -98,-20 -36,0 -54,-7 -92,-36 -26,-19 -60,-38 -75,-41 -17,-4 -33,-16 -40,-30 -6,-15 -38,-37 -83,-59 -81,-40 -84,-46 -93,-181 0,-11 -17,-40 -36,-63 -45,-54 -51,-79 -30,-135 23,-59 11,-90 -40,-104 -20,-5 -60,-28 -90,-50 -59,-45 -74,-83 -54,-140 13,-36 3,-51 -33,-51 -11,0 -18,-8 -18,-18 0,-10 -5,-23 -12,-30 -9,-9 -6,-18 13,-38 13,-14 34,-30 47,-35 22,-8 31,-39 12,-39 -18,0 -11,-22 14,-41 13,-10 29,-39 36,-63 7,-25 19,-51 28,-58 8,-7 25,-29 38,-50 13,-20 31,-39 41,-42 10,-3 27,-21 37,-40 10,-19 25,-37 32,-40 8,-3 14,-20 14,-38 0,-24 -10,-42 -37,-70 l -37,-38 h 69 c 39,0 86,-4 105,-9 19,-5 47,-12 62,-15 37,-8 58,-32 58,-66 0,-16 7,-30 16,-34 12,-4 15,-15 12,-36 l -5,-30 h 142 c 136,0 143,1 166,24 13,13 34,26 47,30 12,4 22,11 22,16 0,12 130,113 137,106 3,-3 0,-13 -7,-22 -10,-11 -15,-74 -18,-241 -4,-214 -4,-226 13,-219 11,4 25,0 36,-10 25,-22 67,-20 116,5 35,17 54,19 159,15 167,-6 254,-22 254,-46 0,-22 15,-23 52,-4 14,8 43,19 63,26 25,8 48,27 72,62 l 36,50 54,-4 c 50,-4 55,-3 69,22 9,14 36,37 60,49 24,13 44,28 44,32 0,5 14,9 30,9 22,0 44,12 78,43 91,84 107,91 212,98 52,3 110,12 128,20 26,11 38,11 65,1 30,-12 34,-11 52,13 12,14 25,25 31,25 17,0 35,-49 28,-75 -3,-14 -1,-38 4,-54 9,-24 6,-37 -14,-75 -29,-55 -30,-89 -4,-141 24,-47 25,-57 4,-97 -14,-26 -14,-37 -3,-75 7,-27 22,-51 36,-61 19,-12 24,-21 19,-43 -6,-32 2,-43 20,-28 15,12 17,9 32,-51 7,-30 13,-35 40,-38 20,-2 36,-11 43,-23 6,-12 26,-27 45,-35 21,-9 34,-21 34,-33 0,-24 31,-51 59,-51 12,0 43,-5 68,-12 35,-8 50,-8 64,0 39,25 90,12 140,-35 27,-25 46,-29 90,-18 22,6 27,3 33,-18 7,-28 84,-90 103,-83 7,3 15,1 18,-5 12,-19 81,-41 123,-40 37,2 43,-1 53,-26 5,-15 29,-44 51,-65 l 42,-38 118,4 119,4 50,-34 c 28,-18 68,-39 88,-45 49,-15 78,-66 56,-95 -22,-29 -18,-59 14,-123 24,-46 30,-73 32,-132 l 2,-74 -47,-3 -47,-3 55,-62 54,-62 7,-116 c 4,-64 10,-121 14,-126 8,-13 533,-34 545,-22 35,32 35,-33 0,-83 -26,-37 -26,-38 -14,-120 7,-46 16,-88 19,-95 11,-21 116,-85 144,-87 31,-2 50,-17 53,-43 6,-41 22,-91 46,-137 l 25,-48 -34,-102 c -24,-72 -32,-111 -28,-135 4,-21 2,-37 -5,-41 -6,-4 -35,-57 -65,-117 l -53,-111 39,-38 c 21,-21 39,-41 39,-46 0,-4 -20,-19 -45,-34 -50,-29 -50,-33 -15,-104 10,-19 21,-50 25,-67 3,-18 11,-31 17,-30 32,6 43,-180 13,-228 -6,-11 -15,-68 -19,-127 -6,-97 -5,-108 11,-117 10,-5 31,-7 46,-4 15,3 34,0 43,-8 20,-16 204,-34 298,-29 10,1 28,12 38,26 20,25 58,33 58,12 0,-27 63,-57 113,-55 40,2 52,-2 68,-22 10,-13 19,-34 19,-47 0,-12 10,-30 21,-38 17,-12 20,-20 14,-43 -10,-35 -8,-55 11,-116 9,-26 16,-73 15,-105 0,-31 7,-70 14,-87 8,-16 17,-47 20,-67 4,-24 14,-42 27,-49 26,-14 115,-5 137,14 9,8 31,22 49,31 30,15 34,15 65,0 17,-9 44,-28 59,-42 25,-23 26,-27 14,-41 -13,-14 -13,-21 1,-50 13,-26 14,-37 5,-52 -7,-10 -12,-30 -12,-44 0,-14 -9,-53 -20,-86 -12,-33 -20,-77 -19,-98 2,-26 -5,-48 -24,-76 -35,-52 -35,-88 0,-104 18,-8 29,-9 37,-1 5,5 24,10 41,10 17,0 36,5 42,11 9,9 20,6 43,-11 35,-25 50,-56 50,-101 0,-16 12,-48 26,-70 28,-46 29,-47 14,-144 -6,-38 -8,-87 -4,-107 7,-43 -26,-128 -50,-128 -8,0 -45,-25 -81,-55 -37,-30 -76,-55 -87,-55 -10,0 -33,-7 -50,-16 -17,-9 -41,-14 -54,-11 -18,3 -25,-2 -35,-27 -17,-42 -48,-76 -71,-76 -31,0 -76,-28 -90,-57 -7,-14 -27,-31 -43,-37 -17,-6 -41,-19 -55,-28 -23,-17 -23,-18 -5,-38 19,-21 16,-23 -27,-20 -22,1 -31,-7 -60,-57 -19,-32 -48,-67 -65,-78 -19,-13 -37,-38 -49,-69 -11,-26 -26,-51 -34,-54 -26,-9 -51,-36 -66,-70 -22,-54 -125,-171 -157,-178 -30,-7 -47,-30 -47,-63 0,-10 -19,-35 -41,-55 -54,-45 -43,-63 37,-64 53,0 56,1 66,29 20,58 106,46 162,-23 15,-18 49,-51 76,-73 26,-22 64,-59 84,-83 32,-39 35,-47 29,-88 l -6,-44 h 36 c 27,0 41,7 61,31 14,17 26,35 26,40 0,18 17,8 56,-31 l 39,-40 h 603 602 v 23 c 0,33 38,135 44,117 2,-8 7,-22 9,-30 3,-8 6,6 6,32 1,26 5,58 10,72 7,18 6,36 -6,65 -10,26 -13,50 -8,68 l 8,28 8,-28 c 10,-38 27,-57 50,-57 14,0 19,-7 19,-25 0,-16 6,-25 15,-25 8,0 15,6 15,14 0,9 15,17 40,21 25,4 40,12 40,21 0,18 14,18 29,0 8,-9 10,-28 5,-51 -5,-28 -10,-34 -24,-30 -15,5 -17,-1 -17,-32 1,-54 -10,-91 -31,-98 -30,-10 -51,-31 -58,-59 -6,-27 -6,-27 37,-24 l 43,3 66,110 c 40,67 81,153 105,220 51,144 134,290 222,392 33,39 163,143 178,143 6,0 16,9 22,19 10,15 9,22 -2,31 -17,14 -21,65 -5,55 6,-3 10,-17 10,-31 0,-40 15,-27 33,29 26,83 39,165 31,200 -20,88 -11,187 18,195 21,5 19,27 -3,27 -10,0 -15,15 -17,55 -1,30 -7,65 -13,77 -7,12 -9,36 -5,55 4,18 8,43 9,54 1,12 7,20 12,18 6,-3 16,10 23,28 11,29 10,35 -5,46 -13,9 -17,25 -15,61 2,47 1,48 -26,44 -24,-4 -22,-2 10,14 20,10 49,35 62,56 l 26,38 -26,9 c -15,6 -31,10 -38,9 -29,-4 -46,2 -46,15 0,12 6,13 30,4 39,-13 60,-5 60,25 0,19 5,23 33,23 30,0 33,-2 29,-25 -4,-22 4,-16 51,34 32,32 57,63 57,67 0,4 -11,8 -25,8 -30,0 -32,11 -6,25 10,6 47,31 82,58 34,26 69,47 76,47 29,0 149,92 156,120 2,9 43,38 90,64 58,31 87,53 89,67 4,26 21,27 33,0 13,-28 18,-27 49,14 33,43 77,56 142,43 85,-18 89,-17 86,17 -3,29 1,32 52,54 30,12 62,33 70,46 12,18 25,24 53,25 58,1 82,5 94,17 16,16 2,33 -27,33 -17,0 -24,6 -24,19 0,22 15,36 50,46 14,4 33,15 43,24 18,15 20,14 37,-7 22,-27 41,-28 64,-3 9,10 29,21 44,24 29,6 92,-19 92,-35 0,-14 132,1 150,17 9,9 21,10 30,5 8,-4 82,-6 163,-3 169,7 177,10 177,79 0,80 63,140 190,182 36,12 80,31 98,42 31,19 32,22 25,62 -17,93 -2,210 30,246 9,9 19,31 23,47 9,39 22,55 45,55 35,0 131,142 110,163 -6,6 -11,17 -11,24 0,11 5,11 20,3 17,-9 21,-4 39,55 28,88 36,101 81,130 59,37 67,72 55,245 -6,84 -4,118 10,170 20,79 66,154 104,170 34,14 75,66 64,82 -17,29 -22,125 -8,188 7,36 21,103 30,150 9,47 28,120 42,163 20,62 23,83 15,106 -6,16 -15,74 -22,128 -6,54 -15,125 -21,158 -8,47 -7,79 7,150 28,151 29,166 9,158 -16,-5 -17,-2 -10,23 11,42 9,108 -4,112 -6,2 -11,13 -11,25 0,18 3,16 16,-10 9,-18 20,-30 25,-27 12,7 11,54 -1,54 -17,0 -11,29 10,47 11,10 20,25 20,34 0,9 6,22 14,28 8,7 13,30 13,59 0,26 5,56 11,67 12,20 12,20 18,-2 3,-12 16,-23 28,-25 18,-3 21,-9 19,-50 -1,-27 2,-48 5,-48 71,0 295,329 338,495 7,28 13,42 13,33 2,-32 18,-19 39,30 19,43 19,48 5,65 -9,9 -11,17 -5,17 6,0 14,-5 17,-10 9,-15 25,-2 41,34 7,17 13,26 14,20 0,-6 20,8 44,31 24,24 69,54 100,69 38,18 64,39 80,64 13,20 36,48 51,62 15,14 41,45 58,70 17,25 68,84 113,132 98,106 136,175 200,365 44,133 46,144 31,161 -14,15 -15,21 -3,38 15,23 21,175 7,201 -12,23 -41,153 -41,184 0,12 -8,41 -19,63 -10,23 -27,75 -36,116 -22,95 -64,195 -92,222 -29,27 -156,52 -198,38 -16,-5 -70,-7 -118,-5 -76,4 -93,8 -119,30 -21,17 -41,25 -69,25 -35,0 -42,4 -60,35 -16,27 -32,38 -71,50 -35,10 -64,29 -97,62 -26,26 -61,60 -77,74 -16,14 -58,56 -94,92 -35,37 -71,67 -78,67 -16,0 -64,32 -102,66 -26,24 -81,55 -185,107 -33,16 -78,42 -101,59 -50,36 -170,56 -232,38 -20,-5 -59,-10 -87,-10 -78,0 -125,-11 -125,-28 0,-11 -3,-12 -14,-3 -7,6 -33,13 -58,15 -26,3 -61,15 -83,30 -43,29 -65,33 -65,11 0,-18 3,-18 -94,0 -52,10 -91,24 -112,40 -18,14 -39,25 -46,25 -8,0 -18,4 -24,10 -17,17 -126,50 -164,50 -34,0 -37,-2 -33,-24 5,-24 3,-25 -43,-24 -83,2 -103,-6 -145,-57 -23,-27 -39,-41 -39,-31 0,19 -11,21 -28,4 -6,-6 -14,-9 -18,-6 -3,4 7,14 23,24 50,31 73,57 73,81 0,27 -2,28 -56,7 -42,-16 -42,-17 -54,-82 -10,-61 -16,-71 -66,-121 -30,-29 -54,-48 -54,-41 0,8 8,22 17,32 10,12 18,37 18,66 2,62 25,118 64,154 36,33 34,29 21,62 -12,33 -27,33 -63,-1 -32,-30 -29,-18 10,34 17,23 22,40 17,57 -7,31 -29,50 -48,43 -13,-5 -46,21 -46,35 0,3 12,9 26,12 19,5 24,10 16,18 -5,5 -16,7 -23,2 -21,-12 -59,-11 -59,3 0,6 5,15 10,18 6,3 10,11 10,18 0,8 -3,8 -11,0 -6,-6 -26,-9 -43,-6 -36,6 -61,-15 -61,-51 0,-14 -7,-22 -22,-24 -20,-3 -23,1 -23,28 0,17 5,40 11,51 5,11 8,28 6,37 -3,15 -5,14 -12,-3 -12,-31 -26,-45 -37,-39 -5,3 -2,14 7,24 16,17 15,19 -4,29 -11,6 -26,11 -34,11 -10,0 -14,7 -10,23 4,18 3,19 -6,7 -15,-20 -14,-53 1,-44 7,5 8,3 3,-6 -6,-10 -11,-9 -22,5 -7,11 -13,23 -13,28 0,5 -6,5 -13,-2 -15,-12 -37,3 -37,25 0,22 -29,24 -41,2 -10,-19 -13,-20 -23,-6 -9,12 -17,13 -29,7 -20,-12 -22,-2 -7,36 9,24 8,26 -7,20 -10,-3 -30,-9 -45,-12 -23,-5 -26,-3 -21,16 3,13 1,21 -7,21 -6,0 -14,-9 -17,-20 -3,-11 -10,-20 -15,-20 -5,0 -6,4 -3,10 12,20 -15,50 -45,50 -22,0 -30,5 -30,18 -1,12 -5,9 -16,-10 -16,-30 -26,-36 -23,-15 5,37 -1,48 -20,37 -16,-8 -25,-5 -48,14 -16,13 -42,26 -58,27 -25,3 -31,0 -33,-18 -2,-13 1,-23 7,-23 6,0 11,-6 11,-12 -1,-7 -12,1 -26,17 -22,27 -26,28 -35,13 -12,-22 -39,-24 -39,-3 0,21 -12,19 -44,-6 -22,-17 -29,-19 -42,-8 -12,10 -22,6 -55,-27 -33,-32 -40,-44 -36,-69 7,-46 -11,-86 -37,-83 -16,2 -22,-3 -24,-25 -3,-27 -3,-27 40,-22 l 43,6 -35,-13 c -24,-9 -34,-19 -32,-31 4,-25 -13,-21 -36,8 -27,35 -48,31 -76,-12 -38,-57 -52,-73 -65,-73 -6,0 -2,9 9,20 24,24 28,62 5,54 -8,-4 -15,-10 -15,-14 0,-5 -7,-16 -16,-25 -42,-41 -88,-132 -120,-235 -7,-23 -8,-22 -15,15 -5,27 -3,50 5,70 8,17 23,51 35,78 28,63 28,80 -1,72 -13,-4 -36,-16 -53,-28 -22,-16 -42,-21 -75,-19 -119,6 -140,4 -164,-11 -32,-22 -43,-21 -48,1 -4,16 4,21 53,31 32,6 61,16 64,21 3,5 20,3 39,-7 21,-10 41,-13 53,-8 10,4 26,9 35,10 10,1 26,9 35,17 10,8 43,18 73,21 30,3 76,15 101,26 38,17 49,28 63,65 9,24 24,50 32,56 7,7 14,23 14,36 0,13 8,28 19,33 12,7 22,31 31,73 6,35 19,75 28,90 9,15 13,30 9,34 -20,20 -290,52 -309,36 -28,-22 -84,-23 -172,-2 -108,26 -158,27 -191,6 -56,-36 -78,-115 -40,-142 16,-12 16,-14 3,-14 -9,0 -20,6 -24,12 -11,17 -22,-23 -23,-83 -1,-49 8,-59 50,-59 11,0 17,-5 14,-10 -8,-13 -57,-9 -67,5 -4,6 -8,20 -8,33 0,17 -6,22 -26,22 -14,0 -23,4 -19,10 3,6 1,10 -5,10 -6,0 -9,4 -6,9 3,5 16,7 28,3 18,-4 20,-2 16,16 -4,12 -2,22 3,22 5,0 9,9 9,20 0,24 -3,24 -41,4 -17,-8 -37,-30 -45,-49 -17,-42 -18,-58 -1,-49 6,4 3,-2 -7,-14 -26,-30 -15,-37 17,-11 15,11 27,16 27,10 0,-6 -16,-19 -35,-28 -19,-9 -35,-20 -35,-25 0,-10 -67,-52 -105,-65 -16,-6 -52,-24 -79,-42 -28,-17 -57,-31 -65,-31 -9,0 -29,-7 -45,-15 -36,-19 -35,-19 -29,4 7,28 -9,33 -78,22 -61,-10 -91,-7 -53,4 10,4 46,20 78,37 48,25 62,29 77,19 42,-25 79,-6 79,41 0,15 4,28 9,28 9,0 -1,-59 -13,-79 -4,-6 0,-14 8,-17 37,-14 206,128 206,173 0,8 7,27 14,42 38,72 -29,98 -98,38 -32,-27 -39,-40 -43,-82 -6,-55 -17,-75 -41,-75 -13,0 -13,2 1,18 10,10 17,34 17,53 0,38 14,62 71,125 20,23 40,52 44,65 8,28 54,79 69,79 6,0 24,16 39,35 17,21 37,35 50,35 24,0 73,53 102,110 21,41 64,80 82,73 21,-8 60,6 67,23 5,13 0,16 -29,12 l -36,-4 26,25 c 22,22 27,24 35,11 8,-13 11,-13 27,3 16,16 16,17 -2,17 -17,0 -17,1 3,23 30,32 28,40 -10,34 l -33,-6 33,16 c 30,15 32,20 32,65 0,27 -4,58 -10,68 -12,23 -61,40 -117,40 -40,0 -46,3 -75,45 l -32,45 h -823 -822 l 5,-28 c 10,-49 -14,-58 -99,-39 -41,8 -92,13 -117,10 -77,-9 -121,-6 -140,12 -14,13 -23,14 -38,6 -10,-5 -28,-8 -39,-5 -16,4 -27,-4 -50,-38 -26,-38 -33,-43 -68,-43 -42,-1 -82,-18 -101,-43 -8,-11 -22,-13 -56,-8 -34,5 -48,3 -58,-9 -7,-8 -18,-15 -26,-15 -7,0 -14,-12 -16,-27 -2,-23 -9,-29 -33,-31 -16,-2 -34,-8 -39,-13 -16,-15 -40,-10 -58,10 -9,11 -34,23 -55,27 -27,4 -54,21 -93,59 -30,29 -63,55 -74,59 -10,3 -16,12 -13,20 3,8 -3,16 -15,19 -18,5 -20,11 -14,41 l 7,36 h -606 c -592,0 -607,0 -632,-20 -14,-11 -37,-20 -50,-20 -45,0 -63,-17 -63,-61 0,-51 -37,-89 -87,-89 -25,0 -42,-9 -69,-35 -33,-34 -44,-39 -71,-36 -25,3 -113,-49 -113,-67 0,-23 -19,-42 -43,-42 -11,0 -23,-13 -33,-35 -24,-59 -68,-62 -46,-3 25,67 -45,80 -117,23 -34,-27 -53,-35 -85,-35 -37,0 -51,8 -126,71 -75,64 -87,70 -117,66 -22,-4 -33,-2 -33,6 -5,158 -3,150 -42,206 -21,29 -38,57 -38,62 0,5 -14,9 -31,9 -24,0 -42,-12 -84,-55 z m 5272,-1027 c -2,-13 -4,-5 -4,17 -1,22 1,32 4,23 2,-10 2,-28 0,-40 z m 53,-100 c 0,-10 10,-23 23,-29 21,-9 20,-9 -5,-6 -20,3 -34,-4 -54,-24 l -27,-28 21,-35 c 12,-20 17,-36 11,-36 -5,0 -14,11 -19,24 -5,13 -13,27 -18,30 -6,3 -8,15 -5,26 4,14 -1,21 -21,26 -15,3 -25,9 -22,12 3,2 19,-1 36,-8 26,-11 33,-10 50,5 25,22 26,52 3,79 -18,21 -18,21 5,2 12,-11 22,-28 22,-38 z m -185,-13 c 31,-32 32,-40 1,-20 -22,15 -24,14 -50,-25 -14,-22 -26,-54 -27,-72 l -1,-33 -8,28 c -5,15 -5,40 0,55 10,34 43,92 52,92 4,0 19,-11 33,-25 z m 90,-84 c -3,-6 -11,-8 -17,-5 -6,4 -5,9 3,15 16,10 23,4 14,-10 z m -13,-93 c 2,-21 3,-38 1,-38 -11,0 -23,58 -17,80 8,27 11,19 16,-42 z M 9910,6835 v -175 h -165 -165 l 6,48 c 10,72 50,154 103,206 49,49 144,95 194,96 h 27 z m 391,138 c 79,-39 157,-115 201,-197 32,-60 33,-63 38,-231 7,-217 21,-248 120,-264 26,-5 36,-12 38,-29 10,-70 -140,-12 -186,72 -13,24 -18,68 -22,201 l -5,170 -34,63 c -60,110 -169,187 -282,199 l -62,6 47,-43 c 53,-49 102,-142 110,-212 l 6,-48 h -160 -160 v 159 c 0,88 -3,167 -6,176 -6,15 7,16 142,13 145,-3 152,-4 215,-35 z m 734,-133 c 3,-5 35,-112 71,-237 36,-125 67,-229 69,-231 6,-6 6,-5 56,168 79,273 85,292 102,302 9,5 45,8 79,6 l 63,-3 v -350 -350 l -49,-3 c -32,-2 -52,1 -57,10 -5,7 -9,109 -9,227 0,118 -2,212 -4,210 -2,-2 -30,-98 -60,-213 -31,-116 -62,-216 -68,-223 -7,-9 -27,-13 -57,-11 l -46,3 -47,165 c -26,91 -55,199 -65,240 l -18,75 -5,-240 -5,-240 h -55 -55 l -3,339 c -2,242 1,343 9,352 13,16 144,20 154,4 z m 933,-5 c 66,-28 103,-75 116,-148 9,-49 -5,-67 -53,-67 -48,0 -59,9 -69,55 -10,52 -37,65 -129,65 -115,0 -113,4 -113,-245 0,-252 -3,-245 122,-245 88,0 118,14 118,55 0,41 21,57 75,53 l 50,-3 -3,-44 c -8,-129 -122,-196 -301,-175 -77,8 -134,44 -161,100 -18,36 -20,61 -20,255 0,186 3,219 19,254 22,49 48,73 98,91 53,19 204,18 251,-1 z m 597,-11 c 53,-26 77,-70 82,-152 3,-51 -1,-77 -15,-107 l -18,-40 30,-43 c 29,-41 31,-50 31,-130 0,-103 -16,-139 -77,-180 -41,-27 -42,-27 -217,-27 h -176 l -3,344 c -2,269 1,347 10,353 7,5 81,7 164,5 123,-3 158,-7 189,-23 z m 2434,-53 c -15,-5 -22,6 -14,19 6,9 10,9 16,-1 5,-8 4,-15 -2,-18 z m -69,-136 c 0,-8 -4,-15 -10,-15 -5,0 -7,7 -4,15 4,8 8,15 10,15 2,0 4,-7 4,-15 z m -4660,-162 c 0,-168 -12,-258 -41,-315 -32,-62 -96,-125 -158,-155 -49,-24 -68,-28 -146,-28 -109,0 -163,22 -241,100 -82,82 -96,131 -102,358 l -4,187 h 346 346 z m 4136,-738 c -6,-24 -26,-36 -26,-15 0,6 5,10 10,10 6,0 10,10 10,22 0,12 3,19 6,15 4,-3 4,-18 0,-32 z M 13143,2903 c -2,-10 -11,-27 -18,-37 -14,-19 -15,-19 -35,-1 -26,23 -25,34 3,45 37,15 56,12 50,-7 z M 11386,1714 c 17,6 17,6 1,-12 -9,-10 -16,-21 -15,-23 2,-2 -3,2 -9,10 -7,8 -13,22 -13,30 0,13 2,14 9,2 6,-8 16,-11 27,-7 z"
         inkscape:connector-curvature="0" />
      <path
         style="fill:#def0e3;fill-opacity:1"
         id="path4587"
         d="m 12322,6648 3,-83 82,-3 c 101,-3 123,11 123,84 0,79 -7,84 -116,84 h -95 z"
         inkscape:connector-curvature="0" />
      <path
         style="fill:#def0e3;fill-opacity:1"
         id="path4589"
         d="m 12320,6358 v -108 h 94 c 128,0 141,11 140,109 0,49 -5,76 -15,85 -9,10 -46,15 -117,18 l -102,3 z"
         inkscape:connector-curvature="0" />
      <path
         style="fill:#def0e3;fill-opacity:1"
         id="path4591"
         d="m 10810,10786 c 0,-8 9,-24 19,-37 24,-30 47,-14 37,25 -5,19 -13,26 -31,26 -15,0 -25,-6 -25,-14 z"
         inkscape:connector-curvature="0" />
      <path
         style="fill:#def0e3;fill-opacity:1"
         id="path4593"
         d="m 10903,10330 c -38,-23 -47,-70 -15,-70 25,0 76,55 69,74 -8,21 -15,20 -54,-4 z"
         inkscape:connector-curvature="0" />
      <path
         style="fill:#def0e3;fill-opacity:1"
         id="path4595"
         d="m 10844,10329 c -7,-8 -15,-33 -19,-56 -4,-24 -11,-45 -16,-49 -5,-3 -6,-10 -3,-16 4,-7 2,-8 -5,-4 -7,4 -19,5 -27,2 -22,-9 10,-66 37,-66 17,0 20,5 17,31 -2,22 3,35 19,47 19,15 21,23 15,71 -6,43 -9,51 -18,40 z"
         inkscape:connector-curvature="0" />
      <path
         style="fill:#def0e3;fill-opacity:1"
         id="path4597"
         d="m 10977,10240 c -21,-4 -43,-12 -50,-19 -6,-6 -26,-11 -45,-11 -30,0 -33,-2 -30,-27 3,-25 8,-28 43,-31 22,-1 50,-8 63,-14 20,-10 26,-8 55,23 18,19 41,39 51,45 13,7 17,16 13,27 -7,18 -34,20 -100,7 z"
         inkscape:connector-curvature="0" />
      <path
         style="fill:#def0e3;fill-opacity:1"
         id="path4599"
         d="m 10695,10157 c -10,-8 -15,-19 -12,-24 4,-6 -2,-13 -13,-16 -27,-7 -25,-35 3,-48 20,-9 31,-6 70,21 26,17 47,36 47,41 0,5 -15,9 -32,10 -18,0 -27,3 -20,6 15,6 6,23 -12,23 -7,0 -20,-6 -31,-13 z"
         inkscape:connector-curvature="0" />
      <path
         style="fill:#def0e3;fill-opacity:1"
         id="path4601"
         d="m 11048,10152 c -54,-33 -26,-54 57,-44 52,5 69,27 40,48 -25,19 -64,17 -97,-4 z"
         inkscape:connector-curvature="0" />
      <path
         style="fill:#def0e3;fill-opacity:1"
         id="path4603"
         d="m 10562,10050 c -17,-27 -28,-50 -24,-50 18,0 82,63 82,81 0,34 -26,20 -58,-31 z"
         inkscape:connector-curvature="0" />
      <path
         style="fill:#def0e3;fill-opacity:1"
         id="path4605"
         d="m 10706,10055 c -19,-15 -19,-15 2,-15 13,0 22,6 22,15 0,18 0,18 -24,0 z"
         inkscape:connector-curvature="0" />
      <path
         style="fill:#def0e3;fill-opacity:1"
         id="path4607"
         d="m 10625,10037 c -8,-12 -15,-28 -15,-37 0,-19 38,-24 59,-7 12,9 13,9 7,0 -9,-16 -5,-16 28,-3 31,11 35,40 6,40 -11,0 -20,-5 -20,-11 0,-5 -4,-7 -10,-4 -5,3 -19,1 -30,-5 -16,-9 -18,-8 -14,5 4,8 12,15 20,15 18,0 18,16 -1,24 -8,3 -21,-4 -30,-17 z"
         inkscape:connector-curvature="0" />
      <path
         style="fill:#def0e3;fill-opacity:1"
         id="path4609"
         d="m 10591,9869 c -1,-9 -15,-33 -31,-54 -33,-41 -33,-53 -2,-36 22,12 47,73 39,94 -4,7 -6,6 -6,-4 z"
         inkscape:connector-curvature="0" />
      <path
         style="fill:#def0e3;fill-opacity:1"
         id="path4611"
         d="m 11455,9800 c -8,-14 3,-30 21,-30 8,0 14,9 14,20 0,21 -24,28 -35,10 z"
         inkscape:connector-curvature="0" />
      <path
         style="fill:#def0e3;fill-opacity:1"
         id="path4613"
         d="m 12530,9745 c -7,-8 -10,-19 -6,-22 9,-9 38,8 38,22 -1,16 -18,16 -32,0 z"
         inkscape:connector-curvature="0" />
      <path
         style="fill:#def0e3;fill-opacity:1"
         id="path4615"
         d="m 10230,9700 c -19,-11 -28,-19 -19,-20 25,0 79,21 79,31 0,14 -22,10 -60,-11 z"
         inkscape:connector-curvature="0" />
      <path
         style="fill:#def0e3;fill-opacity:1"
         id="path4617"
         d="m 10302,9684 c -12,-8 -22,-21 -22,-28 0,-11 9,-10 45,2 37,12 43,17 34,28 -15,18 -29,18 -57,-2 z"
         inkscape:connector-curvature="0" />
      <path
         style="fill:#def0e3;fill-opacity:1"
         id="path4619"
         d="m 12667,9283 c -2,-10 -5,-31 -6,-47 -1,-24 1,-27 14,-16 8,7 15,28 15,46 0,36 -16,47 -23,17 z"
         inkscape:connector-curvature="0" />
      <path
         style="fill:#def0e3;fill-opacity:1"
         id="path4621"
         d="m 14500,6103 c 0,-12 -7,-26 -16,-31 -9,-5 -15,-14 -13,-20 2,-6 17,0 34,14 28,22 29,24 12,41 -16,16 -17,16 -17,-4 z"
         inkscape:connector-curvature="0" />
      <path
         style="fill:#def0e3;fill-opacity:1"
         id="path4623"
         d="m 12840,2790 c 0,-6 11,-8 28,-4 39,10 40,14 4,14 -18,0 -32,-5 -32,-10 z"
         inkscape:connector-curvature="0" />
      <path
         style="fill:#def0e3;fill-opacity:1"
         id="path4625"
         d="m 12748,2776 c -27,-20 -22,-26 22,-26 43,0 52,13 21,30 -24,12 -22,12 -43,-4 z"
         inkscape:connector-curvature="0" />
      <path
         style="fill:#def0e3;fill-opacity:1"
         id="path4627"
         d="m 12411,2539 c -12,-17 -21,-32 -19,-34 1,-1 18,-6 36,-10 l 33,-7 -3,38 c -4,48 -18,52 -47,13 z"
         inkscape:connector-curvature="0" />
      <path
         style="fill:#def0e3;fill-opacity:1"
         id="path4629"
         d="m 11443,1302 c -5,-4 -14,-38 -18,-76 -5,-48 -4,-66 4,-62 6,4 11,14 11,23 0,9 6,24 14,32 31,37 23,104 -11,83 z"
         inkscape:connector-curvature="0" />
    </g>
  </g>
  <flowRoot
     xml:space="preserve"
     id="flowRoot5260"
     style="font-style:normal;font-variant:normal;font-weight:300;font-stretch:normal;font-size:96px;line-height:1.25;font-family:'Yu Gothic Light';-inkscape-font-specification:'Yu Gothic Light, Light';font-variant-ligatures:normal;font-variant-caps:normal;font-variant-numeric:normal;font-feature-settings:normal;text-align:start;letter-spacing:0px;word-spacing:0px;writing-mode:lr-tb;text-anchor:start;fill:#000000;fill-opacity:1;stroke:none"
     transform="matrix(0.75,0,0,0.75,-65.684211,55.578948)"><flowRegion
       id="flowRegion5262"
       style="font-style:normal;font-variant:normal;font-weight:300;font-stretch:normal;font-size:96px;font-family:'Yu Gothic Light';-inkscape-font-specification:'Yu Gothic Light, Light';font-variant-ligatures:normal;font-variant-caps:normal;font-variant-numeric:normal;font-feature-settings:normal;text-align:start;writing-mode:lr-tb;text-anchor:start"><rect
         id="rect5264"
         width="727.57892"
         height="303.15787"
         x="592.8421"
         y="746.10529"
         style="font-style:normal;font-variant:normal;font-weight:300;font-stretch:normal;font-size:96px;font-family:'Yu Gothic Light';-inkscape-font-specification:'Yu Gothic Light, Light';font-variant-ligatures:normal;font-variant-caps:normal;font-variant-numeric:normal;font-feature-settings:normal;text-align:start;writing-mode:lr-tb;text-anchor:start" /></flowRegion><flowPara
       id="flowPara5266"
       style="font-style:normal;font-variant:normal;font-weight:300;font-stretch:normal;font-size:96px;font-family:'Yu Gothic Light';-inkscape-font-specification:'Yu Gothic Light, Light';font-variant-ligatures:normal;font-variant-caps:normal;font-variant-numeric:normal;font-feature-settings:normal;text-align:start;writing-mode:lr-tb;text-anchor:start;fill:#ffffff;fill-opacity:1">Carregando ...</flowPara></flowRoot>  <text
     xml:space="preserve"
     style="font-style:normal;font-weight:normal;font-size:30px;line-height:1.25;font-family:sans-serif;letter-spacing:0px;word-spacing:0px;fill:#000000;fill-opacity:1;stroke:none;stroke-width:0.75"
     x="727.57898"
     y="587.36841"
     id="text5278"><tspan
       sodipodi:role="line"
       id="tspan5276"
       x="727.57898"
       y="613.91138"
       style="stroke-width:0.75"></tspan></text>
</svg>
