<?xml version="1.0" encoding="UTF-8" standalone="no"?>
<!-- Created with Inkscape (http://www.inkscape.org/) -->

<svg
   xmlns:dc="http://purl.org/dc/elements/1.1/"
   xmlns:cc="http://creativecommons.org/ns#"
   xmlns:rdf="http://www.w3.org/1999/02/22-rdf-syntax-ns#"
   xmlns:svg="http://www.w3.org/2000/svg"
   xmlns="http://www.w3.org/2000/svg"
   xmlns:xlink="http://www.w3.org/1999/xlink"
   xmlns:sodipodi="http://sodipodi.sourceforge.net/DTD/sodipodi-0.dtd"
   xmlns:inkscape="http://www.inkscape.org/namespaces/inkscape"
   width="1366mm"
   height="768mm"
   viewBox="0 0 1366 768"
   version="1.1"
   id="svg821"
   sodipodi:docname="splash.svg"
   inkscape:version="0.92.3 (2405546, 2018-03-11)">
  <defs
     id="defs815">
    <linearGradient
       inkscape:collect="always"
       id="linearGradient2143">
      <stop
         style="stop-color:#213fa0;stop-opacity:1"
         offset="0"
         id="stop2139" />
      <stop
         style="stop-color:#19213c;stop-opacity:1"
         offset="1"
         id="stop2141" />
    </linearGradient>
    <linearGradient
       inkscape:collect="always"
       xlink:href="#linearGradient2143"
       id="linearGradient2145"
       x1="1182.4004"
       y1="-466.32175"
       x2="1186.6768"
       y2="273.48032"
       gradientUnits="userSpaceOnUse" />
  </defs>
  <sodipodi:namedview
     id="base"
     pagecolor="#ffffff"
     bordercolor="#666666"
     borderopacity="1.0"
     inkscape:pageopacity="0.0"
     inkscape:pageshadow="2"
     inkscape:zoom="0.12374369"
     inkscape:cx="2711.1037"
     inkscape:cy="1230.6166"
     inkscape:document-units="mm"
     inkscape:current-layer="layer1"
     showgrid="false"
     scale-x="1"
     inkscape:window-width="1366"
     inkscape:window-height="705"
     inkscape:window-x="-8"
     inkscape:window-y="-8"
     inkscape:window-maximized="1" />
  <metadata
     id="metadata818">
    <rdf:RDF>
      <cc:Work
         rdf:about="">
        <dc:format>image/svg+xml</dc:format>
        <dc:type
           rdf:resource="http://purl.org/dc/dcmitype/StillImage" />
        <dc:title />
      </cc:Work>
    </rdf:RDF>
  </metadata>
  <g
     inkscape:label="Camada 1"
     inkscape:groupmode="layer"
     id="layer1"
     transform="translate(0,471)">
    <rect
       style="opacity:1;vector-effect:none;fill:url(#linearGradient2145);fill-opacity:1;stroke:#000000;stroke-width:0.08359329;stroke-linecap:butt;stroke-linejoin:miter;stroke-miterlimit:4.4000001;stroke-dasharray:0.08359328, 0.16718657;stroke-dashoffset:0;stroke-opacity:1"
       id="rect2114"
       width="1370.5581"
       height="774.01257"
       x="-2.1381562"
       y="-474.87436" />
    <flowRoot
       xml:space="preserve"
       id="flowRoot1390"
       style="font-style:normal;font-weight:normal;font-size:40px;line-height:1.25;font-family:sans-serif;letter-spacing:0px;word-spacing:0px;fill:#000000;fill-opacity:1;stroke:none"
       transform="matrix(0.26458333,0,0,0.26458333,0,-783)"><flowRegion
         id="flowRegion1392"><rect
           id="rect1394"
           width="3749.6863"
           height="2262.7417"
           x="1454.6196"
           y="364.52829" /></flowRegion><flowPara
         id="flowPara1396" /></flowRoot>    <flowRoot
       xml:space="preserve"
       id="flowRoot1398"
       style="font-style:normal;font-weight:normal;font-size:40px;line-height:1.25;font-family:sans-serif;letter-spacing:0px;word-spacing:0px;fill:#000000;fill-opacity:1;stroke:none"><flowRegion
         id="flowRegion1400"><rect
           id="rect1402"
           width="3458.7622"
           height="1810.1934"
           x="711.1474"
           y="349.01163" /></flowRegion><flowPara
         id="flowPara1404" /></flowRoot>    <flowRoot
       xml:space="preserve"
       id="flowRoot1414"
       style="font-style:normal;font-weight:normal;font-size:40px;line-height:1.25;font-family:sans-serif;letter-spacing:0px;word-spacing:0px;fill:#000000;fill-opacity:1;stroke:none"><flowRegion
         id="flowRegion1416"><rect
           id="rect1418"
           width="3297.1379"
           height="1963.7366"
           x="719.22864"
           y="276.28064" /></flowRegion><flowPara
         id="flowPara1420" /></flowRoot>    <g
       id="g5258"
       style="fill:#1a174c;fill-opacity:1"
       transform="matrix(0.70626527,0,0,0.71452571,7.9450076,-471.73681)">
      <g
         id="g4631"
         transform="matrix(0.1,0,0,-0.1,0,1080)"
         style="fill:#1a174c;fill-opacity:1;stroke:none">
        <path
           style="fill:#1a174c;fill-opacity:1"
           d="m 5445,10745 c -124.0597,-107.242 -823.8409,-307.245 -675,-134.207 -72.8934,-203.747 468.3379,-230.253 47,-260.793 -457.4336,87.09 532.7458,-1154.0674 93.625,-568.875 C 4778.9037,9464.3115 4950.2186,8655.3164 4460,8837 c -633.4573,79.7038 -1031.3138,-1295.7854 -765,-736 -325.6854,-191.9634 267.1428,-926.8423 59,-695 16.8436,-390.3421 253.3251,-223.191 321.6034,-376 269.4235,-116.0933 580.8202,411.0071 456.3966,-87 -74.7582,-419.6062 877.4125,-202.599 693,-233 257.481,188.132 1261.3531,370.9829 954,392.25 -61.2055,-484.5819 137.4447,-719.1952 139,-710.25 258.1045,-204.8693 1140.5937,-516.4838 856.625,-355.875 79.4328,-250.3272 470.4443,-687.1866 527.125,-340.5 122.6515,-303.0302 -66.9994,-252.9883 82.1416,-508.2577 C 7818.4491,4803.4268 8573.6752,5280.254 8349,4723 8709.289,4614.7717 8301.2523,3710.1996 8456.9037,3954.1567 8479.5639,3750.7143 8605.1863,2869.9744 8543,3107 c 375.6155,21.0947 785.252,-3.1175 712,-512 81.7338,-192.3309 540.0493,28.7429 345,-386 -228.5589,-368.0938 392.4339,-220.677 206,-691 C 9682.6082,1265.7053 9001.7777,776.06068 9130.625,960.625 8968.0743,654.39842 8336.168,230.04396 8904,288 9095.4052,-38.320193 9685.4003,-47.971266 9402.8103,0 9771.8735,0 10140.937,0 10510,0 c 110.912,205.64447 443.394,147.91477 210,275 197.798,91.01566 -198.527,-482.19469 74.323,-186.128376 C 10896.653,590.88528 11386.347,1528.3838 11404,1173 c 135.891,490.9617 -277.05,687.7904 50,730 -201.051,133.8969 52.036,373.1084 127,214.25 630.621,474.6165 1119.038,688.446 963.5,566.625 225.123,224.854 707.13,166.017 639.625,142 308.791,-79.4704 828.544,450.5002 598.875,366.125 -2.21,349.518 533.345,1064.5365 391.125,794.5 3.664,507.9429 367.623,943.129 214.875,1488.5 58.202,294.9226 174.039,707.5794 61,566 1138.455,1437.7744 -6423.6695,-6670.71997 287.5,214.25 164.398,385.4295 277.588,512.2623 615.5,794.75 439.863,377.88 421.101,1008.0248 160,1482 -754.694,53.1822 -1600.801,806.1696 -1268,641 -411.487,144.8728 -800.423,15.653 -1205,237 -304.151,-97.701 -255.537,-235.9392 -266,-26 -160.494,-318.3163 89.015,348.6158 -54,70 300.233,-172.0677 -1959.679,1563.794 -204,233 -157.491,-149.9634 -318.461,-12.5591 -195.75,60.125 19.925,31.3725 -444.849,68.2825 -243.25,84.875 -66.596,35.5954 -457.957,121.5093 -315,111 -28.158,4.7078 -335.727,-429.1286 -320,-226 207.726,-52.8986 -160.981,-59.2904 -178,-102 -218.183,-408.6722 -147.942,-228.6025 -96,0 -336.813,-120.001 299.589,34.6073 -61,7 369.738,-2.3393 513.712,682.896 -2.5,452.875 -370.149,115.797 -424.127,-211.6636 -386.5,-269.875 5.986,158.6052 -139.934,138.7633 -85,26 -79.489,-201.7505 -779.8912,-247.6408 -263,-69 4.711,-275.5143 413.005,457.039 83,103 -133.391,-114.4684 663.835,580.535 499.25,553.375 -92.271,-9.571 -65.384,136.496 15.75,118.625 -41.563,348.09 -597.735,280.778 -528.034,263 -439.656,0 -879.3108,0 -1318.966,0 -164.1996,-104.616 -1017.8228,-439.949 -803,-227 -229.6302,-186.826 -698.5396,175.589 -517.4137,227 -400.9134,-22.352 -819.5732,57.907 -1205.9613,-54 -163.0059,-201.378 -738.1113,-249.878 -593.625,-331 -371.423,-230.485 -321.7714,529.151 -556,330 z m 5272,-1027 c -13.758,18.5705 13.485,87.4172 0,0 z m 53,-100 c 23.395,-173.7238 171.688,88.9933 -10.5,-5.375 -40.222,83.9891 -33.318,72.5673 10.5,5.375 z m -185,-13 c -88.038,-162.9113 75.1,361.1616 -33,25 z m 90,-84 c -47.836,-25.5994 12.319,49.0609 0,0 z m -13,-93 c 7.085,-144.4124 -29.276,180.3303 0,0 z m 4337,-2657 c -50.563,1.3675 16.943,47.8951 0,0 z m -69,-136 c -24.444,-52.5279 -8.92,52.929 0,0 z m -524,-900 c -71.982,-110.0991 30.446,114.5311 0,0 z M 13143,2903 c -51.134,-155.5509 -111.381,83.7809 0,0 z M 11386,1714 c 32.746,-76.9602 -106.207,32.7393 0,0 z"
           id="path4585"
           inkscape:connector-curvature="0" />
        <path
           style="fill:#1a174c;fill-opacity:1"
           d="m 12322,6648 c 54.607,-279.9067 410.285,178.7846 -3,82 1,-27.3333 2,-54.6667 3,-82 z"
           id="path4587"
           inkscape:connector-curvature="0" />
        <path
           style="fill:#1a174c;fill-opacity:1"
           d="m 12320,6358 c 31.184,-347.8545 488.498,193.0259 0,107 0,-35.6667 0,-71.3333 0,-107 z"
           id="path4589"
           inkscape:connector-curvature="0" />
        <path
           style="fill:#1a174c;fill-opacity:1"
           d="m 10810,10786 c 62.051,-155.529 89.661,69.934 0,0 z"
           id="path4591"
           inkscape:connector-curvature="0" />
        <path
           style="fill:#1a174c;fill-opacity:1"
           d="m 10903,10330 c -130.301,-183.068 162.732,63.81 0,0 z"
           id="path4593"
           inkscape:connector-curvature="0" />
        <path
           style="fill:#1a174c;fill-opacity:1"
           d="m 10844,10329 c -150.649,-210.965 56.589,-256.379 0,0 z"
           id="path4595"
           inkscape:connector-curvature="0" />
        <path
           style="fill:#1a174c;fill-opacity:1"
           d="m 10977,10240 c -399.596,-138.79 324.137,-67.273 0,0 z"
           id="path4597"
           inkscape:connector-curvature="0" />
        <path
           style="fill:#1a174c;fill-opacity:1"
           d="m 10695,10157 c -154.033,-218.5018 254.852,21.061 0,0 z"
           id="path4599"
           inkscape:connector-curvature="0" />
        <path
           style="fill:#1a174c;fill-opacity:1"
           d="m 11048,10152 c -67.37,-132.563 251.005,58.697 0,0 z"
           id="path4601"
           inkscape:connector-curvature="0" />
        <path
           style="fill:#1a174c;fill-opacity:1"
           d="m 10562,10050 c -78.929,-179.5499 152.99,172.336 0,0 z"
           id="path4603"
           inkscape:connector-curvature="0" />
        <path
           style="fill:#1a174c;fill-opacity:1"
           d="m 10706,10055 c -42.601,-52.185 74.091,40.378 0,0 z"
           id="path4605"
           inkscape:connector-curvature="0" />
        <path
           style="fill:#1a174c;fill-opacity:1"
           d="m 10625,10037 c 90.256,-113.1396 70.888,15.416 0,0 z"
           id="path4607"
           inkscape:connector-curvature="0" />
        <path
           style="fill:#1a174c;fill-opacity:1"
           d="m 10591,9869 c -140.646,-187.1936 30.475,-63.4694 0,0 z"
           id="path4609"
           inkscape:connector-curvature="0" />
        <path
           style="fill:#1a174c;fill-opacity:1"
           d="m 11455,9800 c 1.253,-79.9457 69.82,36.5575 0,0 z"
           id="path4611"
           inkscape:connector-curvature="0" />
        <path
           style="fill:#1a174c;fill-opacity:1"
           d="m 12530,9745 c -21.606,-73.2771 74.448,45.0787 0,0 z"
           id="path4613"
           inkscape:connector-curvature="0" />
        <path
           style="fill:#1a174c;fill-opacity:1"
           d="m 10230,9700 c -80.281,-74.299 153.486,65.3588 0,0 z"
           id="path4615"
           inkscape:connector-curvature="0" />
        <path
           style="fill:#1a174c;fill-opacity:1"
           d="m 10302,9684 c -72.596,-100.2448 155.871,51.456 0,0 z"
           id="path4617"
           inkscape:connector-curvature="0" />
        <path
           style="fill:#1a174c;fill-opacity:1"
           d="m 12667,9283 c 31.06,121.5115 16.479,68.1679 0,0 z"
           id="path4619"
           inkscape:connector-curvature="0" />
        <path
           style="fill:#1a174c;fill-opacity:1"
           d="m 14500,6103 c -147.889,-205.577 87.688,61.0864 0,0 z"
           id="path4621"
           inkscape:connector-curvature="0" />
        <path
           style="fill:#1a174c;fill-opacity:1"
           d="m 12840,2790 c 65.974,-18.3163 89.351,34.9067 0,0 z"
           id="path4623"
           inkscape:connector-curvature="0" />
        <path
           style="fill:#1a174c;fill-opacity:1"
           d="m 12748,2776 c 75.806,-58.214 -6.237,-0.061 0,0 z"
           id="path4625"
           inkscape:connector-curvature="0" />
        <path
           style="fill:#1a174c;fill-opacity:1"
           d="m 12411,2539 c -45.189,-181.7128 153.514,73.1844 0,0 z"
           id="path4627"
           inkscape:connector-curvature="0" />
        <path
           style="fill:#1a174c;fill-opacity:1"
           d="m 11443,1302 c -104.492,-295.4129 91.484,-42.1656 0,0 z"
           id="path4629"
           inkscape:connector-curvature="0" />
      </g>
    </g>
    <g
       aria-label="MCB
Mapa dos Cursos de Computação do Brasil"
       transform="matrix(0.37912073,0,0,0.37912073,-156.44285,-259.6874)"
       style="font-style:normal;font-weight:normal;font-size:40px;line-height:1.25;font-family:sans-serif;letter-spacing:0px;word-spacing:0px;fill:#ffffff;fill-opacity:1;stroke:none"
       id="flowRoot1422">
      <path
         d="m 492.0918,394.9403 2.34375,-18.9375 5.8125,-65.71875 2.90625,-43.3125 q 17.25,0.1875 27.09375,0.1875 8.15625,0 24.9375,-0.1875 1.21875,8.0625 2.0625,12.28125 0.84375,4.125 4.125,16.3125 3.375,12.09375 5.34375,21 2.0625,8.8125 6.09375,30.28125 4.125,-14.71875 7.5,-25.3125 3.375,-10.59375 8.4375,-24.09375 5.0625,-13.5 6.375,-17.625 1.40625,-4.21875 3.75,-12.84375 14.0625,0.1875 27.5625,0.1875 9.1875,0 25.5,-0.1875 -1.78125,31.59375 -2.34375,54.28125 -1.21875,44.4375 -1.21875,61.125 0,3.46875 0.1875,12.5625 -12.375,-0.1875 -17.34375,-0.1875 -7.21875,0 -17.71875,0.1875 0.75,-8.4375 1.875,-40.125 1.125,-31.78125 1.125,-40.59375 0,-3.84375 -0.1875,-10.6875 l -12.28125,38.15625 -17.625,53.25 q -12.1875,-0.1875 -16.78125,-0.1875 -5.8125,0 -17.8125,0.1875 l -11.53125,-51.5625 -6.75,-27.46875 q -0.375,-1.59375 -0.84375,-3.9375 -0.46875,-2.34375 -1.5,-8.25 l -2.34375,25.96875 -3.09375,53.25 -0.28125,12 q -12.9375,-0.1875 -16.5,-0.1875 -4.875,0 -16.875,0.1875 z"
         style="font-style:normal;font-variant:normal;font-weight:normal;font-stretch:normal;font-size:192px;font-family:'Eras Bold ITC';-inkscape-font-specification:'Eras Bold ITC, Normal';font-variant-ligatures:normal;font-variant-caps:normal;font-variant-numeric:normal;font-feature-settings:normal;text-align:start;writing-mode:lr-tb;text-anchor:start;fill:#ffffff;fill-opacity:1"
         id="path1230"
         inkscape:connector-curvature="0" />
      <path
         d="m 782.06055,363.72155 q -1.125,5.53125 -2.71875,15.46875 -1.59375,9.84375 -2.15625,15.28125 -20.0625,2.90625 -35.8125,2.90625 -15.1875,0 -28.3125,-3.75 -13.03125,-3.84375 -24,-12.46875 -10.875,-8.71875 -15.5625,-20.4375 -4.6875,-11.71875 -4.6875,-26.25 0,-16.96875 6.28125,-30.46875 6.375,-13.59375 18.1875,-22.59375 11.90625,-9.09375 26.0625,-12.9375 14.15625,-3.9375 29.25,-3.9375 13.875,0 34.3125,3.5625 l 0.1875,7.875 q 0.1875,5.15625 0.5625,11.34375 l 0.65625,10.6875 q -10.96875,-2.625 -17.8125,-3.5625 -6.75,-0.9375 -12.5625,-0.9375 -12.65625,0 -22.78125,5.0625 -10.125,5.0625 -15.9375,14.71875 -5.8125,9.65625 -5.8125,21.375 0,10.6875 4.875,18.375 4.875,7.59375 13.125,11.8125 8.34375,4.125 20.53125,4.125 6.65625,0 14.4375,-1.03125 7.875,-1.125 19.6875,-4.21875 z"
         style="font-style:normal;font-variant:normal;font-weight:normal;font-stretch:normal;font-size:192px;font-family:'Eras Bold ITC';-inkscape-font-specification:'Eras Bold ITC, Normal';font-variant-ligatures:normal;font-variant-caps:normal;font-variant-numeric:normal;font-feature-settings:normal;text-align:start;writing-mode:lr-tb;text-anchor:start;fill:#ffffff;fill-opacity:1"
         id="path1232"
         inkscape:connector-curvature="0" />
      <path
         d="m 800.24805,394.9403 q 1.96875,-20.625 2.625,-32.4375 0.9375,-16.125 1.78125,-44.25 0.9375,-28.125 0.9375,-39.65625 0,-4.125 -0.0937,-11.625 12.46875,0.28125 19.78125,0.28125 10.21875,0 23.8125,-0.375 13.59375,-0.46875 23.34375,-0.46875 11.71875,0 16.6875,0.65625 6.5625,0.84375 11.4375,3 4.96875,2.15625 8.25,5.34375 3.65625,3.75 5.71875,9 2.34375,6 2.34375,12.84375 0,5.34375 -1.40625,10.21875 -1.3125,4.875 -3.84375,8.71875 -2.4375,3.75 -5.53125,6.28125 -3.09375,2.53125 -6.09375,3.9375 -2.90625,1.40625 -7.875,2.8125 4.96875,0.84375 7.96875,1.96875 3,1.03125 6.375,3.46875 3.46875,2.34375 6.1875,6.09375 2.71875,3.75 4.03125,8.4375 1.40625,4.59375 1.40625,9.75 0,7.125 -2.34375,13.40625 -2.34375,6.28125 -6.5625,10.78125 -3.5625,3.84375 -9.28125,6.5625 -5.71875,2.71875 -11.71875,3.75 -4.875,0.75 -17.8125,1.125 -12.84375,0.375 -27.28125,0.375 l -24.65625,-0.0937 z m 41.8125,-78.09375 h 13.3125 q 6.5625,0 9.28125,-0.28125 2.8125,-0.375 5.4375,-1.21875 2.625,-0.84375 4.5,-2.8125 1.96875,-1.96875 2.71875,-4.40625 0.84375,-2.4375 0.84375,-4.875 0,-3.46875 -1.6875,-6.1875 -1.59375,-2.71875 -5.25,-4.03125 -3.65625,-1.3125 -11.15625,-1.3125 h -16.875 z m -2.15625,52.40625 h 18 q 7.125,0 10.5,-0.84375 4.125,-1.03125 6.28125,-2.71875 2.15625,-1.6875 3.375,-4.59375 1.3125,-2.90625 1.3125,-6.46875 0,-3.09375 -1.03125,-5.4375 -1.03125,-2.34375 -3.09375,-3.9375 -2.0625,-1.59375 -5.0625,-2.25 -3,-0.75 -9.375,-0.75 H 841.0293 Z"
         style="font-style:normal;font-variant:normal;font-weight:normal;font-stretch:normal;font-size:192px;font-family:'Eras Bold ITC';-inkscape-font-specification:'Eras Bold ITC, Normal';font-variant-ligatures:normal;font-variant-caps:normal;font-variant-numeric:normal;font-feature-settings:normal;text-align:start;writing-mode:lr-tb;text-anchor:start;fill:#ffffff;fill-opacity:1"
         id="path1234"
         inkscape:connector-curvature="0" />
      <path
         d="m 488.48242,551.36664 1.17188,-9.46875 2.90625,-32.85938 1.45312,-21.65625 q 8.625,0.0937 13.54688,0.0937 4.07812,0 12.46875,-0.0937 0.60937,4.03125 1.03125,6.14063 0.42187,2.0625 2.0625,8.15625 1.6875,6.04687 2.67187,10.5 1.03125,4.40625 3.04688,15.14062 2.0625,-7.35937 3.75,-12.65625 1.6875,-5.29687 4.21875,-12.04687 2.53125,-6.75 3.1875,-8.8125 0.70312,-2.10938 1.875,-6.42188 7.03125,0.0937 13.78125,0.0937 4.59375,0 12.75,-0.0937 -0.89063,15.79688 -1.17188,27.14063 -0.60937,22.21875 -0.60937,30.5625 0,1.73437 0.0937,6.28125 -6.1875,-0.0937 -8.67188,-0.0937 -3.60937,0 -8.85937,0.0937 0.375,-4.21875 0.9375,-20.0625 0.5625,-15.89063 0.5625,-20.29688 0,-1.92187 -0.0937,-5.34375 l -6.14063,19.07813 -8.8125,26.625 q -6.09375,-0.0937 -8.39062,-0.0937 -2.90625,0 -8.90625,0.0937 l -5.76563,-25.78125 -3.375,-13.73438 q -0.1875,-0.79687 -0.42187,-1.96875 -0.23438,-1.17187 -0.75,-4.125 l -1.17188,12.98438 -1.54687,26.625 -0.14063,6 q -6.46875,-0.0937 -8.25,-0.0937 -2.4375,0 -8.4375,0.0937 z"
         style="font-style:normal;font-variant:normal;font-weight:normal;font-stretch:normal;font-size:96px;font-family:'Eras Bold ITC';-inkscape-font-specification:'Eras Bold ITC, Normal';font-variant-ligatures:normal;font-variant-caps:normal;font-variant-numeric:normal;font-feature-settings:normal;text-align:start;writing-mode:lr-tb;text-anchor:start;fill:#ffffff;fill-opacity:1"
         id="path1236"
         inkscape:connector-curvature="0" />
      <path
         d="m 581.9043,517.14789 q 0.89062,-4.64063 1.125,-6.375 0.23437,-1.78125 0.75,-5.53125 13.5,-2.95313 23.20312,-2.95313 5.53125,0 10.125,1.26563 4.59375,1.21875 7.17188,3.98437 2.57812,2.76563 2.57812,7.92188 0,2.625 -0.70312,11.8125 -0.70313,9.1875 -1.07813,24.09375 -4.59375,-0.0937 -9.14062,-0.0937 -4.40625,0 -9.375,0.0937 0.65625,-5.15625 1.45312,-21.28125 -1.78125,0.84375 -2.8125,1.21875 -0.98437,0.375 -3.51562,1.125 -2.53125,0.75 -3.98438,1.26562 -1.40625,0.51563 -2.48437,1.3125 -1.03125,0.79688 -1.5,1.64063 -0.42188,0.84375 -0.42188,1.875 0,1.59375 1.26563,2.71875 1.26562,1.125 4.03125,1.125 0.98437,0 2.10937,-0.14063 1.125,-0.1875 3.09375,-0.84375 -1.35937,3.60938 -3.23437,10.54688 -4.03125,0.65625 -7.64063,0.65625 -5.8125,0 -9.70312,-1.59375 -3.84375,-1.64063 -5.95313,-5.25 -2.0625,-3.60938 -2.0625,-7.21875 0,-2.20313 0.75,-4.3125 0.79688,-2.10938 2.4375,-4.125 1.64063,-2.01563 3.84375,-3.42188 2.20313,-1.45312 6,-2.71875 3.84375,-1.26562 9.70313,-2.39062 2.4375,-0.46875 4.45312,-0.98438 2.0625,-0.5625 2.90625,-0.9375 0.89063,-0.42187 1.40625,-0.9375 0.5625,-0.5625 0.79688,-1.125 0.23437,-0.60937 0.23437,-1.26562 0,-1.78125 -1.5,-2.71875 -1.5,-0.98438 -4.40625,-0.98438 -8.0625,0 -19.92187,4.54688 z"
         style="font-style:normal;font-variant:normal;font-weight:normal;font-stretch:normal;font-size:96px;font-family:'Eras Bold ITC';-inkscape-font-specification:'Eras Bold ITC, Normal';font-variant-ligatures:normal;font-variant-caps:normal;font-variant-numeric:normal;font-feature-settings:normal;text-align:start;writing-mode:lr-tb;text-anchor:start;fill:#ffffff;fill-opacity:1"
         id="path1238"
         inkscape:connector-curvature="0" />
      <path
         d="m 634.2168,573.30414 q 0.89062,-9.60938 1.5,-19.17188 1.07812,-16.35937 1.45312,-27.42187 0.42188,-11.10938 0.42188,-21.98438 9.51562,-1.45312 14.90625,-1.92187 5.39062,-0.51563 10.78125,-0.51563 6.75,0 12.42187,1.40625 5.67188,1.40625 9.09375,4.96875 3.46875,3.5625 5.20313,8.48438 1.73437,4.92187 1.73437,10.3125 0,4.92187 -1.40625,9.5625 -1.40625,4.59375 -4.3125,8.29687 -2.90625,3.70313 -6.70312,5.48438 -3.75,1.78125 -8.39063,1.78125 -2.29687,0 -4.78125,-0.46875 -2.4375,-0.42188 -4.64062,-1.26563 -2.20313,-0.84375 -3.70313,-1.6875 -1.45312,-0.89062 -3.65625,-2.53125 l -0.51562,13.07813 q -0.32813,9 -0.32813,13.59375 -5.4375,-0.0937 -9.32812,-0.0937 -3.375,0 -9.75,0.0937 z m 21.60937,-56.625 q -0.375,2.10937 -0.51562,3.46875 -0.14063,1.3125 -0.28125,3.60937 -0.14063,2.25 -0.14063,3.60938 0,3.84375 1.17188,6.46875 1.21875,2.57812 3.32812,4.03125 2.15625,1.40625 4.59375,1.40625 2.57813,0 4.73438,-1.45313 2.15625,-1.5 3.42187,-4.45312 1.26563,-2.95313 1.26563,-6.65625 0,-5.01563 -2.67188,-8.0625 -2.625,-3.04688 -7.6875,-3.04688 -3.1875,0 -7.21875,1.07813 z"
         style="font-style:normal;font-variant:normal;font-weight:normal;font-stretch:normal;font-size:96px;font-family:'Eras Bold ITC';-inkscape-font-specification:'Eras Bold ITC, Normal';font-variant-ligatures:normal;font-variant-caps:normal;font-variant-numeric:normal;font-feature-settings:normal;text-align:start;writing-mode:lr-tb;text-anchor:start;fill:#ffffff;fill-opacity:1"
         id="path1240"
         inkscape:connector-curvature="0" />
      <path
         d="m 703.0293,517.14789 q 0.89062,-4.64063 1.125,-6.375 0.23437,-1.78125 0.75,-5.53125 13.5,-2.95313 23.20312,-2.95313 5.53125,0 10.125,1.26563 4.59375,1.21875 7.17188,3.98437 2.57812,2.76563 2.57812,7.92188 0,2.625 -0.70312,11.8125 -0.70313,9.1875 -1.07813,24.09375 -4.59375,-0.0937 -9.14062,-0.0937 -4.40625,0 -9.375,0.0937 0.65625,-5.15625 1.45312,-21.28125 -1.78125,0.84375 -2.8125,1.21875 -0.98437,0.375 -3.51562,1.125 -2.53125,0.75 -3.98438,1.26562 -1.40625,0.51563 -2.48437,1.3125 -1.03125,0.79688 -1.5,1.64063 -0.42188,0.84375 -0.42188,1.875 0,1.59375 1.26563,2.71875 1.26562,1.125 4.03125,1.125 0.98437,0 2.10937,-0.14063 1.125,-0.1875 3.09375,-0.84375 -1.35937,3.60938 -3.23437,10.54688 -4.03125,0.65625 -7.64063,0.65625 -5.8125,0 -9.70312,-1.59375 -3.84375,-1.64063 -5.95313,-5.25 -2.0625,-3.60938 -2.0625,-7.21875 0,-2.20313 0.75,-4.3125 0.79688,-2.10938 2.4375,-4.125 1.64063,-2.01563 3.84375,-3.42188 2.20313,-1.45312 6,-2.71875 3.84375,-1.26562 9.70313,-2.39062 2.4375,-0.46875 4.45312,-0.98438 2.0625,-0.5625 2.90625,-0.9375 0.89063,-0.42187 1.40625,-0.9375 0.5625,-0.5625 0.79688,-1.125 0.23437,-0.60937 0.23437,-1.26562 0,-1.78125 -1.5,-2.71875 -1.5,-0.98438 -4.40625,-0.98438 -8.0625,0 -19.92187,4.54688 z"
         style="font-style:normal;font-variant:normal;font-weight:normal;font-stretch:normal;font-size:96px;font-family:'Eras Bold ITC';-inkscape-font-specification:'Eras Bold ITC, Normal';font-variant-ligatures:normal;font-variant-caps:normal;font-variant-numeric:normal;font-feature-settings:normal;text-align:start;writing-mode:lr-tb;text-anchor:start;fill:#ffffff;fill-opacity:1"
         id="path1242"
         inkscape:connector-curvature="0" />
      <path
         d="m 833.5293,551.36664 q -5.01563,-0.0937 -8.34375,-0.0937 -3.75,0 -9.09375,0.0937 l 0.28125,-5.95313 q -1.82813,1.78125 -3.1875,2.90625 -1.35938,1.07813 -3.51563,2.10938 -2.10937,1.03125 -4.59375,1.59375 -2.4375,0.5625 -5.0625,0.5625 -4.5,0 -8.4375,-1.64063 -3.89062,-1.64062 -6.65625,-4.64062 -2.76562,-3.04688 -4.125,-7.17188 -1.35937,-4.17187 -1.35937,-8.625 0,-6.32812 2.48437,-12.375 2.48438,-6.04687 6.46875,-9.51562 4.03125,-3.46875 9.04688,-4.875 5.0625,-1.45313 10.92187,-1.45313 3.89063,0 9.09375,0.70313 0.375,-5.57813 0.51563,-15.60938 5.76562,0.0937 9.42187,0.0937 4.73438,0 9.5625,-0.0937 -1.35937,13.92188 -2.39062,33.98438 -1.03125,20.0625 -1.03125,30 z m -16.73438,-36.1875 q -2.48437,-0.5625 -4.6875,-0.5625 -4.54687,0 -7.73437,1.78125 -3.1875,1.73437 -4.92188,5.48437 -1.6875,3.70313 -1.6875,7.3125 0,2.71875 0.9375,4.92188 0.98438,2.15625 2.95313,3.42187 2.01562,1.26563 4.45312,1.26563 2.57813,0 4.6875,-1.45313 2.15625,-1.45312 3.46875,-4.26562 1.35938,-2.8125 1.82813,-6.65625 0.51562,-3.89063 0.70312,-11.25 z"
         style="font-style:normal;font-variant:normal;font-weight:normal;font-stretch:normal;font-size:96px;font-family:'Eras Bold ITC';-inkscape-font-specification:'Eras Bold ITC, Normal';font-variant-ligatures:normal;font-variant-caps:normal;font-variant-numeric:normal;font-feature-settings:normal;text-align:start;writing-mode:lr-tb;text-anchor:start;fill:#ffffff;fill-opacity:1"
         id="path1244"
         inkscape:connector-curvature="0" />
      <path
         d="m 872.01367,502.28851 q 5.8125,0 11.15625,1.78125 5.39063,1.78125 9.09375,5.15625 3.70313,3.32813 5.4375,7.82813 1.78125,4.45312 1.78125,9.60937 0,5.01563 -1.59375,9.5625 -1.54687,4.5 -5.29687,8.48438 -3.75,3.9375 -9.5625,5.90625 -5.76563,1.96875 -12.23438,1.96875 -5.95312,0 -11.4375,-1.73438 -5.48437,-1.73437 -9.1875,-5.0625 -3.65625,-3.32812 -5.53125,-7.96875 -1.82812,-4.64062 -1.82812,-9.75 0,-5.10937 1.78125,-9.75 1.82812,-4.64062 5.71875,-8.34375 3.9375,-3.70312 9.70312,-5.67187 5.76563,-2.01563 12,-2.01563 z m -0.32812,13.78125 q -3,0 -5.34375,1.54688 -2.34375,1.54687 -3.5625,4.54687 -1.17188,2.95313 -1.17188,6.46875 0,5.15625 2.57813,7.92188 2.57812,2.71875 6.46875,2.71875 2.95312,0 5.29687,-1.54688 2.34375,-1.59375 3.51563,-4.64062 1.21875,-3.09375 1.21875,-6.60938 0,-2.90625 -0.9375,-5.25 -0.9375,-2.34375 -3.09375,-3.75 -2.10938,-1.40625 -4.96875,-1.40625 z"
         style="font-style:normal;font-variant:normal;font-weight:normal;font-stretch:normal;font-size:96px;font-family:'Eras Bold ITC';-inkscape-font-specification:'Eras Bold ITC, Normal';font-variant-ligatures:normal;font-variant-caps:normal;font-variant-numeric:normal;font-feature-settings:normal;text-align:start;writing-mode:lr-tb;text-anchor:start;fill:#ffffff;fill-opacity:1"
         id="path1246"
         inkscape:connector-curvature="0" />
      <path
         d="m 905.99805,550.47601 q -0.1875,-2.0625 -0.375,-4.3125 -0.1875,-2.29687 -0.60938,-6.28125 l -0.375,-3.375 q 4.54688,1.78125 7.82813,2.67188 3.28125,0.84375 6.04687,0.84375 2.29688,0 3.70313,-0.42188 1.45312,-0.42187 2.10937,-1.21875 0.65625,-0.79687 0.65625,-1.64062 0,-0.75 -0.51562,-1.45313 -0.46875,-0.75 -2.20313,-2.01562 -3.84375,-2.8125 -6.79687,-5.10938 -2.90625,-2.29687 -4.40625,-4.07812 -1.45313,-1.78125 -2.25,-3.84375 -0.75,-2.0625 -0.75,-4.26563 0,-3.89062 2.20312,-7.26562 2.25,-3.375 6.5625,-4.875 4.35938,-1.54688 10.59375,-1.54688 6.51563,0 16.64063,1.6875 l 0.75,13.17188 q -5.67188,-2.25 -10.92188,-2.25 -3.70312,0 -5.39062,0.75 -1.64063,0.75 -1.64063,2.29687 0,0.51563 0.1875,0.98438 0.1875,0.46875 0.65625,0.98437 0.51563,0.51563 1.21875,1.07813 0.75,0.51562 3.5625,2.48437 2.8125,1.96875 4.40625,3.23438 2.625,2.0625 3.98438,3.84375 1.40625,1.73437 2.10937,3.75 0.75,1.96875 0.75,4.17187 0,3.32813 -1.64062,6.14063 -1.59375,2.76562 -4.875,4.64062 -3.23438,1.875 -7.03125,2.57813 -3.79688,0.75 -7.82813,0.75 -2.71875,0 -6.84375,-0.46875 -4.07812,-0.46875 -9.51562,-1.64063 z"
         style="font-style:normal;font-variant:normal;font-weight:normal;font-stretch:normal;font-size:96px;font-family:'Eras Bold ITC';-inkscape-font-specification:'Eras Bold ITC, Normal';font-variant-ligatures:normal;font-variant-caps:normal;font-variant-numeric:normal;font-feature-settings:normal;text-align:start;writing-mode:lr-tb;text-anchor:start;fill:#ffffff;fill-opacity:1"
         id="path1248"
         inkscape:connector-curvature="0" />
      <path
         d="m 1032.6543,535.75726 q -0.5625,2.76563 -1.3594,7.73438 -0.7969,4.92187 -1.0781,7.64062 -10.0313,1.45313 -17.9063,1.45313 -7.5937,0 -14.1562,-1.875 -6.51563,-1.92188 -12,-6.23438 -5.4375,-4.35937 -7.78125,-10.21875 -2.34375,-5.85937 -2.34375,-13.125 0,-8.48437 3.14062,-15.23437 3.1875,-6.79688 9.09375,-11.29688 5.95313,-4.54687 13.03123,-6.46875 7.0781,-1.96875 14.625,-1.96875 6.9375,0 17.1563,1.78125 l 0.094,3.9375 q 0.094,2.57813 0.2813,5.67188 l 0.3281,5.34375 q -5.4844,-1.3125 -8.9063,-1.78125 -3.375,-0.46875 -6.2812,-0.46875 -6.3281,0 -11.3906,2.53125 -5.0625,2.53125 -7.96878,7.35937 -2.90625,4.82813 -2.90625,10.6875 0,5.34375 2.4375,9.1875 2.43753,3.79688 6.56253,5.90625 4.1718,2.0625 10.2656,2.0625 3.3281,0 7.2187,-0.51562 3.9375,-0.5625 9.8438,-2.10938 z"
         style="font-style:normal;font-variant:normal;font-weight:normal;font-stretch:normal;font-size:96px;font-family:'Eras Bold ITC';-inkscape-font-specification:'Eras Bold ITC, Normal';font-variant-ligatures:normal;font-variant-caps:normal;font-variant-numeric:normal;font-feature-settings:normal;text-align:start;writing-mode:lr-tb;text-anchor:start;fill:#ffffff;fill-opacity:1"
         id="path1250"
         inkscape:connector-curvature="0" />
      <path
         d="m 1093.4512,551.36664 q -5.3438,-0.0937 -8.9063,-0.0937 -4.4062,0 -8.8594,0.0937 l -0.047,-6.42188 q -1.6875,2.10938 -2.8594,3.1875 -1.1719,1.03125 -2.5781,1.82813 -1.3594,0.79687 -3.0938,1.40625 -1.6875,0.5625 -3.9375,0.89062 -2.2031,0.32813 -4.5,0.32813 -3.7031,0 -7.0312,-0.89063 -3.2813,-0.84375 -5.8125,-2.90625 -2.4844,-2.0625 -3.4219,-4.6875 -0.8906,-2.625 -0.8906,-6.09375 0,-0.84375 0.1406,-2.625 l 0.75,-10.64062 q 0.3281,-5.85938 0.6094,-12.98438 0.1875,-4.35937 0.1875,-8.25 5.8125,0.0937 9.8906,0.0937 4.125,0 9.0937,-0.0937 l -1.4531,17.85938 q -0.3281,4.07812 -0.375,5.57812 0,1.45313 0,1.96875 0,4.92188 1.9688,6.65625 2.0156,1.73438 4.7812,1.73438 1.125,0 2.25,-0.32813 1.125,-0.32812 2.1563,-0.9375 0.8906,-0.5625 1.6406,-1.40625 0.7969,-0.89062 1.4062,-2.15625 0.75,-1.54687 1.125,-3.32812 0.5157,-2.48438 0.7969,-6.28125 0.1875,-2.76563 0.5156,-9.5625 l 0.375,-9.79688 q 6.0469,0.0937 9.9375,0.0937 4.3594,0 8.7657,-0.0937 -1.0782,11.90625 -1.6875,22.64063 -0.6094,10.73437 -0.9375,25.21875 z"
         style="font-style:normal;font-variant:normal;font-weight:normal;font-stretch:normal;font-size:96px;font-family:'Eras Bold ITC';-inkscape-font-specification:'Eras Bold ITC, Normal';font-variant-ligatures:normal;font-variant-caps:normal;font-variant-numeric:normal;font-feature-settings:normal;text-align:start;writing-mode:lr-tb;text-anchor:start;fill:#ffffff;fill-opacity:1"
         id="path1252"
         inkscape:connector-curvature="0" />
      <path
         d="m 1103.9512,551.36664 1.4531,-20.8125 0.4687,-11.95313 q 0.047,-3.23437 0.047,-6.60937 0,-3.42188 -0.094,-8.48438 5.6718,0.0937 9,0.0937 3.8906,0 8.9531,-0.0937 l -0.1875,5.29688 q 1.8281,-2.0625 3,-3.04688 1.1719,-1.03125 2.6719,-1.82812 1.5,-0.84375 3.1406,-1.21875 1.6406,-0.42188 3.4219,-0.42188 1.6875,0 3.75,0.46875 0.047,5.10938 0.2343,8.4375 l 0.3282,7.21875 q -2.5782,-0.75 -4.8282,-0.75 -2.8125,0 -4.875,0.84375 -2.0156,0.79688 -3.6093,2.48438 -1.5469,1.64062 -2.4844,4.125 -0.9375,2.48437 -1.3125,7.875 -0.375,5.39062 -0.375,12.32812 0,2.4375 0.1875,6.04688 -4.5469,-0.0937 -9.1406,-0.0937 -4.5469,0 -9.75,0.0937 z"
         style="font-style:normal;font-variant:normal;font-weight:normal;font-stretch:normal;font-size:96px;font-family:'Eras Bold ITC';-inkscape-font-specification:'Eras Bold ITC, Normal';font-variant-ligatures:normal;font-variant-caps:normal;font-variant-numeric:normal;font-feature-settings:normal;text-align:start;writing-mode:lr-tb;text-anchor:start;fill:#ffffff;fill-opacity:1"
         id="path1254"
         inkscape:connector-curvature="0" />
      <path
         d="m 1144.873,550.47601 q -0.1875,-2.0625 -0.375,-4.3125 -0.1875,-2.29687 -0.6093,-6.28125 l -0.375,-3.375 q 4.5468,1.78125 7.8281,2.67188 3.2812,0.84375 6.0469,0.84375 2.2968,0 3.7031,-0.42188 1.4531,-0.42187 2.1094,-1.21875 0.6562,-0.79687 0.6562,-1.64062 0,-0.75 -0.5156,-1.45313 -0.4688,-0.75 -2.2031,-2.01562 -3.8438,-2.8125 -6.7969,-5.10938 -2.9063,-2.29687 -4.4063,-4.07812 -1.4531,-1.78125 -2.25,-3.84375 -0.75,-2.0625 -0.75,-4.26563 0,-3.89062 2.2032,-7.26562 2.25,-3.375 6.5625,-4.875 4.3593,-1.54688 10.5937,-1.54688 6.5156,0 16.6406,1.6875 l 0.75,13.17188 q -5.6718,-2.25 -10.9218,-2.25 -3.7032,0 -5.3907,0.75 -1.6406,0.75 -1.6406,2.29687 0,0.51563 0.1875,0.98438 0.1875,0.46875 0.6563,0.98437 0.5156,0.51563 1.2187,1.07813 0.75,0.51562 3.5625,2.48437 2.8125,1.96875 4.4063,3.23438 2.625,2.0625 3.9843,3.84375 1.4063,1.73437 2.1094,3.75 0.75,1.96875 0.75,4.17187 0,3.32813 -1.6406,6.14063 -1.5938,2.76562 -4.875,4.64062 -3.2344,1.875 -7.0313,2.57813 -3.7968,0.75 -7.8281,0.75 -2.7187,0 -6.8437,-0.46875 -4.0782,-0.46875 -9.5157,-1.64063 z"
         style="font-style:normal;font-variant:normal;font-weight:normal;font-stretch:normal;font-size:96px;font-family:'Eras Bold ITC';-inkscape-font-specification:'Eras Bold ITC, Normal';font-variant-ligatures:normal;font-variant-caps:normal;font-variant-numeric:normal;font-feature-settings:normal;text-align:start;writing-mode:lr-tb;text-anchor:start;fill:#ffffff;fill-opacity:1"
         id="path1256"
         inkscape:connector-curvature="0" />
      <path
         d="m 1219.4512,502.28851 q 5.8125,0 11.1562,1.78125 5.3906,1.78125 9.0938,5.15625 3.7031,3.32813 5.4375,7.82813 1.7812,4.45312 1.7812,9.60937 0,5.01563 -1.5937,9.5625 -1.5469,4.5 -5.2969,8.48438 -3.75,3.9375 -9.5625,5.90625 -5.7656,1.96875 -12.2344,1.96875 -5.9531,0 -11.4375,-1.73438 -5.4844,-1.73437 -9.1875,-5.0625 -3.6562,-3.32812 -5.5312,-7.96875 -1.8282,-4.64062 -1.8282,-9.75 0,-5.10937 1.7813,-9.75 1.8281,-4.64062 5.7187,-8.34375 3.9375,-3.70312 9.7032,-5.67187 5.7656,-2.01563 12,-2.01563 z m -0.3282,13.78125 q -3,0 -5.3437,1.54688 -2.3438,1.54687 -3.5625,4.54687 -1.1719,2.95313 -1.1719,6.46875 0,5.15625 2.5781,7.92188 2.5782,2.71875 6.4688,2.71875 2.9531,0 5.2969,-1.54688 2.3437,-1.59375 3.5156,-4.64062 1.2187,-3.09375 1.2187,-6.60938 0,-2.90625 -0.9375,-5.25 -0.9375,-2.34375 -3.0937,-3.75 -2.1094,-1.40625 -4.9688,-1.40625 z"
         style="font-style:normal;font-variant:normal;font-weight:normal;font-stretch:normal;font-size:96px;font-family:'Eras Bold ITC';-inkscape-font-specification:'Eras Bold ITC, Normal';font-variant-ligatures:normal;font-variant-caps:normal;font-variant-numeric:normal;font-feature-settings:normal;text-align:start;writing-mode:lr-tb;text-anchor:start;fill:#ffffff;fill-opacity:1"
         id="path1258"
         inkscape:connector-curvature="0" />
      <path
         d="m 1253.4355,550.47601 q -0.1875,-2.0625 -0.375,-4.3125 -0.1875,-2.29687 -0.6093,-6.28125 l -0.375,-3.375 q 4.5468,1.78125 7.8281,2.67188 3.2812,0.84375 6.0469,0.84375 2.2968,0 3.7031,-0.42188 1.4531,-0.42187 2.1094,-1.21875 0.6562,-0.79687 0.6562,-1.64062 0,-0.75 -0.5156,-1.45313 -0.4688,-0.75 -2.2031,-2.01562 -3.8438,-2.8125 -6.7969,-5.10938 -2.9063,-2.29687 -4.4063,-4.07812 -1.4531,-1.78125 -2.25,-3.84375 -0.75,-2.0625 -0.75,-4.26563 0,-3.89062 2.2032,-7.26562 2.25,-3.375 6.5625,-4.875 4.3593,-1.54688 10.5937,-1.54688 6.5156,0 16.6406,1.6875 l 0.75,13.17188 q -5.6718,-2.25 -10.9218,-2.25 -3.7032,0 -5.3907,0.75 -1.6406,0.75 -1.6406,2.29687 0,0.51563 0.1875,0.98438 0.1875,0.46875 0.6563,0.98437 0.5156,0.51563 1.2187,1.07813 0.75,0.51562 3.5625,2.48437 2.8125,1.96875 4.4063,3.23438 2.625,2.0625 3.9843,3.84375 1.4063,1.73437 2.1094,3.75 0.75,1.96875 0.75,4.17187 0,3.32813 -1.6406,6.14063 -1.5938,2.76562 -4.875,4.64062 -3.2344,1.875 -7.0313,2.57813 -3.7968,0.75 -7.8281,0.75 -2.7187,0 -6.8437,-0.46875 -4.0782,-0.46875 -9.5157,-1.64063 z"
         style="font-style:normal;font-variant:normal;font-weight:normal;font-stretch:normal;font-size:96px;font-family:'Eras Bold ITC';-inkscape-font-specification:'Eras Bold ITC, Normal';font-variant-ligatures:normal;font-variant-caps:normal;font-variant-numeric:normal;font-feature-settings:normal;text-align:start;writing-mode:lr-tb;text-anchor:start;fill:#ffffff;fill-opacity:1"
         id="path1260"
         inkscape:connector-curvature="0" />
      <path
         d="m 1376.9043,551.36664 q -5.0156,-0.0937 -8.3438,-0.0937 -3.75,0 -9.0937,0.0937 l 0.2812,-5.95313 q -1.8281,1.78125 -3.1875,2.90625 -1.3593,1.07813 -3.5156,2.10938 -2.1094,1.03125 -4.5937,1.59375 -2.4375,0.5625 -5.0625,0.5625 -4.5,0 -8.4375,-1.64063 -3.8907,-1.64062 -6.6563,-4.64062 -2.7656,-3.04688 -4.125,-7.17188 -1.3594,-4.17187 -1.3594,-8.625 0,-6.32812 2.4844,-12.375 2.4844,-6.04687 6.4688,-9.51562 4.0312,-3.46875 9.0468,-4.875 5.0625,-1.45313 10.9219,-1.45313 3.8906,0 9.0938,0.70313 0.375,-5.57813 0.5156,-15.60938 5.7656,0.0937 9.4219,0.0937 4.7343,0 9.5625,-0.0937 -1.3594,13.92188 -2.3907,33.98438 -1.0312,20.0625 -1.0312,30 z m -16.7344,-36.1875 q -2.4844,-0.5625 -4.6875,-0.5625 -4.5469,0 -7.7344,1.78125 -3.1875,1.73437 -4.9218,5.48437 -1.6875,3.70313 -1.6875,7.3125 0,2.71875 0.9375,4.92188 0.9843,2.15625 2.9531,3.42187 2.0156,1.26563 4.4531,1.26563 2.5781,0 4.6875,-1.45313 2.1563,-1.45312 3.4688,-4.26562 1.3593,-2.8125 1.8281,-6.65625 0.5156,-3.89063 0.7031,-11.25 z"
         style="font-style:normal;font-variant:normal;font-weight:normal;font-stretch:normal;font-size:96px;font-family:'Eras Bold ITC';-inkscape-font-specification:'Eras Bold ITC, Normal';font-variant-ligatures:normal;font-variant-caps:normal;font-variant-numeric:normal;font-feature-settings:normal;text-align:start;writing-mode:lr-tb;text-anchor:start;fill:#ffffff;fill-opacity:1"
         id="path1262"
         inkscape:connector-curvature="0" />
      <path
         d="m 1433.9043,537.21039 q -0.6094,2.8125 -2.3438,13.59375 -5.4375,1.07812 -9.1406,1.40625 -3.7031,0.375 -7.5,0.375 -5.5781,0 -10.2656,-0.79688 -4.6875,-0.75 -8.1094,-2.71875 -3.375,-1.96875 -5.6719,-4.875 -2.2968,-2.95312 -3.5156,-6.98437 -1.1719,-4.03125 -1.1719,-8.29688 0,-6 2.3907,-11.71875 2.3906,-5.76562 6.1406,-9 3.7969,-3.23437 8.7187,-4.59375 4.9219,-1.35937 10.0782,-1.35937 5.3437,0 10.1718,1.26562 4.875,1.21875 8.25,4.3125 3.375,3.09375 4.7813,6.98438 1.4531,3.89062 1.4531,8.39062 0,2.67188 -0.6094,5.95313 l -32.8593,0.0469 q -0.047,0.75 -0.047,1.35938 0,5.0625 3.6094,7.45312 3.6093,2.39063 8.8125,2.39063 3.0937,0 7.0312,-0.70313 3.9844,-0.75 9.7969,-2.48437 z m -28.8281,-15.1875 h 15.4687 q 0.047,-0.79688 0.047,-1.35938 0,-2.4375 -0.8906,-4.17187 -0.8438,-1.73438 -2.4844,-2.53125 -1.5938,-0.79688 -3.6094,-0.79688 -1.4062,0 -2.7187,0.46875 -1.3125,0.42188 -2.3907,1.3125 -1.0312,0.84375 -1.7343,1.96875 -0.7032,1.125 -1.0313,2.20313 -0.3281,1.03125 -0.6562,2.90625 z"
         style="font-style:normal;font-variant:normal;font-weight:normal;font-stretch:normal;font-size:96px;font-family:'Eras Bold ITC';-inkscape-font-specification:'Eras Bold ITC, Normal';font-variant-ligatures:normal;font-variant-caps:normal;font-variant-numeric:normal;font-feature-settings:normal;text-align:start;writing-mode:lr-tb;text-anchor:start;fill:#ffffff;fill-opacity:1"
         id="path1264"
         inkscape:connector-curvature="0" />
      <path
         d="m 1524.2793,535.75726 q -0.5625,2.76563 -1.3594,7.73438 -0.7969,4.92187 -1.0781,7.64062 -10.0313,1.45313 -17.9063,1.45313 -7.5937,0 -14.1562,-1.875 -6.5156,-1.92188 -12,-6.23438 -5.4375,-4.35937 -7.7813,-10.21875 -2.3437,-5.85937 -2.3437,-13.125 0,-8.48437 3.1406,-15.23437 3.1875,-6.79688 9.0938,-11.29688 5.9531,-4.54687 13.0312,-6.46875 7.0781,-1.96875 14.625,-1.96875 6.9375,0 17.1563,1.78125 l 0.094,3.9375 q 0.094,2.57813 0.2813,5.67188 l 0.3281,5.34375 q -5.4844,-1.3125 -8.9063,-1.78125 -3.375,-0.46875 -6.2812,-0.46875 -6.3281,0 -11.3906,2.53125 -5.0625,2.53125 -7.9688,7.35937 -2.9062,4.82813 -2.9062,10.6875 0,5.34375 2.4375,9.1875 2.4375,3.79688 6.5625,5.90625 4.1718,2.0625 10.2656,2.0625 3.3281,0 7.2187,-0.51562 3.9375,-0.5625 9.8438,-2.10938 z"
         style="font-style:normal;font-variant:normal;font-weight:normal;font-stretch:normal;font-size:96px;font-family:'Eras Bold ITC';-inkscape-font-specification:'Eras Bold ITC, Normal';font-variant-ligatures:normal;font-variant-caps:normal;font-variant-numeric:normal;font-feature-settings:normal;text-align:start;writing-mode:lr-tb;text-anchor:start;fill:#ffffff;fill-opacity:1"
         id="path1266"
         inkscape:connector-curvature="0" />
      <path
         d="m 1560.5137,502.28851 q 5.8125,0 11.1562,1.78125 5.3906,1.78125 9.0938,5.15625 3.7031,3.32813 5.4375,7.82813 1.7812,4.45312 1.7812,9.60937 0,5.01563 -1.5937,9.5625 -1.5469,4.5 -5.2969,8.48438 -3.75,3.9375 -9.5625,5.90625 -5.7656,1.96875 -12.2344,1.96875 -5.9531,0 -11.4375,-1.73438 -5.4844,-1.73437 -9.1875,-5.0625 -3.6562,-3.32812 -5.5312,-7.96875 -1.8282,-4.64062 -1.8282,-9.75 0,-5.10937 1.7813,-9.75 1.8281,-4.64062 5.7187,-8.34375 3.9375,-3.70312 9.7032,-5.67187 5.7656,-2.01563 12,-2.01563 z m -0.3282,13.78125 q -3,0 -5.3437,1.54688 -2.3438,1.54687 -3.5625,4.54687 -1.1719,2.95313 -1.1719,6.46875 0,5.15625 2.5781,7.92188 2.5782,2.71875 6.4688,2.71875 2.9531,0 5.2969,-1.54688 2.3437,-1.59375 3.5156,-4.64062 1.2187,-3.09375 1.2187,-6.60938 0,-2.90625 -0.9375,-5.25 -0.9375,-2.34375 -3.0937,-3.75 -2.1094,-1.40625 -4.9688,-1.40625 z"
         style="font-style:normal;font-variant:normal;font-weight:normal;font-stretch:normal;font-size:96px;font-family:'Eras Bold ITC';-inkscape-font-specification:'Eras Bold ITC, Normal';font-variant-ligatures:normal;font-variant-caps:normal;font-variant-numeric:normal;font-feature-settings:normal;text-align:start;writing-mode:lr-tb;text-anchor:start;fill:#ffffff;fill-opacity:1"
         id="path1268"
         inkscape:connector-curvature="0" />
      <path
         d="m 1595.0137,551.36664 1.3125,-22.59375 0.75,-17.67188 0.094,-7.59375 q 5.1563,0.0937 9.0938,0.0937 4.4531,0 8.6718,-0.0937 l -0.3281,6.23438 q 1.4531,-1.875 2.4375,-2.85938 1.0313,-1.03125 2.4844,-1.92187 1.4531,-0.9375 3,-1.45313 1.5469,-0.5625 3.4687,-0.89062 1.9219,-0.32813 4.0313,-0.32813 2.3906,0 4.4062,0.42188 2.0157,0.375 3.4688,0.98437 1.4531,0.60938 2.5312,1.40625 1.0782,0.79688 1.875,1.82813 0.8438,0.98437 1.9219,2.90625 2.0625,-3 4.3594,-4.54688 2.2969,-1.54687 5.2031,-2.25 2.9531,-0.75 6.0469,-0.75 4.0781,0 7.6875,1.17188 3.6094,1.17187 5.9062,4.07812 2.3438,2.85938 2.3438,7.45313 0,2.15625 -0.3281,6.51562 -0.2813,4.35938 -0.8438,15 -0.5156,10.59375 -0.5625,14.85938 -4.3125,-0.0937 -8.3437,-0.0937 -4.9219,0 -10.3125,0.0937 0.4687,-5.95313 0.9375,-14.90625 0.5156,-9 0.5156,-12.46875 0,-3 -0.7031,-4.45313 -0.7032,-1.5 -1.8282,-2.01562 -1.0781,-0.5625 -2.3906,-0.5625 -1.4062,0 -2.4375,0.51562 -1.125,0.5625 -1.9687,1.73438 -1.125,1.54687 -1.8282,3.89062 -0.5625,1.82813 -0.8906,5.57813 -0.3281,3.84375 -0.5156,10.125 l -0.375,12.5625 q -5.0156,-0.0937 -9.0469,-0.0937 -4.125,0 -9.7031,0.0937 0.4219,-4.17188 0.9844,-14.01563 0.5625,-9.84375 0.5625,-13.17187 0,-2.8125 -0.5625,-4.21875 -0.5625,-1.40625 -1.5938,-2.25 -0.9844,-0.84375 -2.6719,-0.84375 -1.8281,0 -3.1875,1.07812 -1.3593,1.07813 -2.3437,3.09375 -0.9375,2.01563 -1.3594,5.57813 -0.375,3.51562 -0.7031,10.78125 -0.3281,7.26562 -0.4219,13.96875 -5.6719,-0.0937 -9.1875,-0.0937 -3.8906,0 -9.6562,0.0937 z"
         style="font-style:normal;font-variant:normal;font-weight:normal;font-stretch:normal;font-size:96px;font-family:'Eras Bold ITC';-inkscape-font-specification:'Eras Bold ITC, Normal';font-variant-ligatures:normal;font-variant-caps:normal;font-variant-numeric:normal;font-feature-settings:normal;text-align:start;writing-mode:lr-tb;text-anchor:start;fill:#ffffff;fill-opacity:1"
         id="path1270"
         inkscape:connector-curvature="0" />
      <path
         d="m 1682.9043,573.30414 q 0.8906,-9.60938 1.5,-19.17188 1.0781,-16.35937 1.4531,-27.42187 0.4219,-11.10938 0.4219,-21.98438 9.5156,-1.45312 14.9062,-1.92187 5.3907,-0.51563 10.7813,-0.51563 6.75,0 12.4219,1.40625 5.6718,1.40625 9.0937,4.96875 3.4688,3.5625 5.2031,8.48438 1.7344,4.92187 1.7344,10.3125 0,4.92187 -1.4062,9.5625 -1.4063,4.59375 -4.3125,8.29687 -2.9063,3.70313 -6.7032,5.48438 -3.75,1.78125 -8.3906,1.78125 -2.2969,0 -4.7812,-0.46875 -2.4375,-0.42188 -4.6407,-1.26563 -2.2031,-0.84375 -3.7031,-1.6875 -1.4531,-0.89062 -3.6562,-2.53125 l -0.5157,13.07813 q -0.3281,9 -0.3281,13.59375 -5.4375,-0.0937 -9.3281,-0.0937 -3.375,0 -9.75,0.0937 z m 21.6094,-56.625 q -0.375,2.10937 -0.5157,3.46875 -0.1406,1.3125 -0.2812,3.60937 -0.1406,2.25 -0.1406,3.60938 0,3.84375 1.1718,6.46875 1.2188,2.57812 3.3282,4.03125 2.1562,1.40625 4.5937,1.40625 2.5781,0 4.7344,-1.45313 2.1562,-1.5 3.4219,-4.45312 1.2656,-2.95313 1.2656,-6.65625 0,-5.01563 -2.6719,-8.0625 -2.625,-3.04688 -7.6875,-3.04688 -3.1875,0 -7.2187,1.07813 z"
         style="font-style:normal;font-variant:normal;font-weight:normal;font-stretch:normal;font-size:96px;font-family:'Eras Bold ITC';-inkscape-font-specification:'Eras Bold ITC, Normal';font-variant-ligatures:normal;font-variant-caps:normal;font-variant-numeric:normal;font-feature-settings:normal;text-align:start;writing-mode:lr-tb;text-anchor:start;fill:#ffffff;fill-opacity:1"
         id="path1272"
         inkscape:connector-curvature="0" />
      <path
         d="m 1799.7637,551.36664 q -5.3438,-0.0937 -8.9063,-0.0937 -4.4062,0 -8.8594,0.0937 l -0.047,-6.42188 q -1.6875,2.10938 -2.8594,3.1875 -1.1719,1.03125 -2.5781,1.82813 -1.3594,0.79687 -3.0938,1.40625 -1.6875,0.5625 -3.9375,0.89062 -2.2031,0.32813 -4.5,0.32813 -3.7031,0 -7.0312,-0.89063 -3.2813,-0.84375 -5.8125,-2.90625 -2.4844,-2.0625 -3.4219,-4.6875 -0.8906,-2.625 -0.8906,-6.09375 0,-0.84375 0.1406,-2.625 l 0.75,-10.64062 q 0.3281,-5.85938 0.6094,-12.98438 0.1875,-4.35937 0.1875,-8.25 5.8125,0.0937 9.8906,0.0937 4.125,0 9.0937,-0.0937 l -1.4531,17.85938 q -0.3281,4.07812 -0.375,5.57812 0,1.45313 0,1.96875 0,4.92188 1.9688,6.65625 2.0156,1.73438 4.7812,1.73438 1.125,0 2.25,-0.32813 1.125,-0.32812 2.1563,-0.9375 0.8906,-0.5625 1.6406,-1.40625 0.7969,-0.89062 1.4062,-2.15625 0.75,-1.54687 1.125,-3.32812 0.5157,-2.48438 0.7969,-6.28125 0.1875,-2.76563 0.5156,-9.5625 l 0.375,-9.79688 q 6.0469,0.0937 9.9375,0.0937 4.3594,0 8.7657,-0.0937 -1.0782,11.90625 -1.6875,22.64063 -0.6094,10.73437 -0.9375,25.21875 z"
         style="font-style:normal;font-variant:normal;font-weight:normal;font-stretch:normal;font-size:96px;font-family:'Eras Bold ITC';-inkscape-font-specification:'Eras Bold ITC, Normal';font-variant-ligatures:normal;font-variant-caps:normal;font-variant-numeric:normal;font-feature-settings:normal;text-align:start;writing-mode:lr-tb;text-anchor:start;fill:#ffffff;fill-opacity:1"
         id="path1274"
         inkscape:connector-curvature="0" />
      <path
         d="m 1845.1855,537.58539 q -0.8437,3.9375 -1.4531,7.6875 l -1.0312,5.71875 q -4.6407,1.03125 -7.2657,1.3125 -2.5781,0.28125 -5.0156,0.28125 -3.9844,0 -7.0781,-0.70313 -3.0938,-0.65625 -5.1563,-2.4375 -2.0625,-1.82812 -2.8125,-4.17187 -0.75,-2.34375 -0.75,-4.96875 0,-0.46875 0.047,-1.64063 0.047,-1.21875 0.3281,-5.34375 l 1.0313,-16.21875 h -7.3125 q 0.2344,-3.23437 0.4219,-8.53125 l 0.1406,-4.35937 h 7.7812 q 0.2813,-2.15625 0.7032,-9.42188 l 8.0156,-1.64062 q 2.2031,-0.42188 9.375,-2.15625 -0.3281,6.14062 -0.4688,13.21875 h 10.6875 q -0.375,9.75 -0.375,12.89062 h -10.7812 l -0.5625,11.71875 q -0.094,2.625 -0.094,3.375 0,2.25 0.4688,3.75 0.5156,1.5 1.7344,2.15625 1.2656,0.65625 2.7656,0.65625 1.125,0 2.3437,-0.14062 1.2188,-0.1875 4.3125,-1.03125 z"
         style="font-style:normal;font-variant:normal;font-weight:normal;font-stretch:normal;font-size:96px;font-family:'Eras Bold ITC';-inkscape-font-specification:'Eras Bold ITC, Normal';font-variant-ligatures:normal;font-variant-caps:normal;font-variant-numeric:normal;font-feature-settings:normal;text-align:start;writing-mode:lr-tb;text-anchor:start;fill:#ffffff;fill-opacity:1"
         id="path1276"
         inkscape:connector-curvature="0" />
      <path
         d="m 1855.5918,517.14789 q 0.8906,-4.64063 1.125,-6.375 0.2344,-1.78125 0.75,-5.53125 13.5,-2.95313 23.2031,-2.95313 5.5313,0 10.125,1.26563 4.5938,1.21875 7.1719,3.98437 2.5781,2.76563 2.5781,7.92188 0,2.625 -0.7031,11.8125 -0.7031,9.1875 -1.0781,24.09375 -4.5938,-0.0937 -9.1407,-0.0937 -4.4062,0 -9.375,0.0937 0.6563,-5.15625 1.4532,-21.28125 -1.7813,0.84375 -2.8125,1.21875 -0.9844,0.375 -3.5157,1.125 -2.5312,0.75 -3.9843,1.26562 -1.4063,0.51563 -2.4844,1.3125 -1.0313,0.79688 -1.5,1.64063 -0.4219,0.84375 -0.4219,1.875 0,1.59375 1.2656,2.71875 1.2657,1.125 4.0313,1.125 0.9844,0 2.1094,-0.14063 1.125,-0.1875 3.0937,-0.84375 -1.3594,3.60938 -3.2344,10.54688 -4.0312,0.65625 -7.6406,0.65625 -5.8125,0 -9.7031,-1.59375 -3.8438,-1.64063 -5.9531,-5.25 -2.0625,-3.60938 -2.0625,-7.21875 0,-2.20313 0.75,-4.3125 0.7968,-2.10938 2.4375,-4.125 1.6406,-2.01563 3.8437,-3.42188 2.2031,-1.45312 6,-2.71875 3.8438,-1.26562 9.7031,-2.39062 2.4375,-0.46875 4.4532,-0.98438 2.0625,-0.5625 2.9062,-0.9375 0.8906,-0.42187 1.4063,-0.9375 0.5625,-0.5625 0.7968,-1.125 0.2344,-0.60937 0.2344,-1.26562 0,-1.78125 -1.5,-2.71875 -1.5,-0.98438 -4.4062,-0.98438 -8.0625,0 -19.9219,4.54688 z"
         style="font-style:normal;font-variant:normal;font-weight:normal;font-stretch:normal;font-size:96px;font-family:'Eras Bold ITC';-inkscape-font-specification:'Eras Bold ITC, Normal';font-variant-ligatures:normal;font-variant-caps:normal;font-variant-numeric:normal;font-feature-settings:normal;text-align:start;writing-mode:lr-tb;text-anchor:start;fill:#ffffff;fill-opacity:1"
         id="path1278"
         inkscape:connector-curvature="0" />
      <path
         d="m 1949.248,536.41351 q -0.2343,1.875 -1.125,6.89063 l -1.2187,7.5 q -7.3594,1.78125 -14.3906,1.78125 -5.1094,0 -8.9532,-1.03125 -4.5468,-1.21875 -8.1562,-4.3125 -3.7031,-3.1875 -5.3906,-7.54688 -2.0157,-5.10937 -2.0157,-11.4375 0,-5.8125 1.9688,-11.20312 1.9687,-5.39063 5.8125,-8.85938 3.8437,-3.51562 8.5312,-4.6875 4.6875,-1.21875 10.3594,-1.21875 3.3281,0 6.7031,0.375 3.375,0.32813 8.3438,1.5 l 0.094,1.07813 q 0.1407,1.6875 0.1875,3.46875 0.094,1.73437 0.3282,5.53125 l 0.2812,4.17187 q -6.7031,-2.34375 -11.8594,-2.34375 -3.7031,0 -6.5156,1.45313 -2.7656,1.40625 -4.125,4.125 -1.3125,2.67187 -1.3125,6.23437 0,3.60938 1.1719,6.04688 1.2187,2.4375 3.8437,3.65625 2.625,1.21875 5.7657,1.21875 1.5937,0 3.75,-0.32813 2.2031,-0.32812 3.7968,-0.70312 1.6407,-0.42188 4.125,-1.35938 z m -9.9843,18.84375 q -0.8907,1.78125 -2.4844,4.875 -1.5938,3.09375 -3.7031,7.5 -4.7813,-0.0937 -8.9532,-0.0937 -4.125,0 -9.5156,0.0937 4.4531,-5.4375 9.6563,-12.65625 2.4843,0.42188 8.3437,0.42188 3.5156,0 6.6563,-0.14063 z"
         style="font-style:normal;font-variant:normal;font-weight:normal;font-stretch:normal;font-size:96px;font-family:'Eras Bold ITC';-inkscape-font-specification:'Eras Bold ITC, Normal';font-variant-ligatures:normal;font-variant-caps:normal;font-variant-numeric:normal;font-feature-settings:normal;text-align:start;writing-mode:lr-tb;text-anchor:start;fill:#ffffff;fill-opacity:1"
         id="path1280"
         inkscape:connector-curvature="0" />
      <path
         d="m 1962.2793,517.14789 q 0.8906,-4.64063 1.125,-6.375 0.2344,-1.78125 0.75,-5.53125 13.5,-2.95313 23.2031,-2.95313 5.5313,0 10.125,1.26563 4.5938,1.21875 7.1719,3.98437 2.5781,2.76563 2.5781,7.92188 0,2.625 -0.7031,11.8125 -0.7031,9.1875 -1.0781,24.09375 -4.5938,-0.0937 -9.1407,-0.0937 -4.4062,0 -9.375,0.0937 0.6563,-5.15625 1.4532,-21.28125 -1.7813,0.84375 -2.8125,1.21875 -0.9844,0.375 -3.5157,1.125 -2.5312,0.75 -3.9843,1.26562 -1.4063,0.51563 -2.4844,1.3125 -1.0313,0.79688 -1.5,1.64063 -0.4219,0.84375 -0.4219,1.875 0,1.59375 1.2656,2.71875 1.2657,1.125 4.0313,1.125 0.9844,0 2.1094,-0.14063 1.125,-0.1875 3.0937,-0.84375 -1.3594,3.60938 -3.2344,10.54688 -4.0312,0.65625 -7.6406,0.65625 -5.8125,0 -9.7031,-1.59375 -3.8438,-1.64063 -5.9531,-5.25 -2.0625,-3.60938 -2.0625,-7.21875 0,-2.20313 0.75,-4.3125 0.7968,-2.10938 2.4375,-4.125 1.6406,-2.01563 3.8437,-3.42188 2.2031,-1.45312 6,-2.71875 3.8438,-1.26562 9.7031,-2.39062 2.4375,-0.46875 4.4532,-0.98438 2.0625,-0.5625 2.9062,-0.9375 0.8906,-0.42187 1.4063,-0.9375 0.5625,-0.5625 0.7968,-1.125 0.2344,-0.60937 0.2344,-1.26562 0,-1.78125 -1.5,-2.71875 -1.5,-0.98438 -4.4062,-0.98438 -8.0625,0 -19.9219,4.54688 z m 9.3281,-20.48438 q 0.1875,-5.625 1.875,-8.53125 1.7344,-2.95312 5.2031,-2.95312 1.0313,0 2.0625,0.28125 1.0782,0.28125 1.7344,0.60937 0.7031,0.32813 2.7656,1.54688 2.0625,1.17187 2.6719,1.5 0.6094,0.28125 1.0781,0.42187 0.5157,0.0937 0.9844,0.0937 0.6094,0 1.125,-0.23437 0.5156,-0.23438 0.8438,-0.89063 0.375,-0.65625 0.5625,-2.25 2.6718,0.14063 3.9375,0.14063 1.2656,0 3.9843,-0.14063 0,5.48438 -1.9687,8.53125 -1.9219,3.04688 -5.4844,3.04688 -1.0781,0 -2.0625,-0.23438 -0.9844,-0.28125 -1.9219,-0.75 -0.9375,-0.51562 -3.0468,-1.73437 -2.0625,-1.21875 -2.8594,-1.54688 -0.7969,-0.32812 -1.5469,-0.32812 -0.75,0 -1.3594,0.46875 -0.5625,0.42187 -0.75,0.98437 -0.1406,0.5625 -0.2812,1.96875 -2.5781,-0.14062 -3.8906,-0.14062 -1.2188,0 -3.6563,0.14062 z"
         style="font-style:normal;font-variant:normal;font-weight:normal;font-stretch:normal;font-size:96px;font-family:'Eras Bold ITC';-inkscape-font-specification:'Eras Bold ITC, Normal';font-variant-ligatures:normal;font-variant-caps:normal;font-variant-numeric:normal;font-feature-settings:normal;text-align:start;writing-mode:lr-tb;text-anchor:start;fill:#ffffff;fill-opacity:1"
         id="path1282"
         inkscape:connector-curvature="0" />
      <path
         d="m 2043.8887,502.28851 q 5.8125,0 11.1562,1.78125 5.3906,1.78125 9.0938,5.15625 3.7031,3.32813 5.4375,7.82813 1.7812,4.45312 1.7812,9.60937 0,5.01563 -1.5937,9.5625 -1.5469,4.5 -5.2969,8.48438 -3.75,3.9375 -9.5625,5.90625 -5.7656,1.96875 -12.2344,1.96875 -5.9531,0 -11.4375,-1.73438 -5.4844,-1.73437 -9.1875,-5.0625 -3.6562,-3.32812 -5.5312,-7.96875 -1.8282,-4.64062 -1.8282,-9.75 0,-5.10937 1.7813,-9.75 1.8281,-4.64062 5.7187,-8.34375 3.9375,-3.70312 9.7032,-5.67187 5.7656,-2.01563 12,-2.01563 z m -0.3282,13.78125 q -3,0 -5.3437,1.54688 -2.3438,1.54687 -3.5625,4.54687 -1.1719,2.95313 -1.1719,6.46875 0,5.15625 2.5781,7.92188 2.5782,2.71875 6.4688,2.71875 2.9531,0 5.2969,-1.54688 2.3437,-1.59375 3.5156,-4.64062 1.2187,-3.09375 1.2187,-6.60938 0,-2.90625 -0.9375,-5.25 -0.9375,-2.34375 -3.0937,-3.75 -2.1094,-1.40625 -4.9688,-1.40625 z"
         style="font-style:normal;font-variant:normal;font-weight:normal;font-stretch:normal;font-size:96px;font-family:'Eras Bold ITC';-inkscape-font-specification:'Eras Bold ITC, Normal';font-variant-ligatures:normal;font-variant-caps:normal;font-variant-numeric:normal;font-feature-settings:normal;text-align:start;writing-mode:lr-tb;text-anchor:start;fill:#ffffff;fill-opacity:1"
         id="path1284"
         inkscape:connector-curvature="0" />
      <path
         d="m 2155.0293,551.36664 q -5.0156,-0.0937 -8.3438,-0.0937 -3.75,0 -9.0937,0.0937 l 0.2812,-5.95313 q -1.8281,1.78125 -3.1875,2.90625 -1.3593,1.07813 -3.5156,2.10938 -2.1094,1.03125 -4.5937,1.59375 -2.4375,0.5625 -5.0625,0.5625 -4.5,0 -8.4375,-1.64063 -3.8907,-1.64062 -6.6563,-4.64062 -2.7656,-3.04688 -4.125,-7.17188 -1.3594,-4.17187 -1.3594,-8.625 0,-6.32812 2.4844,-12.375 2.4844,-6.04687 6.4688,-9.51562 4.0312,-3.46875 9.0468,-4.875 5.0625,-1.45313 10.9219,-1.45313 3.8906,0 9.0938,0.70313 0.375,-5.57813 0.5156,-15.60938 5.7656,0.0937 9.4219,0.0937 4.7343,0 9.5625,-0.0937 -1.3594,13.92188 -2.3907,33.98438 -1.0312,20.0625 -1.0312,30 z m -16.7344,-36.1875 q -2.4844,-0.5625 -4.6875,-0.5625 -4.5469,0 -7.7344,1.78125 -3.1875,1.73437 -4.9218,5.48437 -1.6875,3.70313 -1.6875,7.3125 0,2.71875 0.9375,4.92188 0.9843,2.15625 2.9531,3.42187 2.0156,1.26563 4.4531,1.26563 2.5781,0 4.6875,-1.45313 2.1563,-1.45312 3.4688,-4.26562 1.3593,-2.8125 1.8281,-6.65625 0.5156,-3.89063 0.7031,-11.25 z"
         style="font-style:normal;font-variant:normal;font-weight:normal;font-stretch:normal;font-size:96px;font-family:'Eras Bold ITC';-inkscape-font-specification:'Eras Bold ITC, Normal';font-variant-ligatures:normal;font-variant-caps:normal;font-variant-numeric:normal;font-feature-settings:normal;text-align:start;writing-mode:lr-tb;text-anchor:start;fill:#ffffff;fill-opacity:1"
         id="path1286"
         inkscape:connector-curvature="0" />
      <path
         d="m 2193.5137,502.28851 q 5.8125,0 11.1562,1.78125 5.3906,1.78125 9.0938,5.15625 3.7031,3.32813 5.4375,7.82813 1.7812,4.45312 1.7812,9.60937 0,5.01563 -1.5937,9.5625 -1.5469,4.5 -5.2969,8.48438 -3.75,3.9375 -9.5625,5.90625 -5.7656,1.96875 -12.2344,1.96875 -5.9531,0 -11.4375,-1.73438 -5.4844,-1.73437 -9.1875,-5.0625 -3.6562,-3.32812 -5.5312,-7.96875 -1.8282,-4.64062 -1.8282,-9.75 0,-5.10937 1.7813,-9.75 1.8281,-4.64062 5.7187,-8.34375 3.9375,-3.70312 9.7032,-5.67187 5.7656,-2.01563 12,-2.01563 z m -0.3282,13.78125 q -3,0 -5.3437,1.54688 -2.3438,1.54687 -3.5625,4.54687 -1.1719,2.95313 -1.1719,6.46875 0,5.15625 2.5781,7.92188 2.5782,2.71875 6.4688,2.71875 2.9531,0 5.2969,-1.54688 2.3437,-1.59375 3.5156,-4.64062 1.2187,-3.09375 1.2187,-6.60938 0,-2.90625 -0.9375,-5.25 -0.9375,-2.34375 -3.0937,-3.75 -2.1094,-1.40625 -4.9688,-1.40625 z"
         style="font-style:normal;font-variant:normal;font-weight:normal;font-stretch:normal;font-size:96px;font-family:'Eras Bold ITC';-inkscape-font-specification:'Eras Bold ITC, Normal';font-variant-ligatures:normal;font-variant-caps:normal;font-variant-numeric:normal;font-feature-settings:normal;text-align:start;writing-mode:lr-tb;text-anchor:start;fill:#ffffff;fill-opacity:1"
         id="path1288"
         inkscape:connector-curvature="0" />
      <path
         d="m 2252.623,551.36664 q 0.9844,-10.3125 1.3125,-16.21875 0.4688,-8.0625 0.8907,-22.125 0.4687,-14.0625 0.4687,-19.82813 0,-2.0625 -0.047,-5.8125 6.2344,0.14063 9.8907,0.14063 5.1093,0 11.9062,-0.1875 6.7969,-0.23438 11.6719,-0.23438 5.8594,0 8.3437,0.32813 3.2813,0.42187 5.7188,1.5 2.4844,1.07812 4.125,2.67187 1.8281,1.875 2.8594,4.5 1.1718,3 1.1718,6.42188 0,2.67187 -0.7031,5.10937 -0.6562,2.4375 -1.9219,4.35938 -1.2187,1.875 -2.7656,3.14062 -1.5469,1.26563 -3.0469,1.96875 -1.4531,0.70313 -3.9375,1.40625 2.4844,0.42188 3.9844,0.98438 1.5,0.51562 3.1875,1.73437 1.7344,1.17188 3.0938,3.04688 1.3593,1.875 2.0156,4.21875 0.7031,2.29687 0.7031,4.875 0,3.5625 -1.1719,6.70312 -1.1718,3.14063 -3.2812,5.39063 -1.7813,1.92187 -4.6406,3.28125 -2.8594,1.35937 -5.8594,1.875 -2.4375,0.375 -8.9063,0.5625 -6.4218,0.1875 -13.6406,0.1875 l -12.3281,-0.0469 z m 20.9063,-39.04688 h 6.6562 q 3.2813,0 4.6407,-0.14062 1.4062,-0.1875 2.7187,-0.60938 1.3125,-0.42187 2.25,-1.40625 0.9844,-0.98437 1.3594,-2.20312 0.4219,-1.21875 0.4219,-2.4375 0,-1.73438 -0.8438,-3.09375 -0.7969,-1.35938 -2.625,-2.01563 -1.8281,-0.65625 -5.5781,-0.65625 h -8.4375 z m -1.0781,26.20313 h 9 q 3.5625,0 5.25,-0.42188 2.0625,-0.51562 3.1406,-1.35937 1.0781,-0.84375 1.6875,-2.29688 0.6562,-1.45312 0.6562,-3.23437 0,-1.54688 -0.5156,-2.71875 -0.5156,-1.17188 -1.5469,-1.96875 -1.0312,-0.79688 -2.5312,-1.125 -1.5,-0.375 -4.6875,-0.375 h -9.8906 z"
         style="font-style:normal;font-variant:normal;font-weight:normal;font-stretch:normal;font-size:96px;font-family:'Eras Bold ITC';-inkscape-font-specification:'Eras Bold ITC, Normal';font-variant-ligatures:normal;font-variant-caps:normal;font-variant-numeric:normal;font-feature-settings:normal;text-align:start;writing-mode:lr-tb;text-anchor:start;fill:#ffffff;fill-opacity:1"
         id="path1290"
         inkscape:connector-curvature="0" />
      <path
         d="m 2319.8887,551.36664 1.4531,-20.8125 0.4687,-11.95313 q 0.047,-3.23437 0.047,-6.60937 0,-3.42188 -0.094,-8.48438 5.6718,0.0937 9,0.0937 3.8906,0 8.9531,-0.0937 l -0.1875,5.29688 q 1.8281,-2.0625 3,-3.04688 1.1719,-1.03125 2.6719,-1.82812 1.5,-0.84375 3.1406,-1.21875 1.6406,-0.42188 3.4219,-0.42188 1.6875,0 3.75,0.46875 0.047,5.10938 0.2343,8.4375 l 0.3282,7.21875 q -2.5782,-0.75 -4.8282,-0.75 -2.8125,0 -4.875,0.84375 -2.0156,0.79688 -3.6093,2.48438 -1.5469,1.64062 -2.4844,4.125 -0.9375,2.48437 -1.3125,7.875 -0.375,5.39062 -0.375,12.32812 0,2.4375 0.1875,6.04688 -4.5469,-0.0937 -9.1406,-0.0937 -4.5469,0 -9.75,0.0937 z"
         style="font-style:normal;font-variant:normal;font-weight:normal;font-stretch:normal;font-size:96px;font-family:'Eras Bold ITC';-inkscape-font-specification:'Eras Bold ITC, Normal';font-variant-ligatures:normal;font-variant-caps:normal;font-variant-numeric:normal;font-feature-settings:normal;text-align:start;writing-mode:lr-tb;text-anchor:start;fill:#ffffff;fill-opacity:1"
         id="path1292"
         inkscape:connector-curvature="0" />
      <path
         d="m 2365.5918,517.14789 q 0.8906,-4.64063 1.125,-6.375 0.2344,-1.78125 0.75,-5.53125 13.5,-2.95313 23.2031,-2.95313 5.5313,0 10.125,1.26563 4.5938,1.21875 7.1719,3.98437 2.5781,2.76563 2.5781,7.92188 0,2.625 -0.7031,11.8125 -0.7031,9.1875 -1.0781,24.09375 -4.5938,-0.0937 -9.1407,-0.0937 -4.4062,0 -9.375,0.0937 0.6563,-5.15625 1.4532,-21.28125 -1.7813,0.84375 -2.8125,1.21875 -0.9844,0.375 -3.5157,1.125 -2.5312,0.75 -3.9843,1.26562 -1.4063,0.51563 -2.4844,1.3125 -1.0313,0.79688 -1.5,1.64063 -0.4219,0.84375 -0.4219,1.875 0,1.59375 1.2656,2.71875 1.2657,1.125 4.0313,1.125 0.9844,0 2.1094,-0.14063 1.125,-0.1875 3.0937,-0.84375 -1.3594,3.60938 -3.2344,10.54688 -4.0312,0.65625 -7.6406,0.65625 -5.8125,0 -9.7031,-1.59375 -3.8438,-1.64063 -5.9531,-5.25 -2.0625,-3.60938 -2.0625,-7.21875 0,-2.20313 0.75,-4.3125 0.7968,-2.10938 2.4375,-4.125 1.6406,-2.01563 3.8437,-3.42188 2.2031,-1.45312 6,-2.71875 3.8438,-1.26562 9.7031,-2.39062 2.4375,-0.46875 4.4532,-0.98438 2.0625,-0.5625 2.9062,-0.9375 0.8906,-0.42187 1.4063,-0.9375 0.5625,-0.5625 0.7968,-1.125 0.2344,-0.60937 0.2344,-1.26562 0,-1.78125 -1.5,-2.71875 -1.5,-0.98438 -4.4062,-0.98438 -8.0625,0 -19.9219,4.54688 z"
         style="font-style:normal;font-variant:normal;font-weight:normal;font-stretch:normal;font-size:96px;font-family:'Eras Bold ITC';-inkscape-font-specification:'Eras Bold ITC, Normal';font-variant-ligatures:normal;font-variant-caps:normal;font-variant-numeric:normal;font-feature-settings:normal;text-align:start;writing-mode:lr-tb;text-anchor:start;fill:#ffffff;fill-opacity:1"
         id="path1294"
         inkscape:connector-curvature="0" />
      <path
         d="m 2418.9355,550.47601 q -0.1875,-2.0625 -0.375,-4.3125 -0.1875,-2.29687 -0.6093,-6.28125 l -0.375,-3.375 q 4.5468,1.78125 7.8281,2.67188 3.2812,0.84375 6.0469,0.84375 2.2968,0 3.7031,-0.42188 1.4531,-0.42187 2.1094,-1.21875 0.6562,-0.79687 0.6562,-1.64062 0,-0.75 -0.5156,-1.45313 -0.4688,-0.75 -2.2031,-2.01562 -3.8438,-2.8125 -6.7969,-5.10938 -2.9063,-2.29687 -4.4063,-4.07812 -1.4531,-1.78125 -2.25,-3.84375 -0.75,-2.0625 -0.75,-4.26563 0,-3.89062 2.2032,-7.26562 2.25,-3.375 6.5625,-4.875 4.3593,-1.54688 10.5937,-1.54688 6.5156,0 16.6406,1.6875 l 0.75,13.17188 q -5.6718,-2.25 -10.9218,-2.25 -3.7032,0 -5.3907,0.75 -1.6406,0.75 -1.6406,2.29687 0,0.51563 0.1875,0.98438 0.1875,0.46875 0.6563,0.98437 0.5156,0.51563 1.2187,1.07813 0.75,0.51562 3.5625,2.48437 2.8125,1.96875 4.4063,3.23438 2.625,2.0625 3.9843,3.84375 1.4063,1.73437 2.1094,3.75 0.75,1.96875 0.75,4.17187 0,3.32813 -1.6406,6.14063 -1.5938,2.76562 -4.875,4.64062 -3.2344,1.875 -7.0313,2.57813 -3.7968,0.75 -7.8281,0.75 -2.7187,0 -6.8437,-0.46875 -4.0782,-0.46875 -9.5157,-1.64063 z"
         style="font-style:normal;font-variant:normal;font-weight:normal;font-stretch:normal;font-size:96px;font-family:'Eras Bold ITC';-inkscape-font-specification:'Eras Bold ITC, Normal';font-variant-ligatures:normal;font-variant-caps:normal;font-variant-numeric:normal;font-feature-settings:normal;text-align:start;writing-mode:lr-tb;text-anchor:start;fill:#ffffff;fill-opacity:1"
         id="path1296"
         inkscape:connector-curvature="0" />
      <path
         d="m 2468.2949,497.55414 q 0.2813,-5.57813 0.2813,-8.8125 0,-0.9375 -0.047,-2.53125 5.6719,0.0937 9.5156,0.0937 5.2969,0 9.2813,-0.0937 -0.1407,1.45312 -0.1875,2.4375 l -0.2813,5.8125 q -0.094,1.3125 -0.094,3.09375 -4.6407,-0.0937 -8.9063,-0.0937 -4.4062,0 -9.5625,0.0937 z m -2.9531,53.8125 q 0.6562,-5.71875 0.9844,-9.42188 0.3281,-3.70312 0.6093,-9.46875 0.3282,-5.76562 0.5625,-12.75 0.2344,-6.98437 0.375,-16.21875 6.0938,0.0937 9.75,0.0937 3.3282,0 9.5625,-0.0937 -0.7968,8.85938 -1.1718,15.5625 -0.3282,6.70313 -0.4219,14.20313 -0.1875,13.3125 -0.1875,18.09375 -5.5781,-0.0937 -9.6094,-0.0937 -3.9844,0 -10.4531,0.0937 z"
         style="font-style:normal;font-variant:normal;font-weight:normal;font-stretch:normal;font-size:96px;font-family:'Eras Bold ITC';-inkscape-font-specification:'Eras Bold ITC, Normal';font-variant-ligatures:normal;font-variant-caps:normal;font-variant-numeric:normal;font-feature-settings:normal;text-align:start;writing-mode:lr-tb;text-anchor:start;fill:#ffffff;fill-opacity:1"
         id="path1298"
         inkscape:connector-curvature="0" />
      <path
         d="m 2495.5293,551.31976 0.8437,-10.07812 1.8282,-35.01563 0.5156,-18.84375 q 6.5156,0.0937 9.7969,0.0937 4.2656,0 9.4218,-0.0937 l -1.0781,14.39063 -1.7344,35.4375 -0.375,14.15625 q -5.0156,-0.0937 -9.0468,-0.0937 z"
         style="font-style:normal;font-variant:normal;font-weight:normal;font-stretch:normal;font-size:96px;font-family:'Eras Bold ITC';-inkscape-font-specification:'Eras Bold ITC, Normal';font-variant-ligatures:normal;font-variant-caps:normal;font-variant-numeric:normal;font-feature-settings:normal;text-align:start;writing-mode:lr-tb;text-anchor:start;fill:#ffffff;fill-opacity:1"
         id="path1300"
         inkscape:connector-curvature="0" />
    </g>
  </g>
</svg>
