<?xml version="1.0" encoding="UTF-8" standalone="no"?>
<!-- Created with Inkscape (http://www.inkscape.org/) -->

<svg
   xmlns:dc="http://purl.org/dc/elements/1.1/"
   xmlns:cc="http://creativecommons.org/ns#"
   xmlns:rdf="http://www.w3.org/1999/02/22-rdf-syntax-ns#"
   xmlns:svg="http://www.w3.org/2000/svg"
   xmlns="http://www.w3.org/2000/svg"
   xmlns:sodipodi="http://sodipodi.sourceforge.net/DTD/sodipodi-0.dtd"
   xmlns:inkscape="http://www.inkscape.org/namespaces/inkscape"
   width="210mm"
   height="180mm"
   viewBox="0 0 210 180"
   version="1.1"
   id="svg7970"
   inkscape:version="0.92.3 (2405546, 2018-03-11)"
   sodipodi:docname="lapesca.svg">
  <defs
     id="defs7964">
    <filter
       inkscape:collect="always"
       style="color-interpolation-filters:sRGB"
       id="filter8794"
       x="-0.06657867"
       width="1.1331573"
       y="-0.084303561"
       height="1.1686071">
      <feGaussianBlur
         inkscape:collect="always"
         stdDeviation="5.3167984"
         id="feGaussianBlur8796" />
    </filter>
  </defs>
  <sodipodi:namedview
     id="base"
     pagecolor="#ffffff"
     bordercolor="#666666"
     borderopacity="1.0"
     inkscape:pageopacity="0.0"
     inkscape:pageshadow="2"
     inkscape:zoom="0.35"
     inkscape:cx="428.84365"
     inkscape:cy="301.3373"
     inkscape:document-units="mm"
     inkscape:current-layer="layer1"
     showgrid="false"
     inkscape:pagecheckerboard="true"
     inkscape:snap-global="false"
     inkscape:window-width="1366"
     inkscape:window-height="705"
     inkscape:window-x="1592"
     inkscape:window-y="-8"
     inkscape:window-maximized="1" />
  <metadata
     id="metadata7967">
    <rdf:RDF>
      <cc:Work
         rdf:about="">
        <dc:format>image/svg+xml</dc:format>
        <dc:type
           rdf:resource="http://purl.org/dc/dcmitype/StillImage" />
        <dc:title></dc:title>
      </cc:Work>
    </rdf:RDF>
  </metadata>
  <g
     inkscape:label="Camada 1"
     inkscape:groupmode="layer"
     id="layer1"
     transform="translate(0,-117)">
    <path
       style="opacity:1;fill:#ffffff;fill-opacity:0.99607843;stroke:none;stroke-width:0.26458332px;stroke-linecap:butt;stroke-linejoin:miter;stroke-opacity:1;filter:url(#filter8794)"
       d="m 46.374856,129.13016 c -9.576127,0.099 -19.147311,0.74891 -28.640615,2.01758 -6.603357,24.8686 -0.0994,50.42519 3.096617,75.15509 1.40106,12.05453 0.24922,24.47876 -4.413027,35.75311 19.116851,-5.30513 39.019999,-6.47233 58.722627,-5.61328 -17.593631,4.88444 -36.151039,6.16589 -53.95895,9.65234 -2.277977,1.56119 -5.108667,3.71446 -4.298827,6.90235 -5.519837,-0.28808 -2.392917,7.00745 -3.249127,10.74405 0.34323,4.99716 -0.88849,10.32134 0.58116,15.15438 8.044764,1.68517 17.382598,-1.47878 25.351545,1.58399 2.713387,-2.29704 10.147314,-0.59433 12.518901,-4.53914 3.80939,2.70418 8.224137,4.34077 14.842094,3.47315 2.998117,-1.9654 13.701591,3.14909 11.166854,-4.36196 -2.827,-7.80304 5.143467,-4.49068 9.757284,-5.57791 2.212187,-0.71768 4.206777,-2.24757 5.242187,-4.35742 1.400927,4.62055 -3.36046,15.3647 4.044767,14.01871 7.307984,0.0892 14.615954,0.18072 21.923974,0.2684 1.1574,-0.86776 8.71475,0.26038 12.17382,-0.39258 5.08896,-0.37153 12.64679,1.52777 14.45899,-4.90235 0.95124,0.84509 3.13483,5.05054 6.22461,5.01172 10.43002,0.49573 20.39189,-0.22488 30.48203,0.42935 4.41901,-0.41256 7.17463,-6.96899 10.83432,-0.25852 4.93488,-0.76157 16.05932,2.61299 10.26373,-5.31926 -4.03193,-9.97246 -8.42068,-19.72615 -13.58594,-29.14844 -3.61499,2.8454 -5.02312,-2.7866 -8.91016,-2.09961 -4.085,1.15474 -0.56233,-3.24498 -0.75781,-5.36133 1.76654,-9.47307 0.15347,-19.8414 -5.55859,-27.74609 -1.6339,-26.81099 -7.96561,-53.77285 -1.62891,-80.39649 -41.91992,9.05216 -84.337498,-0.48386 -126.683554,-0.0898 z m 124.517534,81.74219 c -0.64465,-0.73375 2.24312,-0.58504 0,0 z m 4.125,11.88476 c 1.49997,6.97318 1.35656,14.85516 -3.32031,20.53321 -1.28853,4.25045 4.14386,5.61022 7.29297,4.77929 0.93661,-0.29781 -6.89088,3.96439 -6.45898,0.17383 -3.44926,-3.71302 -9.74831,-0.62598 -14.00534,-1.93754 -11.84313,-0.83398 -23.50579,-3.43755 -35.02005,-6.48824 16.1788,1.11651 32.43665,1.57543 48.6289,0.44726 1.57362,-6.04533 2.43932,-12.26369 2.66602,-18.5039 l 0.21267,0.97712 z m 11.29688,27.3125 c -3.99453,-0.0348 2.64366,-4.3944 0,0 z m -141.513634,2.23242 c -1.72045,6.64987 -3.49188,13.33939 -5.234377,20.00391 1.805347,-7.87203 -9.079084,-3.17515 -13.857414,-4.52539 -0.0219,-5.03174 0.4183,-10.05771 0.0606,-15.08203 6.312137,-0.4092 12.662504,-0.39329 19.031241,-0.39649 z m 17.357411,0.2168 c 6.046744,-1.25962 2.058237,7.52701 3.074287,11.11655 0.46856,10.77766 -1.37242,1.53202 -2.75007,-3.70444 0.18341,-2.05487 -3.851717,-8.12121 -0.324217,-7.41211 z m 30.865212,0.69727 c 0.50274,4.50816 -0.18103,2.33752 -1.7539,0.3457 -1.37524,-0.963 1.56885,-0.0576 1.7539,-0.3457 z m 28.394521,0.59179 c -1.72431,0.15546 -3.34822,4.98335 -2.73828,0.85157 -0.72807,-1.85134 1.97008,-0.46999 2.73828,-0.85157 z m 27.49805,0.0879 c -2.28666,0.7424 -3.24099,6.37813 -2.8418,1.11328 -0.88532,-2.03432 2.02378,-0.85241 2.8418,-1.11328 z m 25.18555,7.61524 c -0.75204,5.82586 0.90842,14.60169 -1.77539,6.38281 -4.42036,-1.55747 -15.44892,3.40053 -14.95762,-2.9997 -0.82115,-6.10408 9.37214,-1.81024 13.03198,-3.68664 0.79013,0.39524 3.88552,-1.07139 3.70103,0.30353 z m -29.91602,0.76172 c 3.27178,-0.95441 1.83133,5.87847 0.44336,1.18554 -0.10265,-0.47584 -2.07933,-1.55473 -0.44336,-1.18554 z m -25.4414,2.72265 c 0.45577,1.99874 4.56128,3.96124 -0.0684,3.0918 0.003,-0.97676 0.0303,-2.38604 0.0684,-3.0918 z"
       id="path8554-6"
       inkscape:connector-curvature="0" />
    <path
       style="fill:#2c83c2;fill-opacity:1;stroke:none;stroke-width:0.26458332px;stroke-linecap:butt;stroke-linejoin:miter;stroke-opacity:1"
       d="m 170.6018,238.36705 c 8.09661,-32.44469 -7.88108,-68.27257 0,-106.64054 -52.68534,10.03802 -97.384514,-5.73615 -151.14763,1.24185 -9.6698934,42.44256 12.478571,72.55 0.140351,106.26731 48.915451,-12.50676 95.641909,2.72318 151.007279,-0.86862 z"
       id="path8526"
       inkscape:connector-curvature="0"
       sodipodi:nodetypes="ccccc" />
    <path
       style="fill:#02aff0;fill-opacity:0.99607843;stroke:none;stroke-width:0.26458332px;stroke-linecap:butt;stroke-linejoin:miter;stroke-opacity:1"
       d="m 22.581732,235.68764 c 12.229009,-28.40152 -11.170212,-64.91325 -0.314516,-100.353 48.118984,-4.75394 97.741744,7.96664 144.726444,-0.93544 -6.81612,32.26292 6.11711,69.31355 0.13364,100.89424 -46.60608,3.1128 -94.985426,-11.9419 -144.545568,0.3942 z"
       id="path8528"
       inkscape:connector-curvature="0"
       sodipodi:nodetypes="ccccc" />
    <path
       style="opacity:1;fill:#2c84c2;fill-opacity:0.99607843;stroke:none;stroke-width:0.26458332px;stroke-linecap:butt;stroke-linejoin:miter;stroke-opacity:1"
       d="m 18.89881,251.92634 c -0.254848,-1.81335 2.025739,-2.93521 3.590774,-4.25223 21.678487,-3.42414 44.096642,-5.49222 63.783482,-12.56771 l 17.386904,1.22842 c 22.09372,6.28478 44.20206,12.99368 66.05134,12.18974 0,0 1.3809,0.56432 1.13393,0.85044 -5.90307,6.83878 -144.696588,-2.60695 -151.94643,2.55134 z"
       id="path8530"
       inkscape:connector-curvature="0"
       sodipodi:nodetypes="cccccsc" />
    <path
       style="opacity:1;fill:#70d4ff;fill-opacity:0.99607843;stroke:none;stroke-width:0.26458332px;stroke-linecap:butt;stroke-linejoin:miter;stroke-opacity:1"
       d="m 73.894344,220.08185 c 26.949596,2.99434 53.247236,5.55404 72.760416,3.59077 -23.75153,-23.7932 -46.40649,-49.50541 -66.145833,-80.31994 -6.419339,24.94887 1.714557,55.89457 -6.614583,76.72917 z"
       id="path8532"
       inkscape:connector-curvature="0"
       sodipodi:nodetypes="cccc" />
    <path
       style="fill:#ffffff;fill-opacity:0.99607843;stroke:none;stroke-width:0.26458332px;stroke-linecap:butt;stroke-linejoin:miter;stroke-opacity:1"
       d="m 70.114583,219.70387 c 7.702899,-22.02805 0.345601,-50.16128 6.236608,-75.78423 -30.323265,32.60452 -30.172314,54.5785 -40.82143,80.31994 12.137141,-2.93259 23.512051,-4.08665 34.584822,-4.53571 z"
       id="path8534"
       inkscape:connector-curvature="0"
       sodipodi:nodetypes="cccc" />
    <path
       style="fill:#02aff0;fill-opacity:0.99607843;stroke:none;stroke-width:0.26458332px;stroke-linecap:butt;stroke-linejoin:miter;stroke-opacity:1"
       d="m 56.507366,193.90709 -2.776907,4.59693 6.129673,-2.88747 z m -1.887077,1.03442 -3.729635,2.22172 1.823291,1.21166 z m 15.399946,0.85539 -6.2699,0.40876 6.137608,5.38417 c 0.137901,-1.88403 0.188587,-3.8118 0.132292,-5.79293 z m -8.930719,0.44649 c -2.039297,1.00343 -4.623673,2.27177 -7.218683,3.53725 l -0.02532,0.0641 5.347477,4.85241 c 0.921415,-3.94912 1.478913,-6.32049 1.971972,-8.4155 z m 1.441773,0.0418 -0.137978,0.009 -1.863968,8.40465 c 3.556555,-1.04939 7.048481,-2.01817 8.974645,-2.41742 z m -12.583729,1.45625 c -0.946322,1.22777 -1.675754,2.60563 -2.269112,4.05556 l 4.339786,-2.20193 z m 2.110422,2.67855 -5.033094,3.19492 2.14843,4.13853 c 0.726863,-1.84109 1.726951,-4.4566 2.884664,-7.33345 z m 0.846297,0.0454 -2.580074,7.37221 c 1.710407,-0.58027 4.994505,-1.56846 8.103457,-2.50647 z m 16.840006,2.73874 c -2.081165,0.4546 -5.690153,1.52003 -9.268169,2.6572 l 7.576281,6.87555 c 0.767334,-3.07602 1.359585,-6.23924 1.691888,-9.53275 z m -23.253361,2.15336 c -0.479068,1.74426 -0.853464,3.50808 -1.228349,5.18056 l 3.4432,-1.79317 z m 12.306226,1.04231 c -3.593648,1.16902 -7.216087,2.23171 -8.59423,2.82828 1.411817,2.19814 3.295211,4.55696 6.222722,6.60503 0.327014,-1.52002 1.441259,-5.43678 2.371508,-9.43331 z m 1.267105,0.39584 -2.143537,9.66298 9.220107,-3.32951 z"
       id="path8681"
       inkscape:connector-curvature="0"
       sodipodi:nodetypes="ccccccccccccccccccccccccccccccccccccccccccccccccccc" />
    <path
       style="fill:#f6ab4c;fill-opacity:0.99607843;stroke:none;stroke-width:0.26458332px;stroke-linecap:butt;stroke-linejoin:miter;stroke-opacity:1"
       d="m 142.59152,147.22694 c 0.89694,8.55071 1.60556,17.33107 12.5677,13.60714 9.40926,-9.24295 -2.86785,-21.57535 -12.5677,-13.60714 z"
       id="path8538"
       inkscape:connector-curvature="0"
       sodipodi:nodetypes="ccc" />
    <path
       style="fill:#ffffff;fill-opacity:0.99607843;stroke:none;stroke-width:0.26458332px;stroke-linecap:butt;stroke-linejoin:miter;stroke-opacity:1"
       d="m 119.53497,168.20462 c -4.81951,-2.36236 -3.48181,-7.37054 -0.28348,-8.50447 l 3.49628,-0.47247 c -0.36505,-7.06293 6.81044,-8.10608 10.01636,-6.23661 3.51002,-9.29762 15.26238,-6.70125 15.11905,3.3073 11.43328,1.98326 6.87254,10.98197 2.83483,12.00074 z"
       id="path8536"
       inkscape:connector-curvature="0"
       sodipodi:nodetypes="ccccccc" />
    <path
       style="opacity:1;fill:#fe9d23;fill-opacity:0.99607843;stroke:none;stroke-width:0.26458332px;stroke-linecap:butt;stroke-linejoin:miter;stroke-opacity:1"
       d="m 23.937676,253.93533 -8.084777,1.26969 c 0,0 -0.05067,2.34546 -0.103353,5.4131 l 8.164876,-0.52296 c 0.04711,-3.10788 0.078,-5.94087 0.02325,-6.15983 z m -0.05633,8.45478 c -3.475781,0.0729 -5.784764,0.1203 -8.164359,0.17105 -0.100622,6.52558 -0.172843,15.00997 0.135909,14.89418 0.655043,-0.24567 21.443659,-0.37036 21.782133,0.045 v -7.5954 l -13.89786,-0.13385 c 0,0 0.07855,-3.61965 0.144177,-7.38094 z m 13.753683,15.11019 v 0.0217 c 0.0066,-0.007 0.0058,-0.0145 0,-0.0217 z"
       id="path8540"
       inkscape:connector-curvature="0" />
    <path
       style="opacity:1;fill:#fe9d23;fill-opacity:0.99607843;stroke:none;stroke-width:0.26458332px;stroke-linecap:butt;stroke-linejoin:miter;stroke-opacity:1"
       d="m 58.482338,252.26515 -11.626165,0.401 -1.769917,6.74843 H 60.34579 Z m -13.999662,9.44903 -4.041098,15.40681 6.948929,0.13384 1.470195,-3.47472 7.884273,0.40101 0.668176,3.07371 7.617106,0.13333 -4.030761,-15.46572 -7.862569,-0.10232 1.60352,6.21409 -4.276225,-0.26768 1.469679,-5.94641 z"
       id="path8542"
       inkscape:connector-curvature="0" />
    <path
       style="opacity:1;fill:#fe9d23;fill-opacity:0.99607843;stroke:none;stroke-width:0.26458332px;stroke-linecap:butt;stroke-linejoin:miter;stroke-opacity:1"
       d="m 67.301953,252.66615 0.03772,6.91896 c 2.263111,0.0341 12.460853,0.18845 24.738025,0.3576 -0.37339,-3.33424 -2.606617,-6.4731 -5.398638,-6.74222 z m 0.04961,9.03098 -0.38824,15.32937 9.285367,0.11752 -0.393774,-9.37749 h 10.824146 c 3.346011,-0.88372 4.947529,-3.10413 5.350579,-5.55315 z"
       id="path8544"
       inkscape:connector-curvature="0"
       sodipodi:nodetypes="cccccccccccc" />
    <path
       style="opacity:1;fill:#fe9d23;fill-opacity:0.99607843;stroke:none;stroke-width:0.26458332px;stroke-linecap:butt;stroke-linejoin:miter;stroke-opacity:1"
       d="m 116.74699,260.36487 v -5.69439 l -21.648833,-0.53454 v 0 l 0.0353,6.00013 z"
       id="path8665"
       inkscape:connector-curvature="0"
       sodipodi:nodetypes="cccccc" />
    <path
       style="opacity:1;fill:#fe9d23;fill-opacity:0.99607843;stroke:none;stroke-width:0.26458332px;stroke-linecap:butt;stroke-linejoin:miter;stroke-opacity:1"
       d="m 95.146933,262.42688 0.08486,14.69424 21.782467,0.26727 -0.4009,-7.08264 -13.63075,-0.13363 -0.13363,-2.40543 h 13.89801 l 0.0668,-5.2223 z"
       id="path8661"
       inkscape:connector-curvature="0"
       sodipodi:nodetypes="ccccccccc" />
    <path
       style="opacity:1;fill:#fe9d23;fill-opacity:0.99607843;stroke:none;stroke-width:0.26458332px;stroke-linecap:butt;stroke-linejoin:miter;stroke-opacity:1"
       d="m 144.14211,255.07139 0.13364,5.21175 -24.05426,-0.26727 c -0.27753,-2.64597 1.0062,-4.67015 4.54359,-5.07812 z"
       id="path8548"
       inkscape:connector-curvature="0"
       sodipodi:nodetypes="ccccc" />
    <path
       style="opacity:1;fill:#fe9d23;fill-opacity:0.99607843;stroke:none;stroke-width:0.26458332px;stroke-linecap:butt;stroke-linejoin:miter;stroke-opacity:1"
       d="m 120.35513,262.4213 c -0.0474,2.72996 1.88407,4.34685 4.67722,5.47902 l 11.35895,0.13364 v 2.13816 l -15.90253,-0.0668 c 0,0 -0.26727,7.21627 0.26726,7.21627 0.53455,0 20.57976,-0.60135 20.57976,-0.60135 3.85513,-2.33861 5.26395,-11.55941 -0.93545,-14.03165 z"
       id="path8550"
       inkscape:connector-curvature="0"
       sodipodi:nodetypes="cccccsccc" />
    <path
       style="opacity:1;fill:#fe9d23;fill-opacity:0.99607843;stroke:none;stroke-width:0.26458332px;stroke-linecap:butt;stroke-linejoin:miter;stroke-opacity:1"
       d="m 172.33895,251.86414 -20.57962,2.80654 c -1.80849,1.02903 -3.97909,1.51501 -3.74189,5.61258 l -0.002,0.13849 7.48533,-0.13125 v -0.007 l 16.83774,-1.20303 z m -24.34373,10.54147 -0.11111,10.70632 c 1.52086,3.46871 3.35896,4.16532 6.68177,4.27623 l 17.5059,-0.26717 -0.53433,-7.21609 h -16.17007 l 0.10335,-7.41816 z"
       id="path8552"
       inkscape:connector-curvature="0" />
    <path
       style="fill:#1c80c6;fill-opacity:0.99607843;stroke:none;stroke-width:0.26458332px;stroke-linecap:butt;stroke-linejoin:miter;stroke-opacity:1"
       d="m 175.38095,246.06771 c -0.0339,0.3106 -3.44193,-0.76843 -0.80433,-3.50505 5.16469,-5.35859 4.25665,-21.85561 -2.21948,-32.78067 7.37975,9.13653 8.33807,23.09228 4.20835,33.35067 -1.3693,3.40137 5.40364,0.15993 7.36717,2.60432 l 2.31511,2.88206 -1.6064,-1.03943 c -2.28877,-2.04175 -6.20896,-1.34646 -9.26042,-1.5119 z"
       id="path8713"
       inkscape:connector-curvature="0"
       sodipodi:nodetypes="cscssccc" />
    <path
       style="opacity:1;fill:#1c80c6;fill-opacity:0.99607843;stroke:none;stroke-width:0.26458332px;stroke-linecap:butt;stroke-linejoin:miter;stroke-opacity:1"
       d="m 189.00408,247.2484 -6.11125,1.96267 2.20813,8.53281 7.94371,-2.6324 c -1.28196,-2.62097 -2.62357,-5.24211 -4.04059,-7.86308 z m -7.06623,2.26963 -5.87923,1.88825 c 0.11776,3.00582 0.1464,6.01172 0.11731,9.01754 l 7.85637,-2.27893 z m 12.21734,7.89667 c -2.39594,0.69418 -5.34619,1.5359 -8.22689,2.35438 0.80022,1.56643 3.15494,6.16663 3.38223,6.39393 0.26727,0.26726 -5.01107,1.13584 -5.01107,1.13584 l 0.74001,-7.27707 c -3.62432,1.02867 -7.02677,1.98861 -8.89507,2.51509 -0.0948,4.98327 -0.34154,9.96621 -0.65267,14.94947 l 8.88215,0.0946 0.0946,-3.02359 8.03206,-0.85059 1.22835,3.59099 8.97723,-0.0946 c -2.63053,-6.59607 -5.41155,-13.19239 -8.5509,-19.78846 z"
       id="path8554"
       inkscape:connector-curvature="0" />
  </g>
</svg>
