<?xml version="1.0" encoding="UTF-8" standalone="no"?>
<!-- Created with Inkscape (http://www.inkscape.org/) -->

<svg
   xmlns:dc="http://purl.org/dc/elements/1.1/"
   xmlns:cc="http://creativecommons.org/ns#"
   xmlns:rdf="http://www.w3.org/1999/02/22-rdf-syntax-ns#"
   xmlns:svg="http://www.w3.org/2000/svg"
   xmlns="http://www.w3.org/2000/svg"
   xmlns:sodipodi="http://sodipodi.sourceforge.net/DTD/sodipodi-0.dtd"
   xmlns:inkscape="http://www.inkscape.org/namespaces/inkscape"
   version="1.1"
   id="svg2"
   width="22.08"
   height="28"
   viewBox="0 0 22.08 28"
   sodipodi:docname="sbc.svg"
   inkscape:version="0.92.3 (2405546, 2018-03-11)">
  <metadata
     id="metadata8">
    <rdf:RDF>
      <cc:Work
         rdf:about="">
        <dc:format>image/svg+xml</dc:format>
        <dc:type
           rdf:resource="http://purl.org/dc/dcmitype/StillImage" />
        <dc:title />
      </cc:Work>
    </rdf:RDF>
  </metadata>
  <defs
     id="defs6">
    <filter
       inkscape:collect="always"
       style="color-interpolation-filters:sRGB"
       id="filter6522"
       x="-0.058459305"
       width="1.1169186"
       y="-0.046181328"
       height="1.0923627">
      <feGaussianBlur
         inkscape:collect="always"
         stdDeviation="0.51069882"
         id="feGaussianBlur6524" />
    </filter>
  </defs>
  <sodipodi:namedview
     pagecolor="#ffffff"
     bordercolor="#666666"
     borderopacity="1"
     objecttolerance="10"
     gridtolerance="10"
     guidetolerance="10"
     inkscape:pageopacity="0"
     inkscape:pageshadow="2"
     inkscape:window-width="1366"
     inkscape:window-height="705"
     id="namedview4"
     showgrid="false"
     showguides="false"
     inkscape:zoom="20.85965"
     inkscape:cx="12.434156"
     inkscape:cy="17.121939"
     inkscape:window-x="1592"
     inkscape:window-y="-8"
     inkscape:window-maximized="1"
     inkscape:current-layer="svg2"
     inkscape:pagecheckerboard="true"
     inkscape:snap-global="false" />
  <path
     style="fill:#ffffff;fill-opacity:1;stroke:none;stroke-width:0.18418953;stroke-linecap:butt;stroke-linejoin:miter;stroke-miterlimit:4;stroke-dasharray:none;stroke-opacity:1;filter:url(#filter6522)"
     d="M 2.8119945,0.54210438 C 2.2393739,0.54479588 1.6667623,0.54904563 1.0941549,0.55374767 1.095101,2.6299045 0.96646021,4.7310748 1.0473571,6.7917508 1.2265142,7.6219699 1.5339203,6.5888672 1.5442746,6.2086261 2.0577489,4.2446206 3.3080044,2.4374964 5.032583,1.3438565 5.369704,1.1061263 5.8095132,1.1173423 6.1335662,0.86229306 5.7498801,0.28486049 4.9467432,0.64901572 4.3728789,0.53907724 3.8525757,0.53825856 3.3322856,0.53986385 2.8119884,0.54210267 Z M 6.12193,1.2905304 C 3.8499349,3.1272394 1.6265648,5.6238228 1.527652,8.698144 c -0.096287,2.928005 2.1505952,5.374555 4.6844505,6.52424 3.9238405,1.878965 9.0102735,1.498562 12.3082255,-1.4622 0.152687,0.316758 0.500625,0.705655 -0.0056,0.86881 C 13.62698,18.080145 6.2236599,17.211272 2.2523671,12.732786 1.8255593,12.268146 1.4578674,11.754495 1.0789642,11.251303 c 0,5.27143 0,10.542858 0,15.814285 6.2815944,0 12.5631898,0 18.8447808,0 0.03102,-3.01749 -0.06157,-6.065508 0.04543,-9.064201 0.913534,-1.978183 1.464869,-4.349704 0.558894,-6.432456 0.922415,-1.107838 1.27605,-2.5687263 1.458894,-3.9675434 C 21.194821,8.4435193 20.675393,9.551003 19.70722,10.219248 17.684568,7.82655 14.28084,7.1983875 11.299648,7.5188376 9.0924708,7.7581596 6.9440157,8.5276574 5.08871,9.7474656 3.7508258,8.2039457 3.6664551,5.8827514 4.6440947,4.1333159 5.1097057,3.0700213 6.0180794,2.2808324 6.5883344,1.3073945 6.9282381,0.81626963 6.2761805,1.3156512 6.121929,1.2905302 Z m 4.762775,7.8244758 c 2.446117,-0.048739 4.992362,1.0249978 6.534407,2.9764718 C 13.783606,13.569652 9.2678335,13.204503 6.1028345,10.758329 6.0269259,10.593725 5.2485731,10.265802 5.8089737,10.196328 7.4298555,9.5382729 9.1392311,9.1159561 10.884705,9.1150062 Z m 5.148631,9.5460398 c 0.936765,0.02642 2.259479,0.227487 2.399433,1.399052 0.349196,0.699182 -0.573745,0.506266 -0.976166,0.45059 -0.05587,-0.593025 -0.515159,-1.195016 -1.172473,-1.042765 -0.96216,-0.06783 -1.375034,1.074772 -1.494755,1.852667 -0.196464,1.267092 -0.0065,2.997003 1.343394,3.545827 0.688678,0.193173 1.460012,0.136179 2.105327,-0.17721 0.148316,0.589723 0.01658,1.024291 -0.643172,1.05604 -1.283011,0.449247 -2.909544,0.03578 -3.505307,-1.268644 -0.805879,-1.673762 -0.665735,-3.967561 0.675308,-5.345867 0.343096,-0.311545 0.801823,-0.495336 1.268411,-0.46969 z m -11.5428544,0.05403 c 0.5248706,-0.01002 1.0294489,0.107511 1.5324809,0.241944 0.00374,0.416801 0.1412009,1.004532 -0.3928422,0.639212 -0.7518567,-0.316756 -2.0153197,-0.428469 -2.2976738,0.558411 -0.1154211,0.918172 0.9655005,1.34324 1.6340094,1.670102 1.2306561,0.41752 2.218839,1.92667 1.4328144,3.145532 -0.8071933,1.225024 -2.4875827,1.103864 -3.7302544,0.803382 -0.4968801,0.0906 -0.4295985,-1.226406 -0.1744145,-1.032518 0.7447605,0.42628 1.7375888,0.631137 2.5363585,0.282928 C 5.8842378,24.563659 5.666409,23.178591 4.7571105,22.92479 3.6664146,22.447672 2.2004007,21.801824 2.1923434,20.405896 c 0.0082,-1.185962 1.2786255,-1.70904 2.2981382,-1.690827 z m 6.1804544,0.15066 c 1.247522,-0.02181 1.975445,1.772867 1.002715,2.557781 -0.480267,0.290226 -1.380337,0.522398 -0.34912,0.733322 1.383495,0.495653 1.553443,2.731038 0.174703,3.341805 -1.031716,0.575059 -2.2735712,0.217018 -3.3951636,0.346968 0.013275,-2.326625 0.026551,-4.653251 0.039815,-6.979876 0.8423479,0 1.684696,0 2.5270456,0 z m -0.9675523,0.62058 c -0.749923,-0.160763 -0.5806345,0.552757 -0.5763402,1.095858 0.015531,0.578115 -0.2170658,1.407142 0.6173244,1.165719 0.6589461,0.08086 1.3066081,-0.423677 1.2570031,-1.117282 0.08861,-0.775442 -0.577105,-1.237068 -1.2979873,-1.144295 z M 9.5906764,22.40853 c -0.7873703,-0.157169 -0.3593431,0.838928 -0.4654956,1.323833 0.1142786,0.550422 -0.3634301,1.691955 0.5644631,1.429789 0.7402901,0.09005 1.6372781,-0.274906 1.6826781,-1.122407 C 11.609492,23.21508 10.901233,22.436842 10.082254,22.42879 9.9191972,22.40965 9.7547245,22.40483 9.5906764,22.40853 Z"
     id="path6491"
     inkscape:connector-curvature="0" />
  <path
     style="fill:#0d866d;fill-opacity:1;stroke:none;stroke-width:0.18496518;stroke-linecap:butt;stroke-linejoin:miter;stroke-miterlimit:4;stroke-dasharray:none;stroke-opacity:1"
     d="M 1.2615952,12.032437 V 26.956092 H 19.70573 V 17.299609 C 19.468184,16.322248 19.252109,15.645525 18.882057,14.741888 14.197396,18.337287 5.6783418,18.004978 1.2615952,12.032437 Z"
     id="path827"
     inkscape:connector-curvature="0" />
  <path
     style="fill:#ffffff;fill-opacity:1;stroke:none;stroke-width:0.18496518;stroke-linecap:butt;stroke-linejoin:miter;stroke-miterlimit:4;stroke-dasharray:none;stroke-opacity:1"
     d="m 15.954044,18.513443 c 0.119936,-4.31e-4 0.243168,0.0095 0.370291,0.0307 2.3728,0.129523 2.317491,1.322914 2.483664,2.349998 h -1.486586 c -0.249384,-0.527716 -0.134037,-1.194242 -1.018753,-1.085586 -1.590662,-0.291171 -2.090023,4.901832 0.332358,5.032353 0.7014,0.04608 1.157618,-0.01951 1.838814,-0.422675 l 0.06683,1.374595 c -6.518848,2.767893 -6.304657,-7.265982 -2.586618,-7.279385 z"
     id="path825"
     inkscape:connector-curvature="0" />
  <path
     style="fill:#ffffff;fill-opacity:1;stroke:none;stroke-width:0.18496518;stroke-linecap:butt;stroke-linejoin:miter;stroke-miterlimit:4;stroke-dasharray:none;stroke-opacity:1"
     d="m 4.74053,18.576665 c 0.574273,0.03518 1.0710438,0.184181 1.4847792,0.290813 v 1.347501 c -1.3322373,-0.625367 -2.3401576,-0.732893 -2.6841628,0.0091 -0.2667247,0.798207 1.1657412,1.324482 1.7340486,1.607608 2.6574332,1.323911 1.8330371,4.596192 -1.0873929,4.490463 -0.7683348,0.02077 -1.4813127,-0.09553 -2.1314348,-0.370291 v -1.66006 c 0.9327337,0.774704 1.7069399,0.825469 2.5884288,0.760453 0.8362085,-0.323029 0.8256488,-1.233705 0.2330128,-1.670829 -1.4115566,-0.69634 -2.8875452,-1.142233 -2.9785897,-2.872018 0.028615,-0.920102 0.6862363,-1.789032 2.241619,-1.923709 0.2083943,-0.01929 0.4082674,-0.02076 0.5996918,-0.009 z"
     id="path823"
     inkscape:connector-curvature="0" />
  <path
     style="fill:#ffffff;fill-opacity:1;stroke:none;stroke-width:0.18496518;stroke-linecap:butt;stroke-linejoin:miter;stroke-miterlimit:4;stroke-dasharray:none;stroke-opacity:1"
     d="m 7.8780741,18.721168 h 2.7943469 c 1.088513,0.14075 1.59738,0.803412 1.683471,1.74308 -0.04666,1.073109 -0.468583,1.241128 -1.065717,1.533549 1.421384,0.544374 1.377472,1.77088 1.398077,2.266907 -0.0618,1.150478 -1.261393,1.811088 -2.088083,1.902035 l -2.7654462,0.04696 z"
     id="path821"
     inkscape:connector-curvature="0" />
  <path
     style="fill:#0d866d;fill-opacity:1;stroke:none;stroke-width:0.18496518;stroke-linecap:butt;stroke-linejoin:miter;stroke-miterlimit:4;stroke-dasharray:none;stroke-opacity:1"
     d="m 9.9751895,19.830237 c -0.174643,-0.01581 -0.3843664,-0.0086 -0.6322057,0.01626 v 1.768369 c 0.6737802,-0.0047 1.3962642,0.09157 1.4071082,-0.988047 -0.03508,-0.506191 -0.250975,-0.749161 -0.7749025,-0.79658 z"
     id="path819"
     inkscape:connector-curvature="0" />
  <path
     style="fill:#0d866d;fill-opacity:1;stroke:none;stroke-width:0.18496518;stroke-linecap:butt;stroke-linejoin:miter;stroke-miterlimit:4;stroke-dasharray:none;stroke-opacity:1"
     d="m 9.7855275,22.75825 c -0.13632,-0.0042 -0.2846217,-5.89e-4 -0.4443499,0.01264 v 2.272327 c 0.8657634,-0.0061 1.7923644,0.117418 1.8062994,-1.26983 -0.01504,-0.553341 -0.407711,-0.986178 -1.3619495,-1.015141 z"
     id="path817"
     inkscape:connector-curvature="0" />
  <path
     style="fill:#0d7abf;fill-opacity:1;stroke:none;stroke-width:0.249703;stroke-linecap:butt;stroke-linejoin:miter;stroke-miterlimit:4;stroke-dasharray:none;stroke-opacity:1"
     d="M 6.2380244,1.4974852 C -1.5028534,9.7576505 9.7139155,15.588736 17.461545,12.403344 c 0.471849,0.535086 0.64136,0.90418 0.83419,1.319686 C 10.137725,20.818496 -6.2303068,11.527468 6.2380244,1.4974852 Z"
     id="path830"
     inkscape:connector-curvature="0"
     sodipodi:nodetypes="cccc" />
  <path
     style="fill:#f7c610;fill-opacity:1;stroke:none;stroke-width:0.18496518;stroke-linecap:butt;stroke-linejoin:miter;stroke-miterlimit:4;stroke-dasharray:none;stroke-opacity:1"
     d="m 1.1837617,6.7290903 0.088671,-5.91919782 c 0,0 4.764775,-0.043068 4.4335638,0.022558 C 3.7879824,1.2124872 1.310122,4.559833 1.1837617,6.7290903 Z"
     id="path832"
     inkscape:connector-curvature="0"
     sodipodi:nodetypes="ccsc" />
  <path
     style="fill:#d1d2d4;fill-opacity:1;stroke:none;stroke-width:0.18496518;stroke-linecap:butt;stroke-linejoin:miter;stroke-miterlimit:4;stroke-dasharray:none;stroke-opacity:1"
     d="M 3.9769068,10.763633 C 11.304787,6.89744 18.269841,8.8980185 20.01975,17.394057 23.996863,7.9501355 11.404552,4.6240999 3.9769068,10.763633 Z"
     id="path834"
     inkscape:connector-curvature="0"
     sodipodi:nodetypes="ccc" />
  <path
     style="fill:#0d7abf;fill-opacity:1;stroke:none;stroke-width:0.18496518;stroke-linecap:butt;stroke-linejoin:miter;stroke-miterlimit:4;stroke-dasharray:none;stroke-opacity:1"
     d="m 20.5141,11.29566 c 0.556114,-0.685324 0.984775,-1.9541315 1.130558,-2.815312 -0.480162,0.6059805 -1.004228,1.4660745 -1.725287,1.956146 0.278263,0.233043 0.439403,0.544167 0.594729,0.859166 z"
     id="path836"
     inkscape:connector-curvature="0"
     sodipodi:nodetypes="cccc" />
</svg>
