<?xml version="1.0" encoding="UTF-8" standalone="no"?>
<!-- Created with Inkscape (http://www.inkscape.org/) -->

<svg
   xmlns:dc="http://purl.org/dc/elements/1.1/"
   xmlns:cc="http://creativecommons.org/ns#"
   xmlns:rdf="http://www.w3.org/1999/02/22-rdf-syntax-ns#"
   xmlns:svg="http://www.w3.org/2000/svg"
   xmlns="http://www.w3.org/2000/svg"
   xmlns:sodipodi="http://sodipodi.sourceforge.net/DTD/sodipodi-0.dtd"
   xmlns:inkscape="http://www.inkscape.org/namespaces/inkscape"
   width="628.61627"
   height="232.14288"
   id="svg2"
   version="1.1"
   inkscape:version="0.92.3 (2405546, 2018-03-11)"
   sodipodi:docname="unesp.svg">
  <defs
     id="defs4">
    <filter
       inkscape:collect="always"
       style="color-interpolation-filters:sRGB"
       id="filter5322"
       x="-0.021632178"
       width="1.0432644"
       y="-0.048925512"
       height="1.097851">
      <feGaussianBlur
         inkscape:collect="always"
         stdDeviation="5.7783408"
         id="feGaussianBlur5324" />
    </filter>
  </defs>
  <sodipodi:namedview
     id="base"
     pagecolor="#ffffff"
     bordercolor="#666666"
     borderopacity="1.0"
     inkscape:pageopacity="0.0"
     inkscape:pageshadow="2"
     inkscape:zoom="0.7"
     inkscape:cx="392.88294"
     inkscape:cy="109.46749"
     inkscape:document-units="px"
     inkscape:current-layer="layer1"
     showgrid="false"
     inkscape:window-width="1366"
     inkscape:window-height="705"
     inkscape:window-x="1592"
     inkscape:window-y="-8"
     inkscape:window-maximized="1"
     fit-margin-top="0"
     fit-margin-left="0"
     fit-margin-right="0"
     fit-margin-bottom="0"
     inkscape:pagecheckerboard="true"
     inkscape:snap-global="false" />
  <metadata
     id="metadata7">
    <rdf:RDF>
      <cc:Work
         rdf:about="">
        <dc:format>image/svg+xml</dc:format>
        <dc:type
           rdf:resource="http://purl.org/dc/dcmitype/StillImage" />
        <dc:title></dc:title>
      </cc:Work>
    </rdf:RDF>
  </metadata>
  <g
     inkscape:label="Layer 1"
     inkscape:groupmode="layer"
     id="layer1"
     transform="translate(-13.12044,-291.86484)">
    <path
       style="fill:#ffffff;fill-opacity:1;fill-rule:evenodd;stroke:none;stroke-width:0.94491094;filter:url(#filter5322)"
       d="m 534.41408,321.43802 c -12.51471,21.63339 -24.92257,43.32892 -37.43286,64.96632 12.67804,0.10308 25.35745,-0.13557 38.03451,0.0997 5.9963,10.28226 11.76903,20.70409 17.95884,30.88678 12.65098,-0.0863 25.30376,0.15637 37.9533,-0.1255 12.65539,-21.93649 25.30817,-43.87449 37.96255,-65.81157 h -38.03636 c -6.02418,-10.30913 -11.80307,-20.76009 -18.01237,-30.9606 h -37.88134 l -0.47292,0.81805 z m -260.08304,54.22903 c -19.37709,-0.6751 -37.85887,13.56564 -41.91936,32.57544 -4.64475,17.77015 -3.08128,38.31502 7.71063,53.62185 16.60614,22.6615 54.00389,22.31582 71.94242,1.54286 5.5461,-6.23682 8.21977,-14.35702 10.07474,-22.34382 h -31.3297 c -2.35668,13.10542 -24.53351,13.47556 -27.09052,0.36541 -2.64446,-4.47064 0.0792,-4.8499 4.42373,-4.05278 h 53.42253 c 2.5584,-19.2476 -1.23704,-42.18356 -18.2246,-54.00572 -8.40202,-5.86916 -18.911,-7.91702 -29.00987,-7.70324 z m 90.55088,-0.004 c -16.13692,-0.55308 -34.67156,8.16815 -38.51618,25.08627 -3.43629,12.17664 1.64451,26.97539 13.73442,32.16758 12.05897,6.81865 26.64406,6.95877 38.9259,12.73231 3.13793,4.02497 -2.65945,6.39947 -5.9629,6.59592 -6.1232,0.95394 -15.3324,0.55353 -18.10649,-6.02935 -0.36458,-3.5889 -3.77114,-6.88808 -7.45963,-5.15272 h -24.68026 c -1.91041,16.13982 9.79635,32.10868 25.67132,35.40279 15.52826,4.10853 32.86828,3.08775 47.37472,-3.9845 15.94159,-8.60067 21.4431,-32.39455 9.61152,-46.4575 -11.04676,-11.67182 -28.57104,-11.29225 -42.63543,-16.6002 -2.24345,-1.05996 -8.8695,-2.66901 -5.17854,-5.90603 5.66044,-3.23694 14.47844,-2.70909 19.05694,2.25339 1.7193,2.69713 0.81363,7.09593 4.95155,7.71062 7.295,0.98515 14.63561,-0.91856 21.92304,0.40418 3.81008,0.71964 6.38665,-3.07227 5.0586,-6.50734 -0.87381,-16.09471 -15.0709,-28.91414 -30.66162,-30.72991 -4.32159,-0.77154 -8.72122,-1.04039 -13.10696,-0.98551 z m 102.37335,0.13472 c -8.38404,-0.45804 -17.10452,2.81535 -23.22229,7.969 -1.22798,-6.37461 -8.94178,-5.4422 -13.7252,-4.91465 -5.33856,0.61943 -13.16241,-1.24644 -16.92904,0.94491 v 131.76525 h 30.81111 c 0.16773,-13.28402 -0.33518,-28.02151 0.25099,-40.39864 15.99381,13.31656 42.98308,8.53102 53.41884,-9.51554 11.79166,-18.1426 12.057,-42.25225 4.20781,-61.96918 -6.12027,-13.44483 -19.5649,-24.20571 -34.81222,-23.88115 z m -273.35609,0.5998 c -7.72807,-0.0929 -15.79807,2.98663 -21.75324,7.04807 -1.61931,-6.55648 -9.86233,-4.83881 -14.82514,-4.54554 -5.47654,0.22243 -11.61856,-1.57095 -16.58393,1.57978 v 95.18132 h 31.45705 c 0.64985,-21.12541 -1.18874,-42.46064 0.95414,-63.41423 2.90743,-8.25117 15.98673,-11.90214 21.68865,-4.75962 4.20716,11.54369 0.78385,24.04082 1.9415,36.00628 v 32.16757 h 31.50318 c -0.57706,-24.93264 1.04111,-49.9504 -0.79911,-74.83067 -1.90303,-12.62183 -12.69565,-23.23756 -25.60118,-24.00849 -2.64419,-0.3536 -5.31582,-0.47183 -7.98192,-0.42447 z m -147.180949,4.26318 c 0.5225,24.28956 -1.04125,48.66381 0.78067,72.90024 1.91526,12.68853 12.79421,23.33544 25.75435,24.08046 10.19417,1.62571 21.48232,-0.94988 29.576459,-6.67897 1.59734,6.5688 9.86333,4.87716 14.82329,4.56953 5.47561,-0.22576 11.62004,1.5685 16.58946,-1.57608 v -95.18501 h -31.46075 c -0.63659,21.07614 1.18249,42.36568 -0.95967,63.26658 -2.931839,8.1893 -15.891209,11.83206 -21.690499,4.86482 -4.15753,-11.5454 -0.79425,-24.00738 -1.93043,-35.96567 v -32.16573 h -31.48288 v 0.94491 z m 229.305159,22.46193 c 6.61583,-0.75689 12.81751,4.47565 13.644,10.98459 -8.90505,-0.0662 -18.05364,0.14067 -26.81,-0.0941 1.1531,-6.12731 6.67885,-11.43203 13.166,-10.89046 z m 184.92017,0.81572 c 11.11931,-0.0395 15.2998,12.69998 15.00785,21.72188 0.66934,9.34209 -1.97246,22.5266 -12.91317,24.71532 -9.37115,1.99515 -17.71237,-6.02595 -18.13971,-15.14441 -1.60246,-9.81575 -1.32059,-22.04039 6.71773,-29.04125 2.71229,-1.82754 6.09914,-2.47342 9.3273,-2.25154 z"
       id="path3003-2"
       inkscape:connector-curvature="0"
       sodipodi:nodetypes="ccccccccccccccccccccccccccccccccccccccccccccccccccccccccccccccccccccccccccccccccccccccccccc" />
    <path
       inkscape:connector-curvature="0"
       style="fill:#2c2c2b;fill-rule:evenodd;stroke:none;stroke-width:0.94491094"
       d="m 130.35438,381.61362 v 89.33188 h -23.42233 v -10.60308 c -3.39223,4.31825 -7.375739,7.57465 -11.892179,9.7314 -4.51242,2.16149 -9.59168,3.25522 -15.22783,3.25522 -9.81692,0 -17.17541,-2.57488 -22.07276,-7.71283 -4.91614,-5.15331 -7.34941,-12.87441 -7.34941,-23.11016 v -60.89243 h 23.92385 v 53.99222 c 0,6.36397 1.0694,10.88065 3.199,13.60317 2.13006,2.72016 5.66296,4.06548 10.60095,4.06548 5.58123,0 10.0411,-1.68549 13.349229,-5.04583 3.30872,-3.36624 4.96645,-7.97032 4.96645,-13.77325 v -52.84179 z"
       id="path2991" />
    <path
       inkscape:connector-curvature="0"
       style="fill:#2c2c2b;fill-rule:evenodd;stroke:none;stroke-width:0.94491094"
       d="M 417.05098,506.84621 V 381.6963 h 22.74755 v 12.08896 c 3.45129,-5.27379 7.3207,-9.0865 11.55626,-11.50075 4.23557,-2.41188 9.25541,-3.61783 15.00401,-3.61783 10.99286,0 19.94116,4.34778 26.78468,13.01497 6.8447,8.69554 10.26882,20.10889 10.26882,34.21759 0,14.30359 -3.42412,25.91536 -10.26882,34.80579 -6.84352,8.89043 -15.67725,13.35278 -26.47286,13.35278 -5.69781,0 -10.77317,-1.20949 -15.2296,-3.61901 -4.46353,-2.41307 -8.1912,-5.91987 -11.13814,-10.51804 v 46.92545 z m 62.60154,-79.96426 c 0,-8.97902 -1.71029,-15.84734 -5.10252,-20.58961 -3.39223,-4.73637 -8.30577,-7.09628 -14.78314,-7.09628 -6.33562,0 -11.1901,2.35991 -14.49965,7.07029 -3.30955,4.71038 -4.96433,11.58225 -4.96433,20.6156 0,8.44159 1.741,14.97683 5.21591,19.57619 3.47963,4.59817 8.38845,6.89785 14.75596,6.89785 6.02854,0 10.73774,-2.35401 14.18902,-7.06675 3.45129,-4.71393 5.18875,-11.18893 5.18875,-19.40729 z"
       id="path2993" />
    <path
       inkscape:connector-curvature="0"
       style="fill:#2c2c2b;fill-rule:evenodd;stroke:none;stroke-width:0.94491094"
       d="m 350.51862,443.90688 c 0.55514,3.55286 2.12724,6.27775 4.74346,8.1593 3.05797,2.20873 7.65614,3.34026 13.79452,3.34026 4.65723,0 8.27033,-0.79726 10.82749,-2.35755 2.54536,-1.55201 3.8139,-3.7572 3.8139,-6.6191 0,-4.03831 -4.76707,-7.10809 -14.30241,-9.11485 -3.89657,-0.82325 -6.98643,-1.54611 -9.28257,-2.13195 -11.63539,-2.97293 -19.68485,-6.45965 -24.20625,-10.51922 -4.50723,-4.04304 -6.78801,-9.53652 -6.78801,-16.43555 0,-9.14083 3.319,-16.37176 9.89795,-21.70933 6.6002,-5.34347 15.54378,-8.02111 26.81657,-8.02111 11.94722,0 21.35617,2.65756 28.16071,7.96678 6.81989,5.31749 10.42945,12.79173 10.88301,22.43809 h -23.25544 c -0.16536,-3.78673 -1.59572,-6.70886 -4.31824,-8.80657 -2.69064,-2.07644 -6.47737,-3.11348 -11.30468,-3.11348 -4.54266,0 -7.903,0.67325 -10.12236,2.04928 -2.21345,1.37366 -3.33672,3.41821 -3.33672,6.16672 0,3.56232 5.93759,6.73722 17.83756,9.45502 2.71071,0.61773 4.87692,1.10791 6.47736,1.48351 11.89053,2.79221 20.0203,6.15373 24.37752,10.09519 4.33833,3.93319 6.53288,9.48218 6.53288,16.66114 0,10.15543 -3.55877,17.87654 -10.71765,23.19756 -7.14353,5.30686 -17.5529,7.96679 -31.1856,7.96679 -12.34054,0 -21.99044,-2.77804 -28.94381,-8.30341 -6.70886,-5.33048 -10.1885,-12.62283 -10.42827,-21.84752 z"
       id="path2995" />
    <path
       inkscape:connector-curvature="0"
       style="fill:#2c2c2b;fill-rule:evenodd;stroke:none;stroke-width:0.94491094"
       d="m 258.4465,416.95329 h 35.16959 c -0.2256,-6.03207 -1.80951,-10.61725 -4.79661,-13.77325 -2.98355,-3.15364 -7.29235,-4.71275 -12.87205,-4.71275 -5.1911,0 -9.29201,1.59454 -12.28738,4.76826 -2.97883,3.16427 -4.71156,7.74118 -5.21355,13.71774 z m 34.83414,26.95359 h 23.84129 c -2.41307,9.42194 -7.27463,16.79107 -14.58706,22.12863 -7.32661,5.34465 -16.24066,8.0223 -26.75752,8.0223 -12.92874,0 -23.18457,-4.33833 -30.74031,-13.01852 -7.55929,-8.67664 -11.33067,-20.44432 -11.33067,-35.30777 0,-14.61187 3.72295,-26.14923 11.16294,-34.58256 7.45299,-8.44987 17.64267,-12.65118 30.5726,-12.65118 13.7142,0 24.29838,4.1458 31.75019,12.45511 7.44117,8.29395 11.16294,20.1077 11.16294,35.45069 0,1.71266 0,2.97529 -0.0283,3.84225 -0.0272,0.84097 -0.11221,1.65477 -0.22442,2.41306 h -59.65577 c 0.33545,7.01243 2.04574,12.28503 5.13087,15.84616 3.08513,3.56113 7.54511,5.3293 13.35041,5.3293 4.12335,0 7.49432,-0.81026 10.09874,-2.41307 2.63748,-1.62052 4.71156,-4.12217 6.25412,-7.5144 z"
       id="path2997" />
    <path
       inkscape:connector-curvature="0"
       style="fill:#2c2c2b;fill-rule:evenodd;stroke:none;stroke-width:0.94491094"
       d="m 144.40875,470.9455 v -89.33069 h 23.42079 v 10.60308 c 3.36743,-4.32179 7.29235,-7.57583 11.83619,-9.73495 4.54266,-2.15912 9.6192,-3.25403 15.20126,-3.25403 9.87078,0 17.25171,2.55244 22.15816,7.68685 4.90645,5.13204 7.34786,12.81653 7.34786,23.1385 v 60.89124 h -23.92396 v -53.99221 c 0,-6.42303 -1.0961,-10.9964 -3.25404,-13.7142 -2.16148,-2.74969 -5.66592,-4.12453 -10.5452,-4.12453 -5.63876,0 -10.09874,1.6843 -13.37876,5.05055 -3.28002,3.36624 -4.93834,7.96323 -4.93834,13.77089 v 53.0095 z"
       id="path2999" />
    <path
       inkscape:connector-curvature="0"
       style="fill:#009fe0;fill-rule:evenodd;stroke:none;stroke-width:0.94491094"
       d="m 607.45999,379.91279 14.7784,-25.61654 h -29.54264 z m -17.86473,-23.81885 -14.76777,25.60473 h 29.54264 z m 0,54.79066 14.77487,-25.61535 h -29.54264 z m -17.86944,-23.82947 -14.76305,25.61536 h 29.54264 z m -3.08868,-1.78588 h -29.54382 l 14.77959,25.61535 z m -14.76423,-29.17531 -14.77959,25.60473 h 29.54382 z m 3.08986,-1.79769 14.76305,25.61654 14.77959,-25.61654 z m 14.76305,-29.17413 -14.76305,25.60237 h 29.54264 z m -17.85291,23.81767 14.76423,-25.60355 h -29.54382 z m -17.86827,-23.81767 -14.77486,25.60237 h 29.53909 z m 0,54.79067 14.76423,-25.61654 h -29.53909 l 14.77486,25.61654 -17.86826,-23.73026 -14.72408,25.51614 h 29.45287 l -14.72879,-25.51614 z"
       id="path3001" />
  </g>
</svg>
