<svg width="728.61627" height="292.14288" xmlns="http://www.w3.org/2000/svg">

 <metadata id="metadata7">image/svg+xml</metadata>
 <g>
  <title>background</title>
  <rect fill="none" id="canvas_background" height="402" width="582" y="-1" x="-1"/>
 </g>
 <g>
  <title>Layer 1</title>
  <g id="layer1">
   <path fill="#ffffff" fill-rule="evenodd" id="path2991" d="m208.05504,61.955382l0,94.54l-24.78787,0l0,-11.22125c-3.59,4.57 -7.80575,8.01625 -12.5855,10.29875c-4.7755,2.2875 -10.15088,3.445 -16.11563,3.445c-10.38925,0 -18.17675,-2.725 -23.35962,-8.1625c-5.20275,-5.45375 -7.77788,-13.625 -7.77788,-24.4575l0,-64.4425l25.31863,0l0,57.14c0,6.735 1.13175,11.515 3.3855,14.39625c2.25425,2.87875 5.99312,4.3025 11.219,4.3025c5.90662,0 10.6265,-1.78375 14.1275,-5.34c3.50162,-3.5625 5.256,-8.435 5.256,-14.57625l0,-55.9225l25.31987,0z"/>
   <path fill="#ffffff" fill-rule="evenodd" id="path2993" d="m511.46629,194.489132l0,-132.44625l24.07375,0l0,12.79375c3.6525,-5.58125 7.7475,-9.61625 12.23,-12.17125c4.4825,-2.5525 9.795,-3.82875 15.87875,-3.82875c11.63375,0 21.10375,4.60125 28.34625,13.77375c7.24375,9.2025 10.8675,21.28125 10.8675,36.2125c0,15.1375 -3.62375,27.42625 -10.8675,36.835c-7.2425,9.40875 -16.59125,14.13125 -28.01625,14.13125c-6.03,0 -11.40125,-1.28 -16.1175,-3.83c-4.72375,-2.55375 -8.66875,-6.265 -11.7875,-11.13125l0,49.66125l-24.6075,0zm66.25125,-84.62625c0,-9.5025 -1.81,-16.77125 -5.4,-21.79c-3.59,-5.0125 -8.79,-7.51 -15.645,-7.51c-6.705,0 -11.8425,2.4975 -15.345,7.4825c-3.5025,4.985 -5.25375,12.2575 -5.25375,21.8175c0,8.93375 1.8425,15.85 5.52,20.7175c3.6825,4.86625 8.8775,7.3 15.61625,7.3c6.38,0 11.36375,-2.49125 15.01625,-7.47875c3.6525,-4.98875 5.49125,-11.84125 5.49125,-20.53875z"/>
   <path fill="#ffffff" fill-rule="evenodd" id="path2995" d="m441.05504,129.880382c0.5875,3.76 2.25125,6.64375 5.02,8.635c3.23625,2.3375 8.1025,3.535 14.59875,3.535c4.92875,0 8.7525,-0.84375 11.45875,-2.495c2.69375,-1.6425 4.03625,-3.97625 4.03625,-7.005c0,-4.27375 -5.045,-7.5225 -15.13625,-9.64625c-4.12375,-0.87125 -7.39375,-1.63625 -9.82375,-2.25625c-12.31375,-3.14625 -20.8325,-6.83625 -25.6175,-11.1325c-4.77,-4.27875 -7.18375,-10.0925 -7.18375,-17.39375c0,-9.67375 3.5125,-17.32625 10.475,-22.975c6.985,-5.655 16.45,-8.48875 28.38,-8.48875c12.64375,0 22.60125,2.8125 29.8025,8.43125c7.2175,5.6275 11.0375,13.5375 11.5175,23.74625l-24.61125,0c-0.175,-4.0075 -1.68875,-7.1 -4.57,-9.32c-2.8475,-2.1975 -6.855,-3.295 -11.96375,-3.295c-4.8075,0 -8.36375,0.7125 -10.7125,2.16875c-2.3425,1.45375 -3.53125,3.6175 -3.53125,6.52625c0,3.77 6.28375,7.13 18.8775,10.00625c2.86875,0.65375 5.16125,1.1725 6.855,1.57c12.58375,2.955 21.1875,6.5125 25.79875,10.68375c4.59125,4.1625 6.91375,10.035 6.91375,17.6325c0,10.7475 -3.76625,18.91875 -11.3425,24.55c-7.56,5.61625 -18.57625,8.43125 -33.00375,8.43125c-13.06,0 -23.2725,-2.94 -30.63125,-8.7875c-7.1,-5.64125 -10.7825,-13.35875 -11.03625,-23.12125l25.43,0z"/>
   <path fill="#ffffff" fill-rule="evenodd" id="path2997" d="m343.61504,101.355382l37.22,0c-0.23875,-6.38375 -1.915,-11.23625 -5.07625,-14.57625c-3.1575,-3.3375 -7.7175,-4.9875 -13.6225,-4.9875c-5.49375,0 -9.83375,1.6875 -13.00375,5.04625c-3.1525,3.34875 -4.98625,8.1925 -5.5175,14.5175zm36.865,28.525l25.23125,0c-2.55375,9.97125 -7.69875,17.77 -15.4375,23.41875c-7.75375,5.65625 -17.1875,8.49 -28.3175,8.49c-13.6825,0 -24.53625,-4.59125 -32.5325,-13.7775c-8,-9.1825 -11.99125,-21.63625 -11.99125,-37.36625c0,-15.46375 3.94,-27.67375 11.81375,-36.59875c7.8875,-8.9425 18.67125,-13.38875 32.355,-13.38875c14.51375,0 25.715,4.3875 33.60125,13.18125c7.875,8.7775 11.81375,21.28 11.81375,37.5175c0,1.8125 0,3.14875 -0.03,4.06625c-0.0288,0.89 -0.11875,1.75125 -0.2375,2.55375l-63.13375,0c0.355,7.42125 2.165,13.00125 5.43,16.77c3.265,3.76875 7.985,5.64 14.12875,5.64c4.36375,0 7.93125,-0.8575 10.6875,-2.55375c2.79125,-1.715 4.98625,-4.3625 6.61875,-7.9525z"/>
   <path fill="#ffffff" fill-rule="evenodd" id="path2999" d="m222.92879,158.495382l0,-94.53875l24.78625,0l0,11.22125c3.56375,-4.57375 7.7175,-8.0175 12.52625,-10.3025c4.8075,-2.285 10.18,-3.44375 16.0875,-3.44375c10.44625,0 18.2575,2.70125 23.45,8.135c5.1925,5.43125 7.77625,13.56375 7.77625,24.4875l0,64.44125l-25.31875,0l0,-57.14c0,-6.7975 -1.16,-11.6375 -3.44375,-14.51375c-2.2875,-2.91 -5.99625,-4.365 -11.16,-4.365c-5.9675,0 -10.6875,1.7825 -14.15875,5.345c-3.47125,3.5625 -5.22625,8.4275 -5.22625,14.57375l0,56.1l-25.31875,0z"/>
   <path fill="#009fe0" fill-rule="evenodd" id="path3001" d="m712.97629,60.155382l15.64,-27.11l-31.265,0l15.625,27.11zm-18.90625,-25.2075l-15.62875,27.0975l31.265,0l-15.63625,-27.0975zm0,57.985l15.63625,-27.10875l-31.265,0l15.62875,27.10875zm-18.91125,-25.21875l-15.62375,27.10875l31.265,0l-15.64125,-27.10875zm-3.26875,-1.89l-31.26625,0l15.64125,27.10875l15.625,-27.10875zm-15.625,-30.87625l-15.64125,27.0975l31.26625,0l-15.625,-27.0975zm3.27,-1.9025l15.62375,27.11l15.64125,-27.11l-31.265,0zm15.62375,-30.875l-15.62375,27.095l31.265,0l-15.64125,-27.095zm-18.89375,25.20625l15.625,-27.09625l-31.26625,0l15.64125,27.09625zm-18.91,-25.20625l-15.63625,27.095l31.26125,0l-15.625,-27.095zm0,57.985l15.625,-27.11l-31.26125,0l15.63625,27.11l-18.91,-25.11375l-15.5825,27.00375l31.17,0l-15.5875,-27.00375l18.91,25.11375z"/>
   <path fill="#ffffff" fill-rule="evenodd" id="path3003" d="m587.34504,270.705382l0,-4.335l4.56625,0l0,4.26625c0,1.37375 -0.425,2.53125 -1.275,3.465c-0.855,0.9325 -1.9475,1.42875 -3.29125,1.495l0,-1.68625c0.83,-0.19625 1.45125,-0.54 1.8525,-1.03875c0.4,-0.49625 1.41484,-1.89004 0.6,-1.97l0,-0.19625l-2.4525,0zm7.2025,0l0,-4.335l4.56125,0l0,4.26625c0,1.37375 -0.42125,2.53125 -1.27125,3.465c-0.85625,0.9325 -1.9525,1.42875 -3.29,1.495l0,-1.68625c0.81625,-0.19625 1.43,-0.54 1.83875,-1.035c0.40875,-0.48375 0.6125,-1.125 0.6125,-1.91l0,-0.26l-2.45125,0zm-33.67625,7.735c0,-3.8925 1.0625,-6.98 3.18625,-9.2675c2.1225,-2.285 4.9775,-3.4275 8.58125,-3.4275c3.59875,0 6.4625,1.1425 8.5975,3.43375c2.135,2.29125 3.2025,5.37875 3.2025,9.26125c0,3.88625 -1.0675,6.97625 -3.2025,9.265c-2.135,2.29125 -4.99875,3.43625 -8.5975,3.43625c-3.60375,0 -6.45875,-1.145 -8.58125,-3.43625c-2.12375,-2.28875 -3.18625,-5.37875 -3.18625,-9.265zm5.05375,0c0,2.6525 0.5925,4.71375 1.7725,6.1825c1.18,1.47 2.82625,2.20125 4.94125,2.20125c2.1425,0 3.80625,-0.73125 4.995,-2.20125c1.18875,-1.46875 1.78125,-3.53 1.78125,-6.1825c0,-2.6475 -0.5925,-4.7075 -1.78125,-6.1775c-1.18875,-1.47 -2.8525,-2.20125 -4.995,-2.20125c-2.115,0 -3.76125,0.73125 -4.94125,2.195c-1.18,1.46375 -1.7725,3.52625 -1.7725,6.18375zm-28.91,12.0325l0,-24.1025l4.99125,0l0,8.9825l9.94625,0l0,-8.9825l4.99125,0l0,24.1025l-4.99125,0l0,-10.68625l-9.94625,0l0,10.68625l-4.99125,0zm-19.43875,0l0,-24.1025l4.96125,0l0,19.65125l11.76375,0l0,4.45125l-16.725,0zm-10.12125,0l0,-24.1025l4.9625,0l0,24.1025l-4.9625,0zm-20.2075,0l0,-24.1025l16.82625,0l0,4.18875l-11.935,0l0,5.46875l10.45875,0l0,4.18875l-10.45875,0l0,10.25625l-4.89125,0zm-26.42,-24.1025l5.725,0l8.69125,24.1025l-5.20375,0l-1.64,-4.95625l-9.33625,0l-1.58875,4.95625l-5.22,0l8.5725,-24.1025zm2.88125,4.825l-3.34,10.2625l6.6925,0l-3.3525,-10.2625zm-22.6875,19.2775l0,-19.79625l-7.1525,0l0,-4.30625l19.21125,0l0,4.30625l-7.09625,0l0,19.79625l-4.9625,0zm-15.11625,0l0,-24.1025l4.96125,0l0,24.1025l-4.96125,0zm-24.34,-24.16875l5.00375,0l0,15.12c0,1.86375 0.37125,3.2275 1.11375,4.0825c0.7425,0.855 1.9225,1.28375 3.5325,1.28375c1.63875,0 2.82625,-0.425 3.57625,-1.2775c0.7475,-0.85125 1.1225,-2.2125 1.1225,-4.08875l0,-15.12l4.9625,0l0,15.6625c0,2.95375 -0.83,5.22 -2.48125,6.80125c-1.65625,1.58125 -4.0325,2.37375 -7.1425,2.37375c-3.1325,0 -5.52625,-0.7875 -7.19,-2.3625c-1.66375,-1.575 -2.4975,-3.8475 -2.4975,-6.8125l0,-15.6625zm-9.17375,23.1675c-0.82125,0.54875 -1.7675,0.96125 -2.85625,1.2475c-1.08375,0.28375 -2.26875,0.4225 -3.54375,0.4225c-3.6025,0 -6.46375,-1.145 -8.5825,-3.43625c-2.12625,-2.28875 -3.185,-5.37875 -3.185,-9.265c0,-3.8925 1.05875,-6.98 3.185,-9.2675c2.11875,-2.285 4.98,-3.4275 8.5825,-3.4275c3.5975,0 6.4625,1.1425 8.5975,3.43375c2.135,2.29625 3.19875,5.37875 3.19875,9.2675c0,1.70375 -0.2175,3.255 -0.655,4.66875c-0.43375,1.415 -1.075,2.65375 -1.93125,3.70875l2.61875,2.5025l-2.68,2.81625l-2.74875,-2.67125zm-3.49,-3.28375l-2.55125,-2.485l2.71875,-2.81625l2.6175,2.55375c0.35125,-0.655 0.6175,-1.40375 0.80125,-2.24625c0.18375,-0.8375 0.28,-1.7525 0.28,-2.7475c0,-2.65375 -0.5925,-4.71375 -1.78125,-6.18375c-1.1925,-1.47 -2.85625,-2.20125 -4.995,-2.20125c-2.11375,0 -3.76125,0.73125 -4.94125,2.195c-1.18125,1.46375 -1.7725,3.52625 -1.7725,6.18375c0,2.6525 0.59125,4.71375 1.7725,6.1825c1.18,1.47 2.8275,2.20125 4.94125,2.20125c0.54125,0 1.0625,-0.055 1.54625,-0.16125c0.4875,-0.1125 0.93875,-0.26875 1.36375,-0.475zm-37.0925,-3.16125l4.89125,0c0.18625,1.3175 0.7275,2.29375 1.62,2.93875c0.895,0.635 2.18625,0.955 3.8775,0.955c1.44125,0 2.52375,-0.2575 3.2575,-0.7725c0.73,-0.5075 1.0925,-1.2675 1.0925,-2.2725c0,-1.4625 -2.09875,-2.67 -6.29875,-3.63125c-0.0575,-0.01 -0.10625,-0.0213 -0.145,-0.0338c-0.11125,-0.0212 -0.28,-0.06 -0.51,-0.11625c-2.25,-0.4925 -3.85375,-1.03875 -4.80875,-1.65375c-0.85375,-0.5425 -1.50125,-1.2775 -1.95,-2.20125c-0.44625,-0.92 -0.66875,-2.00375 -0.66875,-3.26125c0,-2.345 0.79875,-4.145 2.39,-5.39625c1.5925,-1.24375 3.8925,-1.87 6.90375,-1.87c2.815,0 5.0175,0.66375 6.6,1.99375c1.58875,1.33375 2.4275,3.20625 2.515,5.63125l-4.7625,0c-0.0913,-1.17 -0.5375,-2.0575 -1.3425,-2.66625c-0.80875,-0.60875 -1.96,-0.915 -3.45125,-0.915c-1.3025,0 -2.3025,0.25125 -3.005,0.76c-0.70375,0.50625 -1.05625,1.2275 -1.05625,2.16625c0,1.28 1.37,2.23 4.105,2.865c0.745,0.175 1.32375,0.30875 1.73875,0.40625c1.7525,0.44875 3.00375,0.80125 3.73625,1.0475c0.735,0.25 1.3775,0.53125 1.9275,0.8375c0.97625,0.54625 1.71375,1.2675 2.205,2.16625c0.4925,0.89875 0.73875,1.97875 0.73875,3.23375c0,2.51 -0.8425,4.45125 -2.535,5.83125c-1.69375,1.38125 -4.0725,2.0725 -7.15,2.0725c-3.0325,0 -5.415,-0.705 -7.13375,-2.11c-1.72625,-1.40625 -2.6525,-3.40875 -2.78125,-6.005l0,0.00005zm-20.77875,7.44625l0,-24.1025l17.505,0l0,4.18875l-12.6125,0l0,5.1375l11.535,0l0,4.12375l-11.535,0l0,6.20125l13.205,0l0,4.45125l-18.0975,0zm-29.22375,0l0,-24.1025l7.33375,0l4.7925,18.34125l4.73,-18.34125l7.3625,0l0,24.1025l-4.6475,0l0,-19.44l-4.89375,19.44l-5.07,0l-4.96,-19.44l0,19.44l-4.6475,0zm-31.4025,0l0,-24.1025l17.50625,0l0,4.18875l-12.61375,0l0,5.1375l11.53625,0l0,4.12375l-11.53625,0l0,6.20125l13.205,0l0,4.45125l-18.0975,0zm-24.36375,0l0,-24.1025l9.44,0c3.69625,0 6.45625,0.99875 8.27125,2.99375c1.81625,1.99375 2.72625,5.02125 2.72625,9.0825c0,2.2 -0.335,4.145 -1.005,5.825c-0.67,1.68125 -1.6475,3.03375 -2.9225,4.05625c-0.95875,0.765 -2.04875,1.3125 -3.27125,1.64625c-1.22375,0.33 -2.935,0.49875 -5.14,0.49875l-8.09875,0zm4.85875,-4.35125l3.9775,0c2.30125,0 3.97,-0.605 5,-1.81c1.0325,-1.20125 1.5475,-3.16 1.5475,-5.865c0,-2.69125 -0.48125,-4.67625 -1.44125,-5.9375c-0.96125,-1.2675 -2.45875,-1.9 -4.5025,-1.9l-4.58125,0l0,15.5125zm-41.86375,-7.68125c0,-3.8925 1.06125,-6.98 3.18375,-9.2675c2.12375,-2.285 4.9825,-3.4275 8.585,-3.4275c3.5975,0 6.4625,1.1425 8.59625,3.43375c2.13375,2.29125 3.2,5.37875 3.2,9.26125c0,3.88625 -1.06625,6.97625 -3.2,9.265c-2.13375,2.29125 -4.99875,3.43625 -8.59625,3.43625c-3.6025,0 -6.46125,-1.145 -8.585,-3.43625c-2.1225,-2.28875 -3.18375,-5.37875 -3.18375,-9.265zm5.055,0c0,2.6525 0.59125,4.71375 1.77,6.1825c1.17875,1.47 2.82625,2.20125 4.94375,2.20125c2.14,0 3.80375,-0.73125 4.99375,-2.20125c1.18875,-1.46875 1.78125,-3.53 1.78125,-6.1825c0,-2.6475 -0.5925,-4.7075 -1.78125,-6.1775c-1.19,-1.47 -2.85375,-2.20125 -4.99375,-2.20125c-2.1175,0 -3.765,0.73125 -4.94375,2.195c-1.17875,1.46375 -1.77,3.52625 -1.77,6.18375zm-14.13,12.0325l0,-24.1025l4.95875,0l0,24.1025l-4.95875,0zm-19.60737,0l0,-24.1025l4.95962,0l0,19.65125l11.764,0l0,4.45125l-16.72362,0zm-9.69563,-32.26875l-5.123,6.055l-2.32325,0l3.22325,-6.055l4.223,0zm-14.4785,8.1l5.00425,0l0,15.12c0,1.86375 0.3685,3.2275 1.11175,4.0825c0.74313,0.855 1.922,1.28375 3.53613,1.28375c1.63637,0 2.82562,-0.425 3.57425,-1.2775c0.74862,-0.85125 1.12312,-2.2125 1.12312,-4.08875l0,-15.12l4.95963,0l0,15.6625c0,2.95375 -0.82738,5.22 -2.48013,6.80125c-1.65337,1.58125 -4.033,2.37375 -7.14362,2.37375c-3.12825,0 -5.523,-0.7875 -7.189,-2.3625c-1.66375,-1.575 -2.12082,-3.87138 -2.49638,-6.8125l0,-15.6625zm-20.06875,15.18l4.79188,0l0,2.9175c0,0.83625 0.25175,1.4775 0.75475,1.92c0.50162,0.4425 1.223,0.665 2.1605,0.665c1.02275,0 1.7375,-0.26875 2.14537,-0.805c0.4025,-0.52875 0.77758,-1.54658 0.60338,-3.01l0,-16.80125l4.96012,0l0,17.03c0,1.52375 -0.0895,2.6475 -0.26925,3.36375c-0.18225,0.715 -0.47937,1.34375 -0.89212,1.8925c-0.63175,0.805 -1.502,1.42375 -2.60288,1.85c-1.09962,0.4225 -2.39662,0.635 -3.87687,0.635c-1.36288,0 -2.56963,-0.18375 -3.62088,-0.55875c-1.04212,-0.36625 -1.92025,-0.92125 -2.61975,-1.65375c-0.55137,-0.585 -0.94837,-1.24375 -1.18325,-1.97125c-0.233,-0.72625 0.86376,-2.44585 -0.351,-3.59l0,-1.88375zm-2.11812,-10.875l0,4.31875l-4.56313,0l0,-4.2175c0,-1.39125 0.42425,-2.54625 1.27388,-3.47375c0.854,-0.92875 1.94937,-1.425 3.28925,-1.49125l0,1.6675c-0.82663,0.19625 -1.44575,0.5425 -1.84825,1.04125c-0.4025,0.49625 0.19412,1.86133 -0.60275,1.945l0,0.21l2.451,0zm7.19987,0l0,4.31875l-4.5625,0l0,-4.2175c0,-1.39125 0.42425,-2.54625 1.27275,-3.47375c0.8545,-0.92875 1.9505,-1.425 3.28975,-1.49125l0,1.6675c-0.81512,0.19625 -1.43,0.53875 -1.83787,1.02375c-0.40738,0.48625 0.15519,1.7866 -0.61363,1.89375l0,0.27875l2.4515,0zm-79.763,-50.00875l5.00488,0l0,15.12c0,1.86625 0.36925,3.22875 1.11237,4.08375c0.74313,0.855 1.92213,1.285 3.53488,1.285c1.63762,0 2.82625,-0.42625 3.5755,-1.27875c0.74862,-0.85 1.12325,-2.21125 1.12325,-4.09l0,-15.12l4.95887,0l0,15.6625c0,2.95625 -0.82612,5.2225 -2.47887,6.8025c-1.65338,1.5825 -4.0335,2.375 -7.14425,2.375c-3.12825,0 -5.52413,-0.78875 -7.189,-2.3625c-1.66363,-1.57625 -2.49763,-3.84875 -2.49763,-6.815l0,-15.6625zm24.17488,24.17l0,-24.10125l5.19062,0l9.78538,16.56l0,-16.56l4.89237,0l0,24.10125l-5.12175,0l-9.85375,-16.5625l0,16.5625l-4.89287,0zm25.00275,0l0,-24.10125l4.9595,0l0,24.10125l-4.9595,0zm15.78387,0l-8.31162,-24.10125l5.49575,0l5.12212,18.02875l5.2225,-18.02875l5.42875,0l-8.20875,24.10125l-4.74875,0zm15.2825,0l0,-24.10125l17.505,0l0,4.18875l-12.6125,0l0,5.1375l11.53625,0l0,4.12125l-11.53625,0l0,6.20125l13.205,0l0,4.4525l-18.0975,0zm26.845,-13.56125l5.83,0c1.2625,0 2.19125,-0.2575 2.7875,-0.7725c0.5925,-0.5125 0.88875,-1.3175 0.88875,-2.42375c0,-1.045 -0.29125,-1.8375 -0.86625,-2.37875c-0.57625,-0.5425 -1.44125,-0.8125 -2.58,-0.8125l-6.06,0l0,6.3875zm-4.96125,13.56125l0,-24.10125l11.69,0c2.62625,0 4.57625,0.5625 5.83875,1.685c1.2675,1.12375 1.8975,2.845 1.8975,5.155c0,1.47 -0.30625,2.69875 -0.92625,3.6825c-0.61375,0.9825 -1.5025,1.65375 -2.65875,2.01c1.05,0.375 1.7925,0.93875 2.23875,1.70375c0.4425,0.765 0.69375,1.955 0.76,3.56875l0.10125,2.84375c0,0.0213 0,0.055 0,0.10125c0.0275,1.43625 0.34,2.31375 0.93125,2.61375l0,0.7375l-5.43875,0c-0.17375,-0.34125 -0.30125,-0.75375 -0.3975,-1.2525c-0.0887,-0.49625 -0.15,-1.08875 -0.1675,-1.77625l-0.0675,-2.535c-0.055,-1.49125 -0.33375,-2.5025 -0.8425,-3.02125c-0.50875,-0.52625 -1.42375,-0.78875 -2.7425,-0.78875l-5.255,0l0,9.37375l-4.96125,0zm22.8225,-7.445l4.8925,0c0.185,1.3175 0.7275,2.29375 1.62,2.93625c0.895,0.6375 2.185,0.95625 3.8775,0.95625c1.44125,0 2.52375,-0.25625 3.2575,-0.77125c0.73125,-0.50875 1.0925,-1.2675 1.0925,-2.2725c0,-1.465 -2.1,-2.67 -6.3,-3.63125c-0.0563,-0.0125 -0.10625,-0.0213 -0.145,-0.0337c-0.11125,-0.0213 -0.27875,-0.0612 -0.5075,-0.1175c-2.25125,-0.49125 -3.85625,-1.0375 -4.81,-1.655c-0.855,-0.54 -1.5025,-1.2775 -1.95,-2.19875c-0.44625,-0.92 -0.66875,-2.00375 -0.66875,-3.26375c0,-2.34375 0.79875,-4.1425 2.39,-5.39375c1.59125,-1.245 3.8925,-1.87 6.90375,-1.87c2.815,0 5.01625,0.6625 6.6025,1.99375c1.58625,1.33375 2.42375,3.20625 2.5125,5.63125l-4.76375,0c-0.09,-1.17 -0.53625,-2.05875 -1.34125,-2.6675c-0.80875,-0.60875 -1.96,-0.915 -3.45125,-0.915c-1.3025,0 -2.30125,0.2525 -3.005,0.75875c-0.705,0.50875 -1.05625,1.2275 -1.05625,2.16875c0,1.2775 1.36875,2.22875 4.10625,2.865c0.7425,0.1725 1.3225,0.30875 1.73625,0.40625c1.75375,0.4475 3.00375,0.8 3.7375,1.04625c0.73625,0.25 1.37875,0.53 1.9275,0.83875c0.97625,0.54625 1.71375,1.2675 2.205,2.16625c0.49125,0.89875 0.73875,1.97625 0.73875,3.23375c0,2.5075 -0.845,4.45125 -2.53625,5.83125c-1.69375,1.38 -4.0725,2.0725 -7.15,2.0725c-3.03125,0 -5.4125,-0.705 -7.1325,-2.1125c-1.7275,-1.405 -2.65375,-3.40625 -2.7825,-6.0025l0,-0.00005zm23.6275,7.445l0,-24.10125l4.96,0l0,24.10125l-4.96,0zm14.98,-4.35125l3.97875,0c2.3,0 3.96875,-0.60375 4.99625,-1.80875c1.03375,-1.20125 1.54875,-3.1625 1.54875,-5.865c0,-2.69375 -0.48125,-4.6775 -1.44125,-5.93875c-0.96,-1.2675 -2.45875,-1.89875 -4.50375,-1.89875l-4.57875,0l0,15.51125zm-4.85875,4.35125l0,-24.10125l9.4375,0c3.7,0 6.45875,0.99875 8.27375,2.99375c1.81625,1.99375 2.72625,5.02125 2.72625,9.0825c0,2.19875 -0.33625,4.1425 -1.00625,5.8225c-0.66875,1.6825 -1.6475,3.03625 -2.9225,4.05625c-0.95875,0.765 -2.04875,1.3125 -3.2725,1.64875c-1.2225,0.32875 -2.9325,0.4975 -5.1375,0.4975l-8.09875,0zm33.07125,-19.27625l-3.34,10.26125l6.69125,0l-3.35125,-10.26125zm-2.8825,-4.825l5.72625,0l8.69125,24.10125l-5.20625,0l-1.63625,-4.955l-9.33875,0l-1.5875,4.955l-5.2225,0l8.57375,-24.10125zm21.7625,19.75l3.97625,0c2.3025,0 3.97125,-0.60375 5,-1.80875c1.0325,-1.20125 1.5475,-3.1625 1.5475,-5.865c0,-2.69375 -0.48,-4.6775 -1.44125,-5.93875c-0.96125,-1.2675 -2.45875,-1.89875 -4.5025,-1.89875l-4.58,0l0,15.51125zm-4.86,4.35125l0,-24.10125l9.44,0c3.6975,0 6.45625,0.99875 8.27125,2.99375c1.81625,1.99375 2.7275,5.02125 2.7275,9.0825c0,2.19875 -0.33625,4.1425 -1.00625,5.8225c-0.67,1.6825 -1.6475,3.03625 -2.9225,4.05625c-0.95875,0.765 -2.04875,1.3125 -3.27125,1.64875c-1.22375,0.32875 -2.935,0.4975 -5.13875,0.4975l-8.1,0zm24.36375,0l0,-24.10125l17.50625,0l0,4.18875l-12.6125,0l0,5.1375l11.535,0l0,4.12125l-11.535,0l0,6.20125l13.20375,0l0,4.4525l-18.0975,0zm31.4025,0l0,-24.10125l17.505,0l0,4.18875l-12.61125,0l0,5.1375l11.535,0l0,4.12125l-11.535,0l0,6.20125l13.20375,0l0,4.4525l-18.0975,0zm20.78,-7.445l4.8925,0c0.18375,1.3175 0.725,2.29375 1.62,2.93625c0.8925,0.6375 2.1825,0.95625 3.87625,0.95625c1.44,0 2.52375,-0.25625 3.25625,-0.77125c0.73125,-0.50875 1.095,-1.2675 1.095,-2.2725c0,-1.465 -2.10125,-2.67 -6.30125,-3.63125c-0.0562,-0.0125 -0.1075,-0.0213 -0.14625,-0.0337c-0.11,-0.0213 -0.27875,-0.0612 -0.5075,-0.1175c-2.25125,-0.49125 -3.85375,-1.0375 -4.80875,-1.655c-0.855,-0.54 -1.5025,-1.2775 -1.95125,-2.19875c-0.44625,-0.92 -0.66875,-2.00375 -0.66875,-3.26375c0,-2.34375 0.79875,-4.1425 2.39,-5.39375c1.5925,-1.245 3.8925,-1.87 6.905,-1.87c2.81375,0 5.015,0.6625 6.60125,1.99375c1.58625,1.33375 2.42375,3.20625 2.515,5.63125l-4.76625,0c-0.0888,-1.17 -0.53625,-2.05875 -1.34,-2.6675c-0.81,-0.60875 -1.96,-0.915 -3.4525,-0.915c-1.3,0 -2.30125,0.2525 -3.00375,0.75875c-0.70375,0.50875 -1.05625,1.2275 -1.05625,2.16875c0,1.2775 1.3675,2.22875 4.105,2.865c0.74375,0.1725 1.32375,0.30875 1.7375,0.40625c1.75375,0.4475 3.005,0.8 3.7375,1.04625c0.73625,0.25 1.3775,0.53 1.92625,0.83875c0.97625,0.54625 1.715,1.2675 2.20625,2.16625c0.49125,0.89875 0.7375,1.97625 0.7375,3.23375c0,2.5075 -0.84375,4.45125 -2.53625,5.83125c-1.69125,1.38 -4.07125,2.0725 -7.15,2.0725c-3.0325,0 -5.41125,-0.705 -7.1325,-2.1125c-1.725,-1.405 -2.65375,-3.40625 -2.78,-6.0025l0,-0.00005zm28.45125,7.445l0,-19.79625l-7.15,0l0,-4.305l19.20875,0l0,4.305l-7.09625,0l0,19.79625l-4.9625,0zm22.6875,-19.27625l-3.34,10.26125l6.69375,0l-3.35375,-10.26125zm-2.88125,-4.825l5.725,0l8.69125,24.10125l-5.20375,0l-1.63875,-4.955l-9.33625,0l-1.59,4.955l-5.22,0l8.5725,-24.10125zm21.75875,19.75l3.9775,0c2.3025,0 3.975,-0.60375 5,-1.80875c1.03375,-1.20125 1.5475,-3.1625 1.5475,-5.865c0,-2.69375 -0.48,-4.6775 -1.43875,-5.93875c-0.96375,-1.2675 -2.46,-1.89875 -4.50375,-1.89875l-4.5825,0l0,15.51125zm-4.8575,4.35125l0,-24.10125l9.44,0c3.69875,0 6.455,0.99875 8.2725,2.99375c1.815,1.99375 2.7275,5.02125 2.7275,9.0825c0,2.19875 -0.3375,4.1425 -1.00875,5.8225c-0.6675,1.6825 -1.6475,3.03625 -2.91875,4.05625c-0.96,0.765 -2.0525,1.3125 -3.27375,1.64875c-1.22125,0.32875 -2.935,0.4975 -5.13625,0.4975l-8.1025,0zm24.2175,-24.17l5.005,0l0,15.12c0,1.86625 0.37125,3.22875 1.1125,4.08375c0.7425,0.855 1.9225,1.285 3.53625,1.285c1.63875,0 2.8275,-0.42625 3.5775,-1.27875c0.74625,-0.85 1.1225,-2.21125 1.1225,-4.09l0,-15.12l4.9575,0l0,15.6625c0,2.95625 -0.82625,5.2225 -2.48125,6.8025c-1.65125,1.5825 -4.0325,2.375 -7.1425,2.375c-3.1275,0 -5.525,-0.78875 -7.18875,-2.3625c-1.66375,-1.57625 -2.49875,-3.84875 -2.49875,-6.815l0,-15.6625zm32.55875,4.89375l-3.34,10.26125l6.6925,0l-3.3525,-10.26125zm-2.88125,-4.825l5.725,0l8.69,24.10125l-5.20375,0l-1.63875,-4.955l-9.33625,0l-1.58875,4.955l-5.22,0l8.5725,-24.10125zm16.905,24.10125l0,-24.10125l4.9575,0l0,19.64875l11.76375,0l0,4.4525l-16.72125,0zm33.94625,-12.9425l4.79625,0c1.2925,0 2.23875,-0.2725 2.83125,-0.82625c0.58375,-0.555 0.88,-1.43625 0.88,-2.66c0,-1.145 -0.28875,-2.01 -0.86375,-2.6025c-0.58,-0.585 -1.4425,-0.88125 -2.585,-0.88125l-5.05875,0l0,6.97zm-0.0338,4.3675l0,8.575l-4.9575,0l0,-24.10125l10.7175,0c2.53,0 4.44875,0.65875 5.75375,1.97c1.30125,1.31375 1.95625,3.24 1.95625,5.78625c0,2.485 -0.63875,4.40375 -1.91875,5.7475c-1.27125,1.3475 -3.09875,2.0225 -5.4625,2.0225l-6.08875,0zm24.22375,-10.70125l-3.34375,10.26125l6.6925,0l-3.34875,-10.26125zm-2.885,-4.825l5.725,0l8.69375,24.10125l-5.20875,0l-1.63375,-4.955l-9.34125,0l-1.58375,4.955l-5.225,0l8.57375,-24.10125zm16.17,-0.0688l5.00375,0l0,15.12c0,1.86625 0.37125,3.22875 1.11375,4.08375c0.74125,0.855 1.9225,1.285 3.53625,1.285c1.63375,0 2.8225,-0.42625 3.5725,-1.27875c0.75125,-0.85 1.1225,-2.21125 1.1225,-4.09l0,-15.12l4.96125,0l0,15.6625c0,2.95625 -0.82875,5.2225 -2.48,6.8025c-1.65125,1.5825 -4.0325,2.375 -7.14375,2.375c-3.1275,0 -5.525,-0.78875 -7.18875,-2.3625c-1.66375,-1.57625 -2.4975,-3.84875 -2.4975,-6.815l0,-15.6625zm24.1725,24.17l0,-24.10125l4.9625,0l0,19.64875l11.7625,0l0,4.4525l-16.725,0zm19.6075,0l0,-24.10125l4.96125,0l0,24.10125l-4.96125,0zm9.01375,-7.445l4.89625,0c0.18375,1.3175 0.725,2.29375 1.6175,2.93625c0.89625,0.6375 2.185,0.95625 3.87875,0.95625c1.43875,0 2.5225,-0.25625 3.25625,-0.77125c0.73,-0.50875 1.0925,-1.2675 1.0925,-2.2725c0,-1.465 -2.0975,-2.67 -6.30125,-3.63125c-0.0538,-0.0125 -0.10375,-0.0213 -0.145,-0.0337c-0.10875,-0.0213 -0.27625,-0.0612 -0.50875,-0.1175c-2.2475,-0.49125 -3.85375,-1.0375 -4.80875,-1.655c-0.85375,-0.54 -1.5,-1.2775 -1.9475,-2.19875c-0.45,-0.92 -0.67,-2.00375 -0.67,-3.26375c0,-2.34375 0.79625,-4.1425 2.38875,-5.39375c1.5925,-1.245 3.895,-1.87 6.905,-1.87c2.815,0 5.01625,0.6625 6.60125,1.99375c1.58875,1.33375 2.4275,3.20625 2.51375,5.63125l-4.765,0c-0.0888,-1.17 -0.53375,-2.05875 -1.33875,-2.6675c-0.80875,-0.60875 -1.96,-0.915 -3.4525,-0.915c-1.30125,0 -2.3025,0.2525 -3.0075,0.75875c-0.7,0.50875 -1.05375,1.2275 -1.05375,2.16875c0,1.2775 1.3675,2.22875 4.10625,2.865c0.7425,0.1725 1.3225,0.30875 1.73875,0.40625c1.7525,0.4475 3.0025,0.8 3.7375,1.04625c0.7325,0.25 1.375,0.53 1.92625,0.83875c0.975,0.54625 1.71375,1.2675 2.205,2.16625c0.4925,0.89875 0.73875,1.97625 0.73875,3.23375c0,2.5075 -0.84625,4.45125 -2.54,5.83125c-1.68875,1.38 -4.06875,2.0725 -7.14625,2.0725c-3.0325,0 -5.41375,-0.705 -7.135,-2.1125c-1.72625,-1.405 -2.6525,-3.40625 -2.7825,-6.0025l0,-0.00005zm28.45625,7.445l0,-19.79625l-7.1525,0l0,-4.305l19.21125,0l0,4.305l-7.10125,0l0,19.79625l-4.9575,0zm22.68875,-19.27625l-3.34125,10.26125l6.68875,0l-3.3475,-10.26125zm-2.88625,-4.825l5.73,0l8.68875,24.10125l-5.2075,0l-1.635,-4.955l-9.34,0l-1.585,4.955l-5.225,0l8.57375,-24.10125z"/>
  </g>
 </g>
</svg>